<?xml version="1.0" encoding="utf-8"?>
<!-- Generator: Adobe Illustrator 19.0.0, SVG Export Plug-In . SVG Version: 6.00 Build 0)  -->
<svg version="1.1" id="Layer_1" xmlns="http://www.w3.org/2000/svg" xmlns:xlink="http://www.w3.org/1999/xlink" x="0px" y="0px"
	 viewBox="-95 271 420 251" style="enable-background:new -95 271 420 251;" xml:space="preserve">
<style type="text/css">
	.st0{fill:#EE5B31;}
	.st1{fill:#EE5B31;stroke:#EE5B31;stroke-width:0.25;stroke-miterlimit:10;}
	.st2{fill:#333333;}
	.st3{fill:#E9E7E3;}
	.st4{fill:#736A67;}
	.st5{fill:#FFFFFF;}
	.st6{fill:#81C31F;}
	.st7{fill:none;stroke:#CCCCCC;stroke-linecap:round;stroke-linejoin:round;stroke-miterlimit:10;}
	.st8{fill:none;stroke:#FFFFFF;stroke-linecap:round;stroke-linejoin:round;stroke-miterlimit:10;}
</style>
<g>
	<path class="st0" d="M-36.1,281.7c1.2,0,2,0.8,1.9,1.8c-0.2,2-0.4,4-0.7,5.9c-0.1,0.4-0.3,0.8-0.5,1.1c-2.8,2.9-5.7,5.7-8.5,8.6
		c-0.8,0.8-1.7,0.8-2.4,0c-1.7-1.7-3.5-3.5-5.2-5.2c-0.7-0.7-0.7-1.7,0-2.4c2.9-2.9,5.7-5.7,8.6-8.6c0.2-0.2,0.6-0.5,0.9-0.5
		C-40.1,282.1-38,281.9-36.1,281.7z M-35.9,282.7c-0.1,0-0.1,0-0.2,0c-1.9,0.2-3.8,0.4-5.6,0.7c-0.2,0-0.5,0.2-0.7,0.3
		c-2.8,2.8-5.6,5.6-8.4,8.4c-0.4,0.4-0.4,0.7,0,1.1c1.7,1.7,3.3,3.3,5,5c0.4,0.4,0.7,0.4,1.1,0c2.8-2.8,5.6-5.6,8.4-8.4
		c0.2-0.2,0.3-0.4,0.3-0.6c0.2-1.9,0.5-3.9,0.7-5.8C-35.2,283-35.5,282.7-35.9,282.7z"/>
	<path class="st0" d="M-46.9,289.7c0.2,0.1,0.4,0.2,0.5,0.4c1.3,1.3,2.6,2.6,4,3.9c0.3,0.3,0.4,0.6,0.1,0.9
		c-0.3,0.3-0.6,0.2-0.9-0.1c-1.3-1.3-2.6-2.6-3.9-4c-0.2-0.2-0.2-0.5-0.2-0.7C-47.3,290-47,289.9-46.9,289.7z"/>
	<path class="st0" d="M-49,291.8c0.2,0.1,0.4,0.2,0.5,0.3c1.3,1.3,2.6,2.6,4,3.9c0.3,0.3,0.4,0.5,0.1,0.8c-0.3,0.3-0.6,0.2-0.9-0.1
		c-1.3-1.3-2.7-2.7-4-4c-0.1-0.1-0.2-0.5-0.2-0.7C-49.4,292.1-49.1,292-49,291.8z"/>
	<path class="st0" d="M-38.3,284.6c0.6,0,1.1,0.5,1.1,1.1c0,0.6-0.5,1.1-1.1,1.1s-1.1-0.5-1.1-1.1
		C-39.4,285.1-38.9,284.6-38.3,284.6z"/>
</g>
<g>
	<g>
		<path class="st0" d="M-7.5,298c-4.9,0-8.9-4-8.9-8.9c0-0.3,0.2-0.5,0.5-0.5H0.9c0.3,0,0.5,0.2,0.5,0.5C1.4,294-2.6,298-7.5,298z
			 M-15.4,289.6c0.3,4.1,3.7,7.4,7.9,7.4c4.2,0,7.6-3.3,7.9-7.4H-15.4z"/>
	</g>
	<g>
		<path class="st0" d="M-15.2,301.8c-0.1,0-0.3,0-0.4-0.1c-0.2-0.2-0.2-0.5,0-0.7l4.3-4.3c0.2-0.2,0.5-0.2,0.7,0
			c0.2,0.2,0.2,0.5,0,0.7l-4.3,4.3C-14.9,301.8-15,301.8-15.2,301.8z"/>
	</g>
	<g>
		<path class="st0" d="M0.4,301.8c-0.1,0-0.3,0-0.4-0.1l-4.3-4.3c-0.2-0.2-0.2-0.5,0-0.7c0.2-0.2,0.5-0.2,0.7,0l4.3,4.3
			c0.2,0.2,0.2,0.5,0,0.7C0.7,301.8,0.5,301.8,0.4,301.8z"/>
	</g>
	<g>
		<path class="st0" d="M-10.4,287.5c-0.2,0-0.4-0.1-0.5-0.3c-0.1-0.3,0-0.6,0.3-0.7c0.1,0,2.6-1.1,1.8-3.4l-0.2-0.6
			c-0.9-2.5-1.3-3.7-0.2-5c0.2-0.2,0.5-0.2,0.7-0.1c0.2,0.2,0.2,0.5,0.1,0.7c-0.7,0.8-0.5,1.5,0.4,4l0.2,0.6
			c0.9,2.6-1.1,4.2-2.3,4.7C-10.3,287.5-10.4,287.5-10.4,287.5z"/>
	</g>
	<g>
		<path class="st0" d="M-6.3,287.5c-0.2,0-0.4-0.1-0.5-0.3c-0.1-0.3,0-0.6,0.3-0.7c0.2-0.1,1.9-0.9,1.3-2.5l-0.2-0.5
			c-0.6-1.9-1-2.9-0.1-4c0.2-0.2,0.5-0.3,0.7-0.1c0.2,0.2,0.3,0.5,0.1,0.7c-0.5,0.6-0.3,1.1,0.3,3l0.2,0.5c0.7,2.1-0.9,3.4-1.9,3.8
			C-6.2,287.5-6.3,287.5-6.3,287.5z"/>
	</g>
	<g>
		<path class="st0" d="M-10.1,295.2c-0.1,0-0.1,0-0.2,0c-3.1-1.4-3.4-3.4-3.4-3.5c0-0.3,0.2-0.5,0.5-0.6c0.3,0,0.5,0.2,0.6,0.5
			c0,0.1,0.2,1.5,2.8,2.6c0.3,0.1,0.4,0.4,0.3,0.7C-9.7,295.1-9.9,295.2-10.1,295.2z"/>
	</g>
</g>
<g>
	<path class="st0" d="M26.7,280.4c0.5,0,1.1,0,1.6,0c0.1,0.2,0.3,0.4,0.3,0.6c0.1,0.5,0,1,0.1,1.5c0.3,1.5,1.2,2.6,2.4,3.5
		c0.8,0.6,1.6,1.1,2.4,1.7c1.8,1.4,2.9,3.2,3,5.6c0.2,3.7-3.5,6.1-6.3,4.7c-0.1,0-0.2,0-0.3,0c-0.6,0.4-1.3,0.7-2,0.8
		c-0.3,0-0.7,0-1,0c-0.6-0.3-1.3-0.5-1.9-0.8c-0.2-0.1-0.3-0.1-0.5,0c-0.8,0.3-1.6,0.4-2.5,0.3c-2.5-0.5-4.2-3.1-3.7-5.7
		c0.4-2,1.4-3.7,3.1-4.9c0.8-0.7,1.7-1.3,2.6-1.9c1.5-1.1,2.4-2.6,2.3-4.6C26.3,280.8,26.4,280.5,26.7,280.4z M27.5,282.1
		c-0.2,1.4-0.6,2.7-1.2,3.9s-1.2,2.4-1.9,3.6c-0.8,1.5-0.9,3-0.5,4.6c0.2,1.1,0.8,2.1,1.7,2.7c1.5,1.1,3.2,0.8,4.4-0.6
		c1.5-1.9,1.6-4,0.8-6.1c-0.3-0.8-0.8-1.6-1.2-2.3c-0.9-1.6-1.6-3.2-2-4.9C27.6,282.7,27.6,282.4,27.5,282.1z M30.4,286.6
		C30.3,286.7,30.3,286.7,30.4,286.6c0.1,0.4,0.2,0.6,0.4,0.9c0.3,0.6,0.6,1.2,0.9,1.8c0.9,1.8,0.9,3.7,0.3,5.6
		c-0.2,0.7-0.6,1.3-0.9,2c0.1,0,0.3,0.1,0.5,0.1c2,0.2,3.7-1.3,3.9-3.3c0.1-2.1-0.7-3.8-2.3-5.1C32.3,288,31.3,287.3,30.4,286.6z
		 M23.9,297c-1.7-2.7-1.8-5.4-0.4-8.2c0.3-0.6,0.7-1.3,1-1.9c0-0.1,0.1-0.2,0.2-0.4c-1,0.7-1.8,1.4-2.7,2c-1.2,0.9-2,2.1-2.3,3.6
		c-0.5,1.9,0.4,3.9,2,4.6C22.4,297.2,23.1,297.2,23.9,297z"/>
</g>
<g>
	<path class="st1" d="M62.6,298.6c-0.8-1.2-1.5-2.4-2.3-3.6c-0.2-0.3-0.4-0.5-0.8-0.5c-1.3-0.2-1.9-0.8-2.1-2.1
		c0-0.2-0.2-0.5-0.4-0.7c-1.2-0.8-2.4-1.5-3.6-2.3c0.3-0.5,0.6-1,1-1.5c0.1-0.1,0.3-0.1,0.4-0.1c1.1,0.2,2.1,0.3,3.2,0.5
		c0.4,0.1,0.6,0,0.9-0.4c1.5-2.4,3.2-4.5,5.8-5.8c2-1,4.1-1.5,6.3-1.7c0.1,0,0.3,0,0.4,0c0.1,0,0.1,0,0.3,0.1
		c-0.2,1.1-0.3,2.2-0.5,3.3c-0.9,4.2-3.4,7.2-7,9.3c-0.4,0.3-0.6,0.5-0.5,1c0.2,1,0.3,2,0.5,2.9c0.1,0.4,0,0.6-0.4,0.8
		C63.4,298.1,63,298.3,62.6,298.6z M62.8,297.5c0.5-0.1,0.6-0.4,0.6-0.8c-0.2-1-0.3-2-0.5-3c-0.1-0.4,0-0.7,0.4-0.9
		c3.8-2.1,6.4-5.1,7.2-9.5c0.1-0.7,0.2-1.3,0.3-2c-0.2,0-0.2,0-0.3,0c-0.4,0.1-0.9,0.1-1.3,0.2c-2.8,0.5-5.4,1.5-7.3,3.7
		c-1,1.2-1.9,2.5-2.8,3.7c-0.2,0.3-0.3,0.4-0.7,0.3c-1-0.2-2.1-0.3-3.2-0.5c-0.5-0.1-0.7,0.1-0.9,0.6c1.1,0.7,2.2,1.4,3.3,2.1
		c0.3,0.2,0.4,0.4,0.4,0.7c0,1.2,0.6,1.8,1.8,1.8c0.4,0,0.6,0.1,0.7,0.4C61.4,295.4,62.1,296.4,62.8,297.5z"/>
	<path class="st1" d="M64.3,285.4c0-1.2,1.1-2.3,2.3-2.2c1.2,0,2.2,1.1,2.2,2.3s-1.1,2.3-2.3,2.3C65.3,287.7,64.3,286.6,64.3,285.4z
		 M65,285.5c0,0.9,0.6,1.5,1.5,1.5s1.6-0.7,1.6-1.6s-0.7-1.5-1.6-1.5C65.6,283.9,65,284.6,65,285.5z"/>
</g>
<g>
	<g>
		<path class="st0" d="M-78.6,295.3c-3.8,0-7-3.1-7-7c0-3.8,3.1-7,7-7c3.8,0,7,3.1,7,7C-71.6,292.2-74.7,295.3-78.6,295.3
			L-78.6,295.3z M-78.6,282.1c-3.4,0-6.2,2.8-6.2,6.2c0,3.4,2.8,6.2,6.2,6.2s6.2-2.8,6.2-6.2C-72.3,284.9-75.1,282.1-78.6,282.1
			L-78.6,282.1z"/>
	</g>
	<g>
		<path class="st0" d="M-82.7,288.3h-0.7c0-2.7,2.2-4.9,4.9-4.9v0.7C-80.8,284.2-82.7,286-82.7,288.3L-82.7,288.3z"/>
	</g>
	<g>
		<path class="st0" d="M-69.8,297.7c-0.1,0-0.2,0-0.3-0.1l-4.1-4.1c-0.1-0.1-0.1-0.4,0-0.5c0.1-0.1,0.4-0.1,0.5,0l4.1,4.1
			c0.1,0.1,0.1,0.4,0,0.5C-69.6,297.7-69.7,297.7-69.8,297.7L-69.8,297.7z"/>
	</g>
</g>
<g>
	<g>
		<g>
			<g>
				<g>
					<path class="st2" d="M109.4,303.9L109.4,303.9H85.6c-0.1,0-0.2,0-0.2-0.1c-0.1-0.1-0.1-0.2-0.1-0.2l0.8-20.4
						c0-0.2,0.2-0.3,0.3-0.3h22c0.2,0,0.3,0.1,0.3,0.3l1,20.3v0.1C109.7,303.8,109.6,303.9,109.4,303.9z M85.9,303.2H109l-0.9-19.7
						H86.7L85.9,303.2z"/>
					<path class="st2" d="M109.4,304.1H85.6c-0.1,0-0.3-0.1-0.4-0.2c-0.1-0.1-0.1-0.2-0.1-0.4l0.8-20.4c0-0.3,0.2-0.5,0.5-0.5h22
						c0.3,0,0.5,0.2,0.5,0.5l1,20.2v0.1C109.9,303.9,109.7,304.1,109.4,304.1L109.4,304.1z M86.4,283c-0.1,0-0.2,0.1-0.2,0.2
						l-0.8,20.4v0.1l0.1,0.1h23.8c0.1,0,0.2-0.1,0.2-0.2c0,0,0,0,0-0.1l0,0l-1-20.3c0-0.1-0.1-0.2-0.2-0.2
						C108.3,283,86.4,283,86.4,283z M109.2,303.4H85.7v-0.2l0.8-19.8h21.7v0.2L109.2,303.4z M86.1,303.1h22.8l-0.9-19.4H86.9
						L86.1,303.1z"/>
				</g>
			</g>
			<g>
				<g>
					<path class="st2" d="M108.4,283.6c-0.1,0-0.2,0-0.2-0.1l-1.6-1.7H88.4l-1.7,1.7c-0.1,0.1-0.3,0.1-0.5,0c-0.1-0.1-0.1-0.3,0-0.5
						l1.8-1.8c0.1-0.1,0.2-0.1,0.2-0.1h18.5c0.1,0,0.2,0,0.2,0.1l1.7,1.8c0.1,0.1,0.1,0.4,0,0.5
						C108.6,283.5,108.5,283.6,108.4,283.6z"/>
					<path class="st2" d="M86.4,283.7c-0.1,0-0.3-0.1-0.3-0.1c-0.1-0.1-0.1-0.2-0.1-0.4c0-0.1,0-0.3,0.1-0.4l1.8-1.8
						c0.1-0.1,0.2-0.1,0.4-0.1h18.5c0.1,0,0.3,0.1,0.4,0.2l1.7,1.8c0.1,0.1,0.1,0.2,0.1,0.4c0,0.1-0.1,0.3-0.2,0.3
						c-0.2,0.2-0.5,0.2-0.7,0l-1.6-1.7H88.4l-1.7,1.7C86.7,283.7,86.5,283.7,86.4,283.7z M88.2,281.2c0,0-0.1,0-0.1,0.1l-1.8,1.8
						l-0.1,0.1c0,0,0,0.1,0.1,0.1c0.1,0.1,0.2,0.1,0.3,0l1.8-1.8h18.3l1.7,1.8c0.1,0.1,0.2,0.1,0.3,0l0.1-0.1v-0.1l-1.7-1.8
						l-0.1-0.1H88.2z"/>
				</g>
			</g>
			<g>
				<g>
					<path class="st2" d="M93.6,281.4c-0.2,0-0.3-0.2-0.3-0.3v-2.2c0-0.1,0.4-3.7,4.3-3.7c0.2,0,0.3,0.1,0.3,0.3s-0.1,0.3-0.3,0.3
						c-3.3,0.1-3.7,3-3.7,3.1v2.1C93.9,281.2,93.7,281.4,93.6,281.4z"/>
					<path class="st2" d="M93.6,281.5c-0.3,0-0.5-0.2-0.5-0.5v-2.1c0,0,0.4-3.8,4.5-3.9c0.3,0,0.5,0.2,0.5,0.5s-0.2,0.5-0.5,0.5
						c-3.2,0.1-3.5,2.8-3.5,2.9v2.1C94.1,281.3,93.8,281.5,93.6,281.5z M97.6,275.4c-3.8,0.1-4.2,3.5-4.2,3.6v2
						c0,0.1,0.1,0.2,0.2,0.2s0.2-0.1,0.2-0.2v-2.1c0-0.1,0.4-3.2,3.8-3.2c0.1,0,0.2-0.1,0.2-0.2C97.7,275.4,97.7,275.4,97.6,275.4z"
						/>
				</g>
			</g>
			<g>
				<g>
					<path class="st2" d="M101.4,281.4c-0.2,0-0.3-0.2-0.3-0.3v-2.2c0-0.1-0.3-3-3.7-3.1c-0.2,0-0.3-0.2-0.3-0.3
						c0-0.2,0.1-0.3,0.3-0.3c3.9,0.1,4.3,3.7,4.3,3.7v2.1C101.7,281.2,101.6,281.4,101.4,281.4z"/>
					<path class="st2" d="M101.4,281.5c-0.3,0-0.5-0.2-0.5-0.5v-2.1c0-0.3-0.4-2.8-3.5-2.9c-0.3,0-0.5-0.2-0.5-0.5s0.2-0.5,0.5-0.5
						c4.1,0.1,4.5,3.8,4.5,3.8v2.2C101.9,281.3,101.7,281.5,101.4,281.5z M97.4,275.4c-0.1,0-0.2,0.1-0.2,0.2s0.1,0.2,0.2,0.2
						c3.3,0.1,3.8,2.9,3.8,3.2v2.1c0,0.1,0.1,0.2,0.2,0.2s0.2-0.1,0.2-0.2V279C101.6,278.8,101.2,275.4,97.4,275.4z"/>
				</g>
			</g>
			<g>
				<g>
					<path class="st2" d="M97.4,295.2c-0.2,0-0.3-0.1-0.3-0.3c0-0.2,0.1-0.3,0.3-0.3c3.3-0.1,3.7-3,3.7-3.1v-4.3
						c0-0.2,0.2-0.3,0.3-0.3c0.2,0,0.3,0.2,0.3,0.3v4.4C101.7,291.5,101.3,295.1,97.4,295.2L97.4,295.2z"/>
					<path class="st2" d="M97.4,295.3L97.4,295.3c-0.3,0-0.5-0.2-0.5-0.5c0-0.3,0.2-0.5,0.5-0.5c3.2-0.1,3.5-2.8,3.5-2.9v-4.3
						c0-0.3,0.2-0.5,0.5-0.5s0.5,0.2,0.5,0.5v4.4C101.9,291.5,101.5,295.2,97.4,295.3L97.4,295.3z M101.4,286.9
						c-0.1,0-0.2,0.1-0.2,0.2v4.3c0,0.1-0.4,3.2-3.8,3.2c-0.1,0-0.2,0.1-0.2,0.2c0,0.1,0.1,0.2,0.2,0.2v0.2V295
						c3.8-0.1,4.2-3.5,4.2-3.6v-4.3C101.6,287,101.5,286.9,101.4,286.9z"/>
				</g>
			</g>
			<g>
				<g>
					<path class="st2" d="M97.6,295.2L97.6,295.2c-3.9-0.1-4.3-3.7-4.3-3.7v-4.4c0-0.2,0.2-0.3,0.3-0.3s0.3,0.2,0.3,0.3v4.4
						c0,0.1,0.3,3,3.7,3.1c0.2,0,0.3,0.2,0.3,0.3C97.9,295,97.7,295.2,97.6,295.2z"/>
					<path class="st2" d="M97.6,295.3L97.6,295.3c-4.1-0.1-4.5-3.8-4.5-3.8v-4.4c0-0.3,0.2-0.5,0.5-0.5s0.5,0.2,0.5,0.5v4.4
						c0,0.3,0.4,2.8,3.5,2.9c0.3,0,0.5,0.2,0.5,0.5C98.1,295.1,97.8,295.3,97.6,295.3z M93.6,286.9c-0.1,0-0.2,0.1-0.2,0.2v4.4
						c0,0.1,0.4,3.5,4.2,3.5v0.2V295c0.1,0,0.2-0.1,0.2-0.2c0-0.1-0.1-0.2-0.2-0.2c-3.3-0.1-3.8-2.9-3.8-3.2V287
						C93.7,287,93.7,286.9,93.6,286.9z"/>
				</g>
			</g>
			<g>
				<g>
					<path class="st2" d="M93.5,287.6c-0.9,0-1.6-0.7-1.6-1.6s0.7-1.6,1.6-1.6c0.9,0,1.6,0.7,1.6,1.6S94.4,287.6,93.5,287.6z
						 M93.5,285.2c-0.5,0-0.9,0.4-0.9,0.9s0.4,0.9,0.9,0.9s0.9-0.4,0.9-0.9S94,285.2,93.5,285.2z"/>
					<path class="st2" d="M93.5,287.8c-1,0-1.7-0.8-1.7-1.7s0.8-1.7,1.7-1.7s1.7,0.8,1.7,1.7S94.5,287.8,93.5,287.8z M93.5,284.7
						c-0.8,0-1.4,0.6-1.4,1.4c0,0.8,0.6,1.4,1.4,1.4s1.4-0.6,1.4-1.4C94.9,285.3,94.3,284.7,93.5,284.7z M93.5,287.1
						c-0.6,0-1.1-0.5-1.1-1.1s0.5-1.1,1.1-1.1s1.1,0.5,1.1,1.1S94.1,287.1,93.5,287.1z M93.5,285.3c-0.4,0-0.7,0.3-0.7,0.7
						s0.3,0.7,0.7,0.7s0.7-0.3,0.7-0.7C94.2,285.7,93.9,285.3,93.5,285.3z"/>
				</g>
			</g>
			<g>
				<g>
					<path class="st2" d="M101.4,287.6c-0.9,0-1.6-0.7-1.6-1.6s0.7-1.6,1.6-1.6s1.6,0.7,1.6,1.6S102.3,287.6,101.4,287.6z
						 M101.4,285.1c-0.5,0-0.9,0.4-0.9,0.9s0.4,0.9,0.9,0.9s0.9-0.4,0.9-0.9S101.9,285.1,101.4,285.1z"/>
					<path class="st2" d="M101.4,287.8c-1,0-1.8-0.8-1.8-1.8s0.8-1.8,1.8-1.8s1.8,0.8,1.8,1.8S102.4,287.8,101.4,287.8z
						 M101.4,284.6c-0.8,0-1.4,0.6-1.4,1.4s0.6,1.4,1.4,1.4s1.4-0.6,1.4-1.4S102.2,284.6,101.4,284.6z M101.4,287.1
						c-0.6,0-1.1-0.5-1.1-1.1s0.5-1.1,1.1-1.1s1.1,0.5,1.1,1.1S102,287.1,101.4,287.1z M101.4,285.3c-0.4,0-0.8,0.3-0.8,0.8
						c0,0.4,0.3,0.8,0.8,0.8s0.8-0.3,0.8-0.8S101.8,285.3,101.4,285.3z"/>
				</g>
			</g>
		</g>
	</g>
</g>
<g id="Icons_2_">
	<g>
		<g>
			<path class="st0" d="M-57.5,371c-1.3,0-2.4-1.1-2.4-2.4v-1.9c0-1.3,1.1-2.4,2.4-2.4c1.3,0,2.4,1.1,2.4,2.4v1.9
				C-55.1,369.9-56.2,371-57.5,371z M-57.5,364.8c-1,0-1.9,0.8-1.9,1.9v1.9c0,1,0.8,1.9,1.9,1.9c1,0,1.9-0.8,1.9-1.9v-1.9
				C-55.6,365.7-56.5,364.8-57.5,364.8z"/>
		</g>
		<g>
			<path class="st0" d="M-51.7,374.8h-11.6c-0.1,0-0.1,0-0.2-0.1c-0.1-0.1-0.1-0.1-0.1-0.2c0-1.3,0.7-2.3,1.9-3.1
				c1.1-0.6,2.6-1,4.1-1c1.6,0,3,0.3,4.1,1c1.3,0.7,1.9,1.8,1.9,3.1C-51.4,374.7-51.6,374.8-51.7,374.8z M-63,374.3h11
				c-0.1-1.2-1-1.9-1.7-2.3c-1-0.6-2.4-0.9-3.9-0.9s-2.8,0.3-3.9,0.9C-62.1,372.3-62.9,373.1-63,374.3z"/>
		</g>
	</g>
</g>
<g>
	<g>
		<path class="st0" d="M-82.9,375.9c-3.2,0-5.7-2.6-5.7-5.7c0-3.1,2.6-5.7,5.7-5.7s5.7,2.6,5.7,5.7
			C-77.2,373.3-79.7,375.9-82.9,375.9z M-82.9,365c-2.8,0-5.1,2.3-5.1,5.2c0,2.9,2.3,5.2,5.2,5.2c2.9,0,5.2-2.3,5.2-5.2
			C-77.6,367.3-80,365-82.9,365z"/>
		<path class="st0" d="M-82.9,376c-3.2,0-5.8-2.6-5.8-5.8c0-3.2,2.6-5.8,5.8-5.8c3.2,0,5.9,2.6,5.9,5.8C-77,373.4-79.7,376-82.9,376
			z M-82.9,364.6c-3.1,0-5.6,2.5-5.6,5.6c0,3.1,2.5,5.6,5.6,5.6s5.6-2.5,5.6-5.6C-77.2,367.1-79.8,364.6-82.9,364.6z M-82.9,375.4
			c-2.9,0-5.2-2.4-5.2-5.2c0-2.9,2.4-5.2,5.2-5.2c2.8,0,5.2,2.4,5.2,5.2C-77.6,373.1-80,375.4-82.9,375.4z M-82.9,365.1
			c-2.8,0-5.1,2.3-5.1,5.1c0,2.8,2.3,5.1,5.1,5.1c2.8,0,5.1-2.3,5.1-5.1C-77.8,367.4-80.1,365.1-82.9,365.1z"/>
	</g>
</g>
<g>
	<g>
		<circle class="st0" cx="-82.9" cy="367.9" r="0.5"/>
		<path class="st0" d="M-82.9,368.5c-0.3,0-0.6-0.2-0.6-0.6s0.2-0.6,0.6-0.6s0.6,0.2,0.6,0.6S-82.6,368.5-82.9,368.5z M-82.9,367.6
			c-0.2,0-0.4,0.2-0.4,0.4s0.2,0.4,0.4,0.4c0.2,0,0.4-0.2,0.4-0.4S-82.7,367.6-82.9,367.6z"/>
	</g>
</g>
<g>
	<g>
		<polygon class="st0" points="-82.6,372.7 -83.1,372.7 -83.1,369.6 -83.8,369.6 -83.8,369 -82.6,369 		"/>
		<path class="st0" d="M-82.5,372.8h-0.8v-3.1h-0.6v-0.8h1.4C-82.5,368.9-82.5,372.8-82.5,372.8z M-83,372.6h0.4v-3.5h-1v0.4h0.6
			V372.6z"/>
	</g>
</g>
<path class="st0" d="M177.4,288.1c-1.5,3.2-8.6,9.6-10,10.8c-1.5-1.3-8.4-7.6-9.9-10.8c-0.7-1.4-0.8-3.2-0.2-4.6
	c0.4-1.2,1.3-2.2,2.4-2.7c0.8-0.4,1.6-0.6,2.5-0.6c1.9,0,3.7,0.9,4.5,2.3l0.4,0.8c0.1,0.1,0.2,0.2,0.3,0.2c0.1,0,0.3-0.1,0.4-0.2
	c0,0,0,0,0-0.1l0.4-0.8c0.8-1.4,2.6-2.3,4.5-2.3c0.9,0,1.7,0.2,2.5,0.6c1.1,0.5,1.9,1.5,2.4,2.7C178.2,285,178.1,286.7,177.4,288.1z
	"/>
<path class="st3" d="M142.4,288.1c-1.5,3.2-8.6,9.6-10,10.8c-1.5-1.3-8.4-7.6-9.9-10.8c-0.7-1.4-0.8-3.2-0.2-4.6
	c0.4-1.2,1.3-2.2,2.4-2.7c0.8-0.4,1.6-0.6,2.5-0.6c1.9,0,3.7,0.9,4.5,2.3l0.4,0.8c0.1,0.1,0.2,0.2,0.3,0.2s0.3-0.1,0.4-0.2
	c0,0,0,0,0-0.1l0.4-0.8c0.8-1.4,2.6-2.3,4.5-2.3c0.9,0,1.7,0.2,2.5,0.6c1.1,0.5,1.9,1.5,2.4,2.7C143.2,285,143.1,286.7,142.4,288.1z
	"/>
<path class="st4" d="M-5.1,371.1h-5.5c-0.5,0-0.9-0.4-0.9-0.9s0.4-0.9,0.9-0.9h5.5c0.5,0,0.9,0.4,0.9,0.9S-4.6,371.1-5.1,371.1"/>
<path class="st4" d="M-7.8,373.8c-0.5,0-0.9-0.4-0.9-0.9v-5.5c0-0.5,0.4-0.9,0.9-0.9s0.9,0.4,0.9,0.9v5.5
	C-6.9,373.4-7.3,373.8-7.8,373.8"/>
<path class="st4" d="M-8.1,377.5c-4,0-7.3-3.3-7.3-7.3s3.3-7.3,7.3-7.3s7.3,3.3,7.3,7.3C-0.8,374.2-4.1,377.5-8.1,377.5 M-8.1,364
	c-3.4,0-6.1,2.8-6.1,6.1c0,3.4,2.8,6.1,6.1,6.1c3.4,0,6.1-2.8,6.1-6.1C-2,366.8-4.7,364-8.1,364"/>
<g>
	<path class="st4" d="M-29.5,371.1H-35c-0.5,0-0.9-0.4-0.9-0.9s0.4-0.9,0.9-0.9h5.5c0.5,0,0.9,0.4,0.9,0.9S-29,371.1-29.5,371.1"/>
	<path class="st4" d="M-32.2,377.5c-4,0-7.3-3.3-7.3-7.3s3.3-7.3,7.3-7.3s7.3,3.3,7.3,7.3S-28.1,377.5-32.2,377.5 M-32.2,364
		c-3.4,0-6.1,2.8-6.1,6.1c0,3.4,2.8,6.1,6.1,6.1c3.4,0,6.1-2.8,6.1-6.1C-26,366.8-28.8,364-32.2,364"/>
</g>
<path class="st0" d="M195.2,370.5h-5.5c-0.5,0-0.9-0.4-0.9-0.9s0.4-0.9,0.9-0.9h5.5c0.5,0,0.9,0.4,0.9,0.9
	C196.2,370,195.8,370.5,195.2,370.5"/>
<path class="st0" d="M192.5,373.2c-0.5,0-0.9-0.4-0.9-0.9v-5.5c0-0.5,0.4-0.9,0.9-0.9s0.9,0.4,0.9,0.9v5.5
	C193.4,372.8,193,373.2,192.5,373.2"/>
<path class="st0" d="M192.5,376.9c-4,0-7.3-3.3-7.3-7.3s3.3-7.3,7.3-7.3s7.3,3.3,7.3,7.3S196.5,376.9,192.5,376.9 M192.5,363.4
	c-3.4,0-6.1,2.8-6.1,6.1c0,3.4,2.8,6.1,6.1,6.1s6.1-2.8,6.1-6.1C198.6,366.1,195.9,363.4,192.5,363.4"/>
<g>
	<path class="st0" d="M170.1,370.5h-5.5c-0.5,0-0.9-0.4-0.9-0.9s0.4-0.9,0.9-0.9h5.5c0.5,0,0.9,0.4,0.9,0.9
		C171.1,370,170.7,370.5,170.1,370.5"/>
	<path class="st0" d="M167.5,376.9c-4,0-7.3-3.3-7.3-7.3s3.3-7.3,7.3-7.3s7.3,3.3,7.3,7.3S171.5,376.9,167.5,376.9 M167.5,363.4
		c-3.4,0-6.1,2.8-6.1,6.1c0,3.4,2.8,6.1,6.1,6.1c3.4,0,6.1-2.8,6.1-6.1C173.7,366.1,170.9,363.4,167.5,363.4"/>
</g>
<g>
	<g>
		<path class="st5" d="M-49.8,340c-0.3-0.2-0.6-0.2-0.8-0.2h-0.7H-54h-0.5c-0.1-3.6-1.4-7.1-3.8-9.9c-2.3-2.7-5.5-4.6-8.9-5.3
			c0.3-0.5,0.4-1.1,0.4-1.7c0-0.9-0.4-1.9-1.1-2.6c-0.7-0.7-1.6-1.1-2.6-1.1c-0.9,0-1.9,0.4-2.6,1.1c-0.5,0.7-0.9,1.7-0.9,2.6
			c0,0.6,0.1,1.2,0.4,1.7c-3.4,0.7-6.6,2.6-8.9,5.3c-2.3,2.7-3.7,6.3-3.8,9.9h-0.4h-2.7h-0.7c-0.3,0-0.6,0.1-0.8,0.2
			c-0.5,0.3-0.8,0.9-0.8,1.5s0.3,1.2,0.8,1.5c0.3,0.2,0.6,0.2,0.8,0.2h0.7h2.7h3c0.1,0.6,0.3,1.1,0.7,1.5c0.5,0.5,1.2,0.8,1.9,0.8
			h3.6h7.1h7.1h3.6c0.7,0,1.4-0.3,1.9-0.8c0.4-0.4,0.6-0.9,0.7-1.5h3h2.7h0.7c0.3,0,0.6-0.1,0.8-0.2c0.5-0.3,0.8-0.9,0.8-1.5
			C-48.9,340.9-49.3,340.3-49.8,340z M-72.3,320.9c0.5-0.5,1.2-0.8,2-0.8c0.7,0,1.5,0.3,2,0.8s0.8,1.2,0.8,2c0,0.7-0.3,1.5-0.8,2
			s-1.2,0.8-2,0.8c-0.7,0-1.5-0.3-2-0.8s-0.8-1.2-0.8-2C-73.2,322.2-72.9,321.4-72.3,320.9z M-81.8,330.4c2.2-2.6,5.4-4.5,8.8-5.1
			l0.1,0.1c0.7,0.7,1.6,1.1,2.6,1.1c0.9,0,1.9-0.4,2.6-1.1l0.1-0.1c3.4,0.6,6.6,2.4,8.8,5.1c2.2,2.6,3.5,5.9,3.6,9.3h-4.2h-11h-10.8
			h-4.2C-85.3,336.3-84,333-81.8,330.4z M-58.4,344.1c-0.3,0.4-0.8,0.6-1.3,0.6h-3.5h-7.1h-7.1h-3.5c-0.5,0-1-0.2-1.3-0.6
			c-0.2-0.3-0.4-0.6-0.5-0.9h1.6h10.9h10.9h1.6C-58,343.5-58.2,343.8-58.4,344.1z M-50.2,342.2c-0.1,0.1-0.3,0.1-0.4,0.1h-0.7H-54
			h-5.4h-11h-10.8h-5.5h-2.7h-0.7c-0.2,0-0.3,0-0.4-0.1c-0.3-0.1-0.5-0.4-0.5-0.7s0.2-0.6,0.4-0.8c0.1-0.1,0.3-0.1,0.4-0.1h0.7h2.7
			h5.4h10.9h10.9h5.6h2.7h0.7c0.2,0,0.3,0,0.4,0.1c0.3,0.2,0.4,0.5,0.4,0.8S-49.9,342.1-50.2,342.2z"/>
	</g>
	<g>
		<path class="st5" d="M-63.3,345.6h-17.8c-0.7,0-1.4-0.3-1.9-0.9c-0.4-0.4-0.6-0.9-0.7-1.5h-6.4c-0.3,0-0.6-0.1-0.9-0.3
			c-0.5-0.3-0.9-0.9-0.9-1.6c0-0.6,0.3-1.2,0.9-1.6c0.3-0.2,0.6-0.2,0.9-0.3h3.8c0.1-3.6,1.4-7.1,3.8-9.8c2.3-2.7,5.4-4.6,8.8-5.3
			c-0.3-0.5-0.4-1.1-0.4-1.6c0-1,0.4-1.9,1.1-2.6c0.7-0.7,1.6-1.1,2.6-1.1l0,0c1,0,1.9,0.4,2.6,1.1c0.7,0.7,1.1,1.6,1.1,2.6
			c0,0.6-0.1,1.1-0.4,1.6c3.4,0.7,6.6,2.6,8.8,5.3c2.3,2.7,3.7,6.2,3.8,9.8h3.8c0.3,0,0.6,0.1,0.9,0.3c0.5,0.3,0.9,0.9,0.9,1.6
			c0,0.6-0.3,1.2-0.9,1.6c-0.3,0.2-0.6,0.2-0.9,0.3h-6.4c-0.1,0.6-0.4,1.1-0.7,1.5c-0.5,0.5-1.2,0.8-1.9,0.9H-63.3z M-89.4,339.8
			h-0.7c-0.3,0-0.6,0.1-0.8,0.2c-0.5,0.3-0.8,0.8-0.8,1.4s0.3,1.1,0.8,1.4c0.2,0.1,0.5,0.2,0.8,0.2h6.5v0.1c0.1,0.5,0.3,1.1,0.7,1.4
			c0.5,0.5,1.1,0.8,1.8,0.8h17.8h3.6c0.7,0,1.3-0.3,1.8-0.8c0.4-0.4,0.6-0.9,0.7-1.4V343h6.5c0.3,0,0.6-0.1,0.8-0.2
			c0.5-0.3,0.8-0.8,0.8-1.4s-0.3-1.1-0.8-1.4c-0.2-0.1-0.5-0.2-0.8-0.2h-4v-0.1c-0.1-3.6-1.4-7.1-3.7-9.8c-2.3-2.7-5.4-4.5-8.8-5.2
			h-0.1l0.1-0.1c0.3-0.5,0.4-1.1,0.4-1.6c0-0.9-0.4-1.8-1-2.5c-0.7-0.7-1.6-1-2.5-1l0,0c-0.9,0-1.8,0.4-2.5,1c-0.7,0.6-1,1.6-1,2.5
			c0,0.6,0.1,1.1,0.4,1.7l0.1,0.1h-0.1c-3.4,0.7-6.6,2.6-8.8,5.2c-2.3,2.7-3.7,6.2-3.7,9.8v0.1h-3.5V339.8z M-63.3,344.8h-17.8
			c-0.5,0-1-0.2-1.4-0.6c-0.3-0.3-0.4-0.6-0.5-1v-0.1h25.1v0.1c-0.1,0.4-0.3,0.7-0.5,1c-0.4,0.4-0.9,0.6-1.4,0.6H-63.3z
			 M-82.7,343.3c0.1,0.3,0.2,0.5,0.4,0.8c0.3,0.3,0.8,0.5,1.2,0.6h17.8h3.5c0.5,0,0.9-0.2,1.2-0.6c0.2-0.2,0.4-0.5,0.4-0.8H-82.7z
			 M-51.3,342.4h-38.8c-0.2,0-0.4-0.1-0.5-0.1c-0.3-0.2-0.5-0.5-0.5-0.9s0.2-0.7,0.5-0.9c0.1-0.1,0.3-0.1,0.5-0.1h3.4h36
			c0.2,0,0.4,0.1,0.5,0.1c0.3,0.2,0.5,0.5,0.5,0.9s-0.2,0.7-0.5,0.9c-0.1,0.1-0.3,0.1-0.5,0.1H-51.3z M-89.4,340.6h-0.7
			c-0.1,0-0.3,0-0.4,0.1c-0.2,0.1-0.4,0.4-0.4,0.7c0,0.3,0.2,0.6,0.4,0.7c0.1,0.1,0.3,0.1,0.4,0.1h3.4h36c0.2,0,0.3,0,0.4-0.1
			c0.2-0.1,0.4-0.4,0.4-0.7c0-0.3-0.2-0.6-0.4-0.7c-0.1-0.1-0.3-0.1-0.4-0.1h-3.4H-89.4z M-55.2,339.8h-30.3v-0.1
			c0.1-3.4,1.4-6.8,3.6-9.4c2.2-2.6,5.5-4.5,8.9-5.1l0,0l0.1,0.1c0,0,0,0.1,0.1,0.1c0.7,0.7,1.6,1,2.5,1l0,0c0.9,0,1.8-0.4,2.5-1
			c0,0,0-0.1,0.1-0.1l0.1-0.1l0,0c3.4,0.6,6.6,2.5,8.8,5.1C-56.6,333-55.3,336.3-55.2,339.8L-55.2,339.8z M-85.3,339.6h29.9
			c-0.1-3.4-1.4-6.6-3.5-9.2c-2.2-2.6-5.4-4.4-8.7-5l0,0l-0.1,0.1c-0.7,0.7-1.6,1.1-2.6,1.1l0,0c-1,0-1.9-0.4-2.6-1.1l-0.1-0.1l0,0
			c-3.3,0.6-6.5,2.4-8.7,5C-83.9,333-85.2,336.3-85.3,339.6z M-70.4,325.8L-70.4,325.8L-70.4,325.8L-70.4,325.8
			c-0.8,0-1.5-0.3-2.1-0.8c-0.5-0.5-0.8-1.3-0.8-2c0-0.8,0.3-1.5,0.8-2s1.3-0.8,2-0.8c0.8,0,1.5,0.3,2.1,0.8c0.5,0.5,0.8,1.3,0.8,2
			c0,0.8-0.3,1.5-0.8,2S-69.6,325.8-70.4,325.8z M-70.4,325.6L-70.4,325.6L-70.4,325.6c0.7,0,1.4-0.3,1.9-0.8s0.8-1.2,0.8-1.9
			c0-0.7-0.3-1.4-0.8-1.9s-1.2-0.8-1.9-0.8c-0.7,0-1.4,0.3-1.9,0.8s-0.8,1.2-0.8,1.9c0,0.7,0.3,1.4,0.8,1.9S-71.1,325.6-70.4,325.6
			L-70.4,325.6z"/>
	</g>
</g>
<g>
	<g>
		<path class="st5" d="M-20.4,318.7c-7.6,0-13.7,6.2-13.7,13.7s6.2,13.7,13.7,13.7c7.6,0,13.7-6.2,13.7-13.7S-12.8,318.7-20.4,318.7
			z M-20.4,345.1c-7,0-12.7-5.7-12.7-12.7s5.7-12.7,12.7-12.7s12.7,5.7,12.7,12.7S-13.3,345.1-20.4,345.1z"/>
	</g>
	<g>
		<path class="st5" d="M-19.9,329.9v-8.2c0-0.3-0.2-0.5-0.5-0.5s-0.5,0.2-0.5,0.5v8.2c-1,0.2-1.8,1-2,2h-4.6c-0.3,0-0.5,0.2-0.5,0.5
			c0,0.3,0.2,0.5,0.5,0.5h4.6c0.2,1.2,1.3,2,2.5,2c1.4,0,2.5-1.1,2.5-2.5C-17.8,331.2-18.7,330.1-19.9,329.9z M-20.4,333.9
			c-0.8,0-1.5-0.7-1.5-1.5c0-0.8,0.7-1.5,1.5-1.5s1.5,0.7,1.5,1.5C-18.9,333.2-19.5,333.9-20.4,333.9z"/>
	</g>
</g>
<g>
	<g>
		<path class="st6" d="M92.1,344.1H67.2v-23.4h24.9V344.1z M68,343.3h23.3v-21.8H68V343.3z"/>
	</g>
	<g>
		<path class="st6" d="M79.4,337.2c-2.6,0-4.7-2.1-4.7-4.7s2.1-4.7,4.7-4.7c2.6,0,4.7,2.1,4.7,4.7C84.1,335.1,82,337.2,79.4,337.2z
			 M79.4,328.5c-2.2,0-3.9,1.8-3.9,3.9c0,2.2,1.8,3.9,3.9,3.9c2.2,0,3.9-1.8,3.9-3.9C83.3,330.3,81.5,328.5,79.4,328.5z M79.4,328.5
			c-2.2,0-3.9,1.8-3.9,3.9c0,2.2,1.8,3.9,3.9,3.9c2.2,0,3.9-1.8,3.9-3.9C83.3,330.3,81.5,328.5,79.4,328.5z"/>
	</g>
</g>
<g>
	<path class="st5" d="M35.2,324.6c-0.1,0-0.2,0-0.3-0.1l-2.3-2.7l-2.9,2.1c-0.2,0.1-0.4,0.1-0.5-0.1c-0.1-0.1-0.1-0.4,0.1-0.5
		l3.2-2.3c0.2-0.1,0.4-0.1,0.5,0.1l2.5,2.9c0.1,0.1,0.1,0.4-0.1,0.5C35.4,324.6,35.3,324.6,35.2,324.6L35.2,324.6z"/>
	<path class="st5" d="M20.7,332.8c-0.2,0-0.4-0.2-0.4-0.3c0-0.2,0.2-0.3,0.4-0.3c6.4,0,11.7-4.8,11.7-10.8c0-0.2,0.2-0.3,0.4-0.3
		c0.2,0,0.4,0.2,0.4,0.3C33.1,327.7,27.5,332.8,20.7,332.8L20.7,332.8z"/>
	<path class="st5" d="M20.7,343.8c-0.2,0-0.4-0.2-0.4-0.3v-5.3c0-0.2,0.2-0.3,0.4-0.3c0.2,0,0.4,0.2,0.4,0.3v5.3
		C21.1,343.6,20.9,343.8,20.7,343.8L20.7,343.8z"/>
	<path class="st5" d="M26.7,343.8c-0.2,0-0.4-0.2-0.4-0.3v-8.7c0-0.2,0.2-0.3,0.4-0.3c0.2,0,0.4,0.2,0.4,0.3v8.7
		C27,343.6,26.9,343.8,26.7,343.8L26.7,343.8z"/>
	<path class="st5" d="M32.6,343.8c-0.2,0-0.4-0.2-0.4-0.3v-11.1c0-0.2,0.2-0.3,0.4-0.3c0.2,0,0.4,0.2,0.4,0.3v11.1
		C33,343.6,32.8,343.8,32.6,343.8L32.6,343.8z"/>
	<path class="st5" d="M38.6,343.8c-0.2,0-0.4-0.2-0.4-0.3v-14.7c0-0.2,0.2-0.3,0.4-0.3s0.4,0.2,0.4,0.3v14.6
		C38.9,343.6,38.8,343.8,38.6,343.8L38.6,343.8z"/>
</g>
<g>
	<path class="st0" d="M121.8,344.6c-1.3,0-2.4-0.2-3.3-0.6c-0.9-0.4-1.7-1-2.3-1.7c-0.6-0.7-1.1-1.6-1.4-2.5c-0.3-1-0.5-2-0.5-3.1
		c0-2.2,0.3-4.1,1-5.9c0.7-1.8,1.5-3.3,2.6-4.7c1-1.4,2.2-2.5,3.5-3.5s2.5-1.8,3.8-2.3l0.9,1.2c-1.8,1.7-3.2,3.2-4.2,4.5
		s-1.6,2.4-1.6,3.2c0,0.5,0.2,0.9,0.7,1.3c0.4,0.3,1,0.6,1.6,0.9c0.6,0.2,1.3,0.5,2,0.8c0.7,0.3,1.3,0.7,1.9,1.2
		c0.6,0.5,1,1.1,1.4,1.9c0.4,0.7,0.6,1.7,0.6,2.8c0,0.7-0.1,1.4-0.4,2.2c-0.3,0.8-0.7,1.5-1.2,2.2c-0.6,0.7-1.2,1.2-2.1,1.7
		C123.8,344.4,122.8,344.6,121.8,344.6z M138.4,344.6c-1.3,0-2.4-0.2-3.3-0.6c-0.9-0.4-1.7-1-2.3-1.7c-0.6-0.7-1.1-1.6-1.4-2.5
		c-0.3-1-0.5-2-0.5-3.1c0-2.2,0.3-4.1,1-5.9c0.7-1.8,1.5-3.3,2.6-4.7c1-1.4,2.2-2.5,3.5-3.5s2.5-1.8,3.8-2.3l0.9,1.2
		c-1.8,1.7-3.2,3.2-4.2,4.5s-1.6,2.4-1.6,3.2c0,0.5,0.2,0.9,0.7,1.3c0.4,0.3,1,0.6,1.6,0.9c0.6,0.2,1.3,0.5,2,0.8
		c0.7,0.3,1.3,0.7,1.9,1.2c0.6,0.5,1,1.1,1.4,1.9c0.4,0.7,0.6,1.7,0.6,2.8c0,0.7-0.1,1.4-0.4,2.2c-0.3,0.8-0.7,1.5-1.2,2.2
		c-0.6,0.7-1.2,1.2-2.1,1.7C140.4,344.4,139.5,344.6,138.4,344.6z"/>
</g>
<g>
	<path class="st0" d="M187.5,320.2c1.3,0,2.4,0.2,3.3,0.6c0.9,0.4,1.7,1,2.3,1.7c0.6,0.7,1.1,1.6,1.4,2.5c0.3,1,0.5,2,0.5,3.1
		c0,2.2-0.3,4.1-1,5.9s-1.5,3.3-2.6,4.7c-1,1.4-2.2,2.5-3.5,3.5s-2.5,1.8-3.8,2.3l-0.9-1.2c1.8-1.7,3.2-3.2,4.2-4.5
		c1-1.3,1.6-2.4,1.6-3.2c0-0.5-0.2-0.9-0.7-1.3c-0.4-0.3-1-0.6-1.6-0.9c-0.6-0.2-1.3-0.5-2-0.8s-1.3-0.7-1.9-1.2s-1-1.1-1.4-1.9
		c-0.4-0.7-0.6-1.7-0.6-2.8c0-0.7,0.1-1.4,0.4-2.2s0.7-1.5,1.2-2.2c0.6-0.7,1.2-1.2,2.1-1.7C185.5,320.4,186.4,320.2,187.5,320.2z
		 M170.9,320.2c1.3,0,2.4,0.2,3.3,0.6c0.9,0.4,1.7,1,2.3,1.7c0.6,0.7,1.1,1.6,1.4,2.5c0.3,1,0.5,2,0.5,3.1c0,2.2-0.3,4.1-1,5.9
		s-1.5,3.3-2.6,4.7c-1,1.4-2.2,2.5-3.5,3.5s-2.5,1.8-3.8,2.3l-0.9-1.2c1.8-1.7,3.2-3.2,4.2-4.5c1-1.3,1.6-2.4,1.6-3.2
		c0-0.5-0.2-0.9-0.7-1.3c-0.4-0.3-1-0.6-1.6-0.9c-0.6-0.2-1.3-0.5-2-0.8s-1.3-0.7-1.9-1.2s-1-1.1-1.4-1.9c-0.4-0.7-0.6-1.7-0.6-2.8
		c0-0.7,0.1-1.4,0.4-2.2s0.7-1.5,1.2-2.2c0.6-0.7,1.2-1.2,2.1-1.7C168.9,320.4,169.8,320.2,170.9,320.2z"/>
</g>
<path class="st0" d="M35.3,366.4c0-0.6,0.2-1.3,0.5-1.9c0.4-0.7,0.8-1.1,1.1-1.3c0.2-0.1,0.4-0.2,0.7-0.2c0.3-0.1,0.6-0.1,0.7-0.1
	c0.1,0,0.2,0,0.2,0c0.1,0,0.3,0.3,0.6,0.8c0.1,0.1,0.2,0.3,0.3,0.6c0.1,0.2,0.3,0.5,0.4,0.7c0.1,0.2,0.2,0.4,0.3,0.6
	c0,0,0.1,0.1,0.2,0.3c0.1,0.1,0.2,0.3,0.2,0.4c0,0.1,0.1,0.2,0.1,0.3s-0.1,0.3-0.3,0.5s-0.4,0.4-0.6,0.6c-0.2,0.2-0.5,0.4-0.6,0.6
	c-0.2,0.2-0.3,0.4-0.3,0.5c0,0.1,0,0.1,0.1,0.2c0,0.1,0.1,0.2,0.1,0.2s0.1,0.1,0.1,0.3c0.1,0.1,0.1,0.2,0.1,0.2
	c0.5,1,1.1,1.8,1.8,2.5c0.7,0.7,1.5,1.3,2.5,1.8c0,0,0.1,0,0.2,0.1c0.1,0.1,0.2,0.1,0.3,0.1c0,0,0.1,0.1,0.2,0.1
	c0.1,0,0.2,0.1,0.2,0.1c0.1,0,0.3-0.1,0.5-0.3c0.2-0.2,0.4-0.4,0.6-0.6c0.2-0.2,0.4-0.5,0.6-0.6c0.2-0.2,0.4-0.3,0.5-0.3
	s0.2,0,0.3,0.1c0.1,0,0.2,0.1,0.4,0.2c0.1,0.1,0.2,0.2,0.3,0.2c0.2,0.1,0.4,0.2,0.6,0.3c0.2,0.1,0.4,0.2,0.7,0.4
	c0.2,0.1,0.4,0.2,0.6,0.3c0.5,0.2,0.8,0.4,0.8,0.6c0,0,0,0.1,0,0.2c0,0.2,0,0.4-0.1,0.7c-0.1,0.3-0.1,0.5-0.2,0.7
	c-0.1,0.3-0.6,0.7-1.3,1.1c-0.7,0.4-1.3,0.5-1.9,0.5c-0.2,0-0.4,0-0.6,0c-0.2,0-0.4-0.1-0.6-0.1c-0.2-0.1-0.4-0.1-0.5-0.2
	c-0.1,0-0.3-0.1-0.6-0.2s-0.5-0.2-0.5-0.2c-0.7-0.2-1.3-0.5-1.8-0.9c-0.9-0.6-1.8-1.3-2.8-2.3s-1.7-1.9-2.3-2.8
	c-0.3-0.5-0.6-1.1-0.9-1.8c0-0.1-0.1-0.2-0.2-0.5c-0.1-0.3-0.2-0.5-0.2-0.6c0-0.1-0.1-0.3-0.2-0.5c-0.1-0.2-0.1-0.4-0.1-0.6
	C35.3,366.7,35.3,366.6,35.3,366.4z"/>
<path class="st0" d="M10.2,365.8c0-0.4,0.1-0.8,0.3-1.1c0.2-0.3,0.6-0.4,1-0.4h12.3c0.4,0,0.7,0.1,0.9,0.4c0.3,0.3,0.4,0.6,0.4,0.9
	c0,0.4-0.1,0.9-0.4,1.3c-0.3,0.4-0.6,0.7-1,1c-2.1,1.5-3.4,2.4-3.9,2.7c-0.1,0-0.2,0.1-0.4,0.3c-0.2,0.1-0.3,0.2-0.5,0.3
	c-0.1,0.1-0.3,0.2-0.4,0.3c-0.2,0.1-0.3,0.2-0.5,0.2c-0.2,0.1-0.3,0.1-0.4,0.1l0,0l0,0c-0.1,0-0.3,0-0.4-0.1
	c-0.2-0.1-0.3-0.1-0.5-0.2c-0.2-0.1-0.3-0.2-0.4-0.3s-0.3-0.2-0.5-0.3c-0.2-0.1-0.3-0.2-0.4-0.3c-0.5-0.4-1.2-0.9-2.2-1.5
	c-1-0.7-1.5-1.1-1.7-1.2c-0.3-0.2-0.7-0.6-1-1C10.4,366.6,10.2,366.2,10.2,365.8z M10.2,374.7v-6.6c0.2,0.3,0.5,0.5,0.8,0.7
	c2,1.4,3.4,2.3,4.2,2.9c0.3,0.2,0.6,0.4,0.8,0.5c0.2,0.1,0.5,0.3,0.8,0.4s0.6,0.2,0.9,0.2l0,0l0,0c0.3,0,0.6-0.1,0.9-0.2
	s0.6-0.3,0.8-0.4c0.2-0.1,0.5-0.3,0.8-0.5c0.9-0.7,2.3-1.6,4.2-2.9c0.3-0.2,0.6-0.5,0.8-0.7v6.6c0,0.4-0.1,0.7-0.4,0.9
	c-0.3,0.3-0.6,0.4-0.9,0.4H11.6c-0.4,0-0.7-0.1-0.9-0.4C10.3,375.4,10.2,375.1,10.2,374.7z"/>
<g>
	<g>
		<g>
			<g>
				<g>
					<path class="st2" d="M64.9,364.1c0.3,0,0.5,0.1,0.7,0.3l5.7,5.1l-5.8,5.2c-0.5,0.4-1.2,0.4-1.6-0.1c-0.4-0.5-0.4-1.2,0.1-1.6
						l4-3.5l-3.8-3.4c-0.5-0.4-0.5-1.1-0.1-1.6C64.3,364.2,64.6,364.1,64.9,364.1z"/>
				</g>
			</g>
		</g>
	</g>
</g>
<g>
	<g>
		<g>
			<g>
				<g>
					<path class="st4" d="M89.7,364.1c0.3,0,0.5,0.1,0.7,0.3l5.7,5.1l-5.8,5.2c-0.5,0.4-1.2,0.4-1.6-0.1c-0.4-0.5-0.4-1.2,0.1-1.6
						l4-3.5l-3.8-3.4c-0.5-0.4-0.5-1.1-0.1-1.6C89,364.2,89.4,364.1,89.7,364.1z"/>
				</g>
			</g>
		</g>
	</g>
</g>
<g>
	<g>
		<g>
			<g>
				<g>
					<path class="st5" d="M114.9,364.1c0.3,0,0.5,0.1,0.7,0.3l5.7,5.1l-5.8,5.2c-0.5,0.4-1.2,0.4-1.6-0.1c-0.4-0.5-0.4-1.2,0.1-1.6
						l4-3.5l-3.8-3.4c-0.5-0.4-0.5-1.1-0.1-1.6C114.3,364.2,114.6,364.1,114.9,364.1z"/>
				</g>
			</g>
		</g>
	</g>
</g>
<g>
	<g>
		<g>
			<g>
				<path class="st0" d="M139.9,364.1c0.3,0,0.5,0.1,0.7,0.3l5.7,5.1l-5.8,5.2c-0.5,0.4-1.2,0.4-1.6-0.1c-0.4-0.5-0.4-1.2,0.1-1.6
					l4-3.5l-3.8-3.4c-0.5-0.4-0.5-1.1-0.1-1.6C139.3,364.2,139.6,364.1,139.9,364.1z"/>
			</g>
		</g>
	</g>
</g>
<path class="st4" d="M219.4,361.8c0.9,0,1.6,0,2.1,0.1v2.4H220c-0.5,0-0.9,0.1-1.1,0.3c-0.2,0.2-0.3,0.6-0.3,1v1.7h2.7l-0.4,2.7
	h-2.3v7h-2.8v-7h-2.4v-2.7h2.4v-2c0-1.1,0.3-2,1-2.7C217.5,362.2,218.3,361.8,219.4,361.8L219.4,361.8z"/>
<path class="st4" d="M273.1,365.5c0.6-0.1,1.1-0.2,1.7-0.5c-0.4,0.6-0.9,1.1-1.5,1.5c0,0.1,0,0.2,0,0.4c0,0.8-0.1,1.6-0.4,2.4
	c-0.2,0.8-0.6,1.6-1.1,2.3c-0.5,0.7-1,1.4-1.7,1.9c-0.7,0.6-1.5,1-2.4,1.3c-0.9,0.3-1.9,0.5-3,0.5c-1.7,0-3.2-0.4-4.6-1.3
	c0.2,0,0.5,0,0.7,0c1.4,0,2.6-0.4,3.7-1.3c-0.6,0-1.2-0.2-1.7-0.6s-0.9-0.9-1.1-1.5c0.2,0,0.4,0,0.6,0c0.3,0,0.5,0,0.8-0.1
	c-0.7-0.1-1.3-0.5-1.7-1c-0.5-0.5-0.7-1.2-0.7-1.9l0,0c0.4,0.2,0.9,0.4,1.3,0.4c-0.4-0.3-0.7-0.6-1-1.1c-0.2-0.4-0.4-0.9-0.4-1.4
	s0.1-1,0.4-1.5c0.7,0.9,1.7,1.7,2.7,2.2c1.1,0.6,2.2,0.9,3.4,0.9c0-0.2-0.1-0.5-0.1-0.7c0-0.8,0.3-1.5,0.9-2.1s1.3-0.9,2.1-0.9
	c0.9,0,1.6,0.3,2.2,0.9c0.7-0.1,1.3-0.4,1.9-0.7C274.2,364.5,273.7,365.1,273.1,365.5L273.1,365.5z"/>
<path class="st4" d="M238.8,363.4c0,0.4-0.1,0.8-0.5,1.1c-0.3,0.3-0.7,0.5-1.3,0.5l0,0c-0.5,0-0.9-0.2-1.2-0.5
	c-0.3-0.3-0.5-0.7-0.5-1.1c0-0.5,0.2-0.8,0.5-1.1c0.3-0.3,0.7-0.4,1.2-0.4s0.9,0.1,1.2,0.4C238.7,362.6,238.8,362.9,238.8,363.4z
	 M238.6,366.2v9.2h-3.1v-9.2H238.6z M249.6,370.1v5.3h-3v-4.9c0-0.6-0.1-1.2-0.4-1.5c-0.2-0.4-0.6-0.6-1.2-0.6c-0.4,0-0.7,0.1-1,0.3
	c-0.3,0.2-0.5,0.5-0.6,0.8c-0.1,0.2-0.1,0.4-0.1,0.7v5.1h-3c0-2.5,0-4.5,0-6s0-2.4,0-2.7v-0.4h3v1.3l0,0c0.1-0.2,0.2-0.4,0.4-0.5
	c0.1-0.1,0.3-0.3,0.5-0.5c0.2-0.2,0.5-0.3,0.8-0.4s0.7-0.1,1.1-0.1c1.1,0,1.9,0.3,2.5,1C249.3,367.8,249.6,368.8,249.6,370.1z"/>
<path class="st4" d="M291.8,369.2c0,0.2,0.1,0.4,0.3,0.6c0.2,0.2,0.4,0.4,0.6,0.5c0.2,0.2,0.5,0.4,0.7,0.6s0.4,0.5,0.6,0.8
	c0.2,0.3,0.3,0.7,0.3,1.1c0,0.5-0.1,0.9-0.4,1.4c-0.4,0.7-0.9,1.1-1.7,1.4c-0.7,0.3-1.5,0.5-2.4,0.5c-0.7,0-1.4-0.1-2-0.3
	c-0.6-0.2-1.1-0.6-1.4-1.1c-0.2-0.3-0.3-0.7-0.3-1c0-0.4,0.1-0.8,0.4-1.2c0.2-0.4,0.6-0.7,0.9-0.9c0.7-0.4,1.8-0.7,3.2-0.8
	c-0.2-0.2-0.3-0.4-0.4-0.6c-0.1-0.2-0.1-0.4-0.1-0.6c0-0.2,0.1-0.4,0.2-0.7c-0.2,0-0.4,0-0.5,0c-0.8,0-1.5-0.3-2-0.8s-0.8-1.2-0.8-2
	c0-0.4,0.1-0.9,0.3-1.3c0.2-0.4,0.5-0.8,0.8-1c0.4-0.4,0.9-0.6,1.5-0.8s1.1-0.3,1.7-0.3h3.3l-1.1,0.7h-1c0.4,0.3,0.7,0.7,0.9,1.1
	c0.2,0.4,0.3,0.8,0.3,1.3c0,0.4-0.1,0.7-0.2,1s-0.3,0.6-0.5,0.7c-0.2,0.2-0.4,0.4-0.6,0.5c-0.2,0.2-0.3,0.3-0.5,0.5
	C291.9,368.9,291.8,369.1,291.8,369.2z M290.6,375.5c0.3,0,0.6,0,0.9-0.1s0.5-0.2,0.8-0.3c0.2-0.1,0.4-0.3,0.6-0.6
	c0.1-0.3,0.2-0.5,0.2-0.9c0-0.1,0-0.3-0.1-0.4c0-0.1-0.1-0.2-0.1-0.3s-0.1-0.2-0.2-0.3c-0.1-0.1-0.2-0.2-0.2-0.3
	c-0.1-0.1-0.2-0.2-0.3-0.3c-0.2-0.1-0.2-0.2-0.3-0.2c0,0-0.2-0.1-0.3-0.2c-0.2-0.1-0.3-0.2-0.3-0.2c-0.1,0-0.2,0-0.4,0
	c-0.3,0-0.6,0-0.8,0.1c-0.3,0-0.6,0.1-0.9,0.2s-0.6,0.2-0.8,0.4c-0.2,0.1-0.4,0.3-0.5,0.6c-0.1,0.2-0.2,0.5-0.2,0.8
	c0,0.4,0.1,0.7,0.3,1c0.2,0.3,0.4,0.5,0.7,0.7c0.3,0.2,0.6,0.3,1,0.4C290,375.4,290.3,375.5,290.6,375.5z M290.6,368.5
	c0.2,0,0.4,0,0.6-0.1s0.4-0.2,0.5-0.3c0.3-0.3,0.4-0.7,0.4-1.3c0-0.3,0-0.6-0.1-1c-0.1-0.4-0.2-0.7-0.4-1c-0.2-0.3-0.4-0.6-0.7-0.8
	c-0.3-0.2-0.6-0.3-0.9-0.3c-0.2,0-0.4,0.1-0.7,0.2c-0.2,0.1-0.4,0.2-0.5,0.4c-0.3,0.3-0.4,0.7-0.4,1.3c0,0.2,0,0.5,0.1,0.8
	s0.1,0.5,0.3,0.8c0.1,0.3,0.3,0.5,0.4,0.7c0.2,0.2,0.4,0.4,0.6,0.5C290.1,368.4,290.4,368.5,290.6,368.5z M297.1,368.5h1.7v0.9h-1.7
	v1.8h-0.8v-1.8h-1.7v-0.9h1.7v-1.7h0.8V368.5z"/>
<g>
	<line class="st7" x1="-85.9" y1="395.5" x2="-94" y2="403.5"/>
	<line class="st7" x1="-80.9" y1="395.5" x2="-89" y2="403.5"/>
	<line class="st7" x1="-75.9" y1="395.5" x2="-84" y2="403.5"/>
	<line class="st7" x1="-70.9" y1="395.5" x2="-79" y2="403.5"/>
	<line class="st7" x1="-65.9" y1="395.5" x2="-74" y2="403.5"/>
	<line class="st7" x1="-60.9" y1="395.5" x2="-69" y2="403.5"/>
	<line class="st7" x1="-55.9" y1="395.5" x2="-64" y2="403.5"/>
	<line class="st7" x1="-50.9" y1="395.5" x2="-59" y2="403.5"/>
	<line class="st7" x1="-45.9" y1="395.5" x2="-54" y2="403.5"/>
	<line class="st7" x1="-40.9" y1="395.5" x2="-49" y2="403.5"/>
	<line class="st7" x1="-35.9" y1="395.5" x2="-44" y2="403.5"/>
	<line class="st7" x1="-30.9" y1="395.5" x2="-39" y2="403.5"/>
	<line class="st7" x1="-25.9" y1="395.5" x2="-34" y2="403.5"/>
	<line class="st7" x1="-20.9" y1="395.5" x2="-29" y2="403.5"/>
	<line class="st7" x1="-15.9" y1="395.5" x2="-24" y2="403.5"/>
	<line class="st7" x1="-10.9" y1="395.5" x2="-19" y2="403.5"/>
	<line class="st7" x1="-5.9" y1="395.5" x2="-14" y2="403.5"/>
	<line class="st7" x1="-0.9" y1="395.5" x2="-9" y2="403.5"/>
	<line class="st7" x1="4.1" y1="395.5" x2="-4" y2="403.5"/>
	<line class="st7" x1="9.1" y1="395.5" x2="1" y2="403.5"/>
	<line class="st7" x1="14.1" y1="395.5" x2="6" y2="403.5"/>
	<line class="st7" x1="19.1" y1="395.5" x2="11" y2="403.5"/>
	<line class="st7" x1="24.1" y1="395.5" x2="16" y2="403.5"/>
	<line class="st7" x1="29.1" y1="395.5" x2="21" y2="403.5"/>
	<line class="st7" x1="34.1" y1="395.5" x2="26" y2="403.5"/>
	<line class="st7" x1="39.1" y1="395.5" x2="31" y2="403.5"/>
	<line class="st7" x1="44.1" y1="395.5" x2="36" y2="403.5"/>
	<line class="st7" x1="49.1" y1="395.5" x2="41" y2="403.5"/>
	<line class="st7" x1="54.1" y1="395.5" x2="46" y2="403.5"/>
	<line class="st7" x1="59.1" y1="395.5" x2="51" y2="403.5"/>
	<line class="st7" x1="64.1" y1="395.5" x2="56" y2="403.5"/>
	<line class="st7" x1="69.1" y1="395.5" x2="61" y2="403.5"/>
	<line class="st7" x1="74.1" y1="395.5" x2="66" y2="403.5"/>
	<line class="st7" x1="79.1" y1="395.5" x2="71" y2="403.5"/>
	<line class="st7" x1="84.1" y1="395.5" x2="76" y2="403.5"/>
	<line class="st7" x1="89.1" y1="395.5" x2="81" y2="403.5"/>
	<line class="st7" x1="94.1" y1="395.5" x2="86" y2="403.5"/>
	<line class="st7" x1="99.1" y1="395.5" x2="91" y2="403.5"/>
	<line class="st7" x1="104.1" y1="395.5" x2="96" y2="403.5"/>
	<line class="st7" x1="109.1" y1="395.5" x2="101" y2="403.5"/>
	<line class="st7" x1="114.1" y1="395.5" x2="106" y2="403.5"/>
	<line class="st7" x1="119.1" y1="395.5" x2="111" y2="403.5"/>
	<line class="st7" x1="124.1" y1="395.5" x2="116" y2="403.5"/>
	<line class="st7" x1="129.1" y1="395.5" x2="121" y2="403.5"/>
	<line class="st7" x1="134.1" y1="395.5" x2="126" y2="403.5"/>
	<line class="st7" x1="139.1" y1="395.5" x2="131" y2="403.5"/>
	<line class="st7" x1="144.1" y1="395.5" x2="136" y2="403.5"/>
	<line class="st7" x1="149.1" y1="395.5" x2="141" y2="403.5"/>
	<line class="st7" x1="154.1" y1="395.5" x2="146" y2="403.5"/>
	<line class="st7" x1="159.1" y1="395.5" x2="151" y2="403.5"/>
	<line class="st7" x1="164.1" y1="395.5" x2="156" y2="403.5"/>
	<line class="st7" x1="169.1" y1="395.5" x2="161" y2="403.5"/>
	<line class="st7" x1="174.1" y1="395.5" x2="166" y2="403.5"/>
	<line class="st7" x1="179.1" y1="395.5" x2="171" y2="403.5"/>
	<line class="st7" x1="184.1" y1="395.5" x2="176" y2="403.5"/>
	<line class="st7" x1="189.1" y1="395.5" x2="181" y2="403.5"/>
	<line class="st7" x1="194.1" y1="395.5" x2="186" y2="403.5"/>
	<line class="st7" x1="199.1" y1="395.5" x2="191" y2="403.5"/>
	<line class="st7" x1="204.1" y1="395.5" x2="196" y2="403.5"/>
	<line class="st7" x1="209.1" y1="395.5" x2="201" y2="403.5"/>
	<line class="st7" x1="214.1" y1="395.5" x2="206" y2="403.5"/>
	<line class="st7" x1="219.1" y1="395.5" x2="211" y2="403.5"/>
	<line class="st7" x1="224.1" y1="395.5" x2="216" y2="403.5"/>
	<line class="st7" x1="229.1" y1="395.5" x2="221" y2="403.5"/>
	<line class="st7" x1="234.1" y1="395.5" x2="226" y2="403.5"/>
	<line class="st7" x1="239.1" y1="395.5" x2="231" y2="403.5"/>
	<line class="st7" x1="244.1" y1="395.5" x2="236" y2="403.5"/>
	<line class="st7" x1="249.1" y1="395.5" x2="241" y2="403.5"/>
	<line class="st7" x1="254.1" y1="395.5" x2="246" y2="403.5"/>
	<line class="st7" x1="259.1" y1="395.5" x2="251" y2="403.5"/>
	<line class="st7" x1="264.4" y1="395.5" x2="256.2" y2="403.5"/>
	<line class="st7" x1="269.4" y1="395.5" x2="261.2" y2="403.5"/>
	<line class="st7" x1="274.4" y1="395.5" x2="266.2" y2="403.5"/>
	<line class="st7" x1="279.4" y1="395.5" x2="271.2" y2="403.5"/>
	<line class="st7" x1="284.4" y1="395.5" x2="276.2" y2="403.5"/>
	<line class="st7" x1="289.4" y1="395.5" x2="281.2" y2="403.5"/>
	<line class="st7" x1="294.4" y1="395.5" x2="286.2" y2="403.5"/>
	<line class="st7" x1="299.4" y1="395.5" x2="291.2" y2="403.5"/>
	<line class="st7" x1="304.4" y1="395.5" x2="296.2" y2="403.5"/>
	<line class="st7" x1="309.4" y1="395.5" x2="301.2" y2="403.5"/>
	<line class="st7" x1="314.4" y1="395.5" x2="306.2" y2="403.5"/>
	<line class="st7" x1="319.4" y1="395.5" x2="311.2" y2="403.5"/>
	<line class="st7" x1="324.4" y1="395.5" x2="316.2" y2="403.5"/>
</g>
<g>
	<line class="st8" x1="-86" y1="465.5" x2="-94.2" y2="473.5"/>
	<line class="st8" x1="-81" y1="465.5" x2="-89.2" y2="473.5"/>
	<line class="st8" x1="-76" y1="465.5" x2="-84.2" y2="473.5"/>
	<line class="st8" x1="-71" y1="465.5" x2="-79.2" y2="473.5"/>
	<line class="st8" x1="-66" y1="465.5" x2="-74.2" y2="473.5"/>
	<line class="st8" x1="-61" y1="465.5" x2="-69.2" y2="473.5"/>
	<line class="st8" x1="-56" y1="465.5" x2="-64.2" y2="473.5"/>
	<line class="st8" x1="-51" y1="465.5" x2="-59.2" y2="473.5"/>
	<line class="st8" x1="-46" y1="465.5" x2="-54.2" y2="473.5"/>
	<line class="st8" x1="-41" y1="465.5" x2="-49.2" y2="473.5"/>
	<line class="st8" x1="-36" y1="465.5" x2="-44.2" y2="473.5"/>
	<line class="st8" x1="-31" y1="465.5" x2="-39.2" y2="473.5"/>
	<line class="st8" x1="-26" y1="465.5" x2="-34.2" y2="473.5"/>
	<line class="st8" x1="-21" y1="465.5" x2="-29.2" y2="473.5"/>
	<line class="st8" x1="-16" y1="465.5" x2="-24.2" y2="473.5"/>
	<line class="st8" x1="-11" y1="465.5" x2="-19.2" y2="473.5"/>
	<line class="st8" x1="-6" y1="465.5" x2="-14.2" y2="473.5"/>
	<line class="st8" x1="-1" y1="465.5" x2="-9.2" y2="473.5"/>
	<line class="st8" x1="4" y1="465.5" x2="-4.2" y2="473.5"/>
	<line class="st8" x1="9" y1="465.5" x2="0.8" y2="473.5"/>
	<line class="st8" x1="14" y1="465.5" x2="5.8" y2="473.5"/>
	<line class="st8" x1="19" y1="465.5" x2="10.8" y2="473.5"/>
	<line class="st8" x1="24" y1="465.5" x2="15.8" y2="473.5"/>
	<line class="st8" x1="29" y1="465.5" x2="20.8" y2="473.5"/>
	<line class="st8" x1="34" y1="465.5" x2="25.8" y2="473.5"/>
	<line class="st8" x1="39" y1="465.5" x2="30.8" y2="473.5"/>
	<line class="st8" x1="44" y1="465.5" x2="35.8" y2="473.5"/>
	<line class="st8" x1="49" y1="465.5" x2="40.8" y2="473.5"/>
	<line class="st8" x1="54" y1="465.5" x2="45.8" y2="473.5"/>
	<line class="st8" x1="59" y1="465.5" x2="50.8" y2="473.5"/>
	<line class="st8" x1="64" y1="465.5" x2="55.8" y2="473.5"/>
	<line class="st8" x1="69" y1="465.5" x2="60.8" y2="473.5"/>
	<line class="st8" x1="74" y1="465.5" x2="65.8" y2="473.5"/>
	<line class="st8" x1="79" y1="465.5" x2="70.8" y2="473.5"/>
	<line class="st8" x1="84" y1="465.5" x2="75.8" y2="473.5"/>
	<line class="st8" x1="89" y1="465.5" x2="80.8" y2="473.5"/>
	<line class="st8" x1="94" y1="465.5" x2="85.8" y2="473.5"/>
	<line class="st8" x1="99" y1="465.5" x2="90.8" y2="473.5"/>
	<line class="st8" x1="104" y1="465.5" x2="95.8" y2="473.5"/>
	<line class="st8" x1="109" y1="465.5" x2="100.8" y2="473.5"/>
	<line class="st8" x1="114" y1="465.5" x2="105.8" y2="473.5"/>
	<line class="st8" x1="119" y1="465.5" x2="110.8" y2="473.5"/>
	<line class="st8" x1="124" y1="465.5" x2="115.8" y2="473.5"/>
	<line class="st8" x1="129" y1="465.5" x2="120.8" y2="473.5"/>
	<line class="st8" x1="134" y1="465.5" x2="125.8" y2="473.5"/>
	<line class="st8" x1="139" y1="465.5" x2="130.8" y2="473.5"/>
	<line class="st8" x1="144" y1="465.5" x2="135.8" y2="473.5"/>
	<line class="st8" x1="149" y1="465.5" x2="140.8" y2="473.5"/>
	<line class="st8" x1="154" y1="465.5" x2="145.8" y2="473.5"/>
	<line class="st8" x1="159" y1="465.5" x2="150.8" y2="473.5"/>
	<line class="st8" x1="164" y1="465.5" x2="155.8" y2="473.5"/>
	<line class="st8" x1="169" y1="465.5" x2="160.8" y2="473.5"/>
	<line class="st8" x1="174" y1="465.5" x2="165.8" y2="473.5"/>
	<line class="st8" x1="179" y1="465.5" x2="170.8" y2="473.5"/>
	<line class="st8" x1="184" y1="465.5" x2="175.8" y2="473.5"/>
	<line class="st8" x1="189" y1="465.5" x2="180.8" y2="473.5"/>
	<line class="st8" x1="194" y1="465.5" x2="185.8" y2="473.5"/>
	<line class="st8" x1="199" y1="465.5" x2="190.8" y2="473.5"/>
	<line class="st8" x1="204" y1="465.5" x2="195.8" y2="473.5"/>
	<line class="st8" x1="209" y1="465.5" x2="200.8" y2="473.5"/>
	<line class="st8" x1="214" y1="465.5" x2="205.8" y2="473.5"/>
	<line class="st8" x1="219" y1="465.5" x2="210.8" y2="473.5"/>
	<line class="st8" x1="224" y1="465.5" x2="215.8" y2="473.5"/>
	<line class="st8" x1="229" y1="465.5" x2="220.8" y2="473.5"/>
	<line class="st8" x1="234" y1="465.5" x2="225.8" y2="473.5"/>
	<line class="st8" x1="239" y1="465.5" x2="230.8" y2="473.5"/>
	<line class="st8" x1="244" y1="465.5" x2="235.8" y2="473.5"/>
	<line class="st8" x1="249" y1="465.5" x2="240.8" y2="473.5"/>
	<line class="st8" x1="254" y1="465.5" x2="245.8" y2="473.5"/>
	<line class="st8" x1="259" y1="465.5" x2="250.8" y2="473.5"/>
	<line class="st8" x1="264.2" y1="465.5" x2="256" y2="473.5"/>
	<line class="st8" x1="269.2" y1="465.5" x2="261" y2="473.5"/>
	<line class="st8" x1="274.2" y1="465.5" x2="266" y2="473.5"/>
	<line class="st8" x1="279.2" y1="465.5" x2="271" y2="473.5"/>
	<line class="st8" x1="284.2" y1="465.5" x2="276" y2="473.5"/>
	<line class="st8" x1="289.2" y1="465.5" x2="281" y2="473.5"/>
	<line class="st8" x1="294.2" y1="465.5" x2="286" y2="473.5"/>
	<line class="st8" x1="299.2" y1="465.5" x2="291" y2="473.5"/>
	<line class="st8" x1="304.2" y1="465.5" x2="296" y2="473.5"/>
	<line class="st8" x1="309.2" y1="465.5" x2="301" y2="473.5"/>
	<line class="st8" x1="314.2" y1="465.5" x2="306" y2="473.5"/>
	<line class="st8" x1="319.2" y1="465.5" x2="311" y2="473.5"/>
	<line class="st8" x1="324.2" y1="465.5" x2="316" y2="473.5"/>
</g>
<g>
	<line class="st7" x1="-86" y1="438.5" x2="-94.2" y2="430.5"/>
	<line class="st7" x1="-81" y1="438.5" x2="-89.2" y2="430.5"/>
	<line class="st7" x1="-76" y1="438.5" x2="-84.2" y2="430.5"/>
	<line class="st7" x1="-71" y1="438.5" x2="-79.2" y2="430.5"/>
	<line class="st7" x1="-66" y1="438.5" x2="-74.2" y2="430.5"/>
	<line class="st7" x1="-61" y1="438.5" x2="-69.2" y2="430.5"/>
	<line class="st7" x1="-56" y1="438.5" x2="-64.2" y2="430.5"/>
	<line class="st7" x1="-51" y1="438.5" x2="-59.2" y2="430.5"/>
	<line class="st7" x1="-46" y1="438.5" x2="-54.2" y2="430.5"/>
	<line class="st7" x1="-41" y1="438.5" x2="-49.2" y2="430.5"/>
	<line class="st7" x1="-36" y1="438.5" x2="-44.2" y2="430.5"/>
	<line class="st7" x1="-31" y1="438.5" x2="-39.2" y2="430.5"/>
	<line class="st7" x1="-26" y1="438.5" x2="-34.2" y2="430.5"/>
	<line class="st7" x1="-21" y1="438.5" x2="-29.2" y2="430.5"/>
	<line class="st7" x1="-16" y1="438.5" x2="-24.2" y2="430.5"/>
	<line class="st7" x1="-11" y1="438.5" x2="-19.2" y2="430.5"/>
	<line class="st7" x1="-6" y1="438.5" x2="-14.2" y2="430.5"/>
	<line class="st7" x1="-1" y1="438.5" x2="-9.2" y2="430.5"/>
	<line class="st7" x1="4" y1="438.5" x2="-4.2" y2="430.5"/>
	<line class="st7" x1="9" y1="438.5" x2="0.8" y2="430.5"/>
	<line class="st7" x1="14" y1="438.5" x2="5.8" y2="430.5"/>
	<line class="st7" x1="19" y1="438.5" x2="10.8" y2="430.5"/>
	<line class="st7" x1="24" y1="438.5" x2="15.8" y2="430.5"/>
	<line class="st7" x1="29" y1="438.5" x2="20.8" y2="430.5"/>
	<line class="st7" x1="34" y1="438.5" x2="25.8" y2="430.5"/>
	<line class="st7" x1="39" y1="438.5" x2="30.8" y2="430.5"/>
	<line class="st7" x1="44" y1="438.5" x2="35.8" y2="430.5"/>
	<line class="st7" x1="49" y1="438.5" x2="40.8" y2="430.5"/>
	<line class="st7" x1="54" y1="438.5" x2="45.8" y2="430.5"/>
	<line class="st7" x1="59" y1="438.5" x2="50.8" y2="430.5"/>
	<line class="st7" x1="64" y1="438.5" x2="55.8" y2="430.5"/>
	<line class="st7" x1="69" y1="438.5" x2="60.8" y2="430.5"/>
	<line class="st7" x1="74" y1="438.5" x2="65.8" y2="430.5"/>
	<line class="st7" x1="79" y1="438.5" x2="70.8" y2="430.5"/>
	<line class="st7" x1="84" y1="438.5" x2="75.8" y2="430.5"/>
	<line class="st7" x1="89" y1="438.5" x2="80.8" y2="430.5"/>
	<line class="st7" x1="94" y1="438.5" x2="85.8" y2="430.5"/>
	<line class="st7" x1="99" y1="438.5" x2="90.8" y2="430.5"/>
	<line class="st7" x1="104" y1="438.5" x2="95.8" y2="430.5"/>
	<line class="st7" x1="109" y1="438.5" x2="100.8" y2="430.5"/>
	<line class="st7" x1="114" y1="438.5" x2="105.8" y2="430.5"/>
	<line class="st7" x1="119" y1="438.5" x2="110.8" y2="430.5"/>
	<line class="st7" x1="124" y1="438.5" x2="115.8" y2="430.5"/>
	<line class="st7" x1="129" y1="438.5" x2="120.8" y2="430.5"/>
	<line class="st7" x1="134" y1="438.5" x2="125.8" y2="430.5"/>
	<line class="st7" x1="139" y1="438.5" x2="130.8" y2="430.5"/>
	<line class="st7" x1="144" y1="438.5" x2="135.8" y2="430.5"/>
	<line class="st7" x1="149" y1="438.5" x2="140.8" y2="430.5"/>
	<line class="st7" x1="154" y1="438.5" x2="145.8" y2="430.5"/>
	<line class="st7" x1="159" y1="438.5" x2="150.8" y2="430.5"/>
	<line class="st7" x1="164" y1="438.5" x2="155.8" y2="430.5"/>
	<line class="st7" x1="169" y1="438.5" x2="160.8" y2="430.5"/>
	<line class="st7" x1="174" y1="438.5" x2="165.8" y2="430.5"/>
	<line class="st7" x1="179" y1="438.5" x2="170.8" y2="430.5"/>
	<line class="st7" x1="184" y1="438.5" x2="175.8" y2="430.5"/>
	<line class="st7" x1="189" y1="438.5" x2="180.8" y2="430.5"/>
	<line class="st7" x1="194" y1="438.5" x2="185.8" y2="430.5"/>
	<line class="st7" x1="199" y1="438.5" x2="190.8" y2="430.5"/>
	<line class="st7" x1="204" y1="438.5" x2="195.8" y2="430.5"/>
	<line class="st7" x1="209" y1="438.5" x2="200.8" y2="430.5"/>
	<line class="st7" x1="214" y1="438.5" x2="205.8" y2="430.5"/>
	<line class="st7" x1="219" y1="438.5" x2="210.8" y2="430.5"/>
	<line class="st7" x1="224" y1="438.5" x2="215.8" y2="430.5"/>
	<line class="st7" x1="229" y1="438.5" x2="220.8" y2="430.5"/>
	<line class="st7" x1="234" y1="438.5" x2="225.8" y2="430.5"/>
	<line class="st7" x1="239" y1="438.5" x2="230.8" y2="430.5"/>
	<line class="st7" x1="244" y1="438.5" x2="235.8" y2="430.5"/>
	<line class="st7" x1="249" y1="438.5" x2="240.8" y2="430.5"/>
	<line class="st7" x1="254" y1="438.5" x2="245.8" y2="430.5"/>
	<line class="st7" x1="259" y1="438.5" x2="250.8" y2="430.5"/>
	<line class="st7" x1="264.2" y1="438.5" x2="256" y2="430.5"/>
	<line class="st7" x1="269.2" y1="438.5" x2="261" y2="430.5"/>
	<line class="st7" x1="274.2" y1="438.5" x2="266" y2="430.5"/>
	<line class="st7" x1="279.2" y1="438.5" x2="271" y2="430.5"/>
	<line class="st7" x1="284.2" y1="438.5" x2="276" y2="430.5"/>
	<line class="st7" x1="289.2" y1="438.5" x2="281" y2="430.5"/>
	<line class="st7" x1="294.2" y1="438.5" x2="286" y2="430.5"/>
	<line class="st7" x1="299.2" y1="438.5" x2="291" y2="430.5"/>
	<line class="st7" x1="304.2" y1="438.5" x2="296" y2="430.5"/>
	<line class="st7" x1="309.2" y1="438.5" x2="301" y2="430.5"/>
	<line class="st7" x1="314.2" y1="438.5" x2="306" y2="430.5"/>
	<line class="st7" x1="319.2" y1="438.5" x2="311" y2="430.5"/>
	<line class="st7" x1="324.2" y1="438.5" x2="316" y2="430.5"/>
</g>
<g>
	<line class="st8" x1="-86" y1="508.5" x2="-94.2" y2="500.5"/>
	<line class="st8" x1="-81" y1="508.5" x2="-89.2" y2="500.5"/>
	<line class="st8" x1="-76" y1="508.5" x2="-84.2" y2="500.5"/>
	<line class="st8" x1="-71" y1="508.5" x2="-79.2" y2="500.5"/>
	<line class="st8" x1="-66" y1="508.5" x2="-74.2" y2="500.5"/>
	<line class="st8" x1="-61" y1="508.5" x2="-69.2" y2="500.5"/>
	<line class="st8" x1="-56" y1="508.5" x2="-64.2" y2="500.5"/>
	<line class="st8" x1="-51" y1="508.5" x2="-59.2" y2="500.5"/>
	<line class="st8" x1="-46" y1="508.5" x2="-54.2" y2="500.5"/>
	<line class="st8" x1="-41" y1="508.5" x2="-49.2" y2="500.5"/>
	<line class="st8" x1="-36" y1="508.5" x2="-44.2" y2="500.5"/>
	<line class="st8" x1="-31" y1="508.5" x2="-39.2" y2="500.5"/>
	<line class="st8" x1="-26" y1="508.5" x2="-34.2" y2="500.5"/>
	<line class="st8" x1="-21" y1="508.5" x2="-29.2" y2="500.5"/>
	<line class="st8" x1="-16" y1="508.5" x2="-24.2" y2="500.5"/>
	<line class="st8" x1="-11" y1="508.5" x2="-19.2" y2="500.5"/>
	<line class="st8" x1="-6" y1="508.5" x2="-14.2" y2="500.5"/>
	<line class="st8" x1="-1" y1="508.5" x2="-9.2" y2="500.5"/>
	<line class="st8" x1="4" y1="508.5" x2="-4.2" y2="500.5"/>
	<line class="st8" x1="9" y1="508.5" x2="0.8" y2="500.5"/>
	<line class="st8" x1="14" y1="508.5" x2="5.8" y2="500.5"/>
	<line class="st8" x1="19" y1="508.5" x2="10.8" y2="500.5"/>
	<line class="st8" x1="24" y1="508.5" x2="15.8" y2="500.5"/>
	<line class="st8" x1="29" y1="508.5" x2="20.8" y2="500.5"/>
	<line class="st8" x1="34" y1="508.5" x2="25.8" y2="500.5"/>
	<line class="st8" x1="39" y1="508.5" x2="30.8" y2="500.5"/>
	<line class="st8" x1="44" y1="508.5" x2="35.8" y2="500.5"/>
	<line class="st8" x1="49" y1="508.5" x2="40.8" y2="500.5"/>
	<line class="st8" x1="54" y1="508.5" x2="45.8" y2="500.5"/>
	<line class="st8" x1="59" y1="508.5" x2="50.8" y2="500.5"/>
	<line class="st8" x1="64" y1="508.5" x2="55.8" y2="500.5"/>
	<line class="st8" x1="69" y1="508.5" x2="60.8" y2="500.5"/>
	<line class="st8" x1="74" y1="508.5" x2="65.8" y2="500.5"/>
	<line class="st8" x1="79" y1="508.5" x2="70.8" y2="500.5"/>
	<line class="st8" x1="84" y1="508.5" x2="75.8" y2="500.5"/>
	<line class="st8" x1="89" y1="508.5" x2="80.8" y2="500.5"/>
	<line class="st8" x1="94" y1="508.5" x2="85.8" y2="500.5"/>
	<line class="st8" x1="99" y1="508.5" x2="90.8" y2="500.5"/>
	<line class="st8" x1="104" y1="508.5" x2="95.8" y2="500.5"/>
	<line class="st8" x1="109" y1="508.5" x2="100.8" y2="500.5"/>
	<line class="st8" x1="114" y1="508.5" x2="105.8" y2="500.5"/>
	<line class="st8" x1="119" y1="508.5" x2="110.8" y2="500.5"/>
	<line class="st8" x1="124" y1="508.5" x2="115.8" y2="500.5"/>
	<line class="st8" x1="129" y1="508.5" x2="120.8" y2="500.5"/>
	<line class="st8" x1="134" y1="508.5" x2="125.8" y2="500.5"/>
	<line class="st8" x1="139" y1="508.5" x2="130.8" y2="500.5"/>
	<line class="st8" x1="144" y1="508.5" x2="135.8" y2="500.5"/>
	<line class="st8" x1="149" y1="508.5" x2="140.8" y2="500.5"/>
	<line class="st8" x1="154" y1="508.5" x2="145.8" y2="500.5"/>
	<line class="st8" x1="159" y1="508.5" x2="150.8" y2="500.5"/>
	<line class="st8" x1="164" y1="508.5" x2="155.8" y2="500.5"/>
	<line class="st8" x1="169" y1="508.5" x2="160.8" y2="500.5"/>
	<line class="st8" x1="174" y1="508.5" x2="165.8" y2="500.5"/>
	<line class="st8" x1="179" y1="508.5" x2="170.8" y2="500.5"/>
	<line class="st8" x1="184" y1="508.5" x2="175.8" y2="500.5"/>
	<line class="st8" x1="189" y1="508.5" x2="180.8" y2="500.5"/>
	<line class="st8" x1="194" y1="508.5" x2="185.8" y2="500.5"/>
	<line class="st8" x1="199" y1="508.5" x2="190.8" y2="500.5"/>
	<line class="st8" x1="204" y1="508.5" x2="195.8" y2="500.5"/>
	<line class="st8" x1="209" y1="508.5" x2="200.8" y2="500.5"/>
	<line class="st8" x1="214" y1="508.5" x2="205.8" y2="500.5"/>
	<line class="st8" x1="219" y1="508.5" x2="210.8" y2="500.5"/>
	<line class="st8" x1="224" y1="508.5" x2="215.8" y2="500.5"/>
	<line class="st8" x1="229" y1="508.5" x2="220.8" y2="500.5"/>
	<line class="st8" x1="234" y1="508.5" x2="225.8" y2="500.5"/>
	<line class="st8" x1="239" y1="508.5" x2="230.8" y2="500.5"/>
	<line class="st8" x1="244" y1="508.5" x2="235.8" y2="500.5"/>
	<line class="st8" x1="249" y1="508.5" x2="240.8" y2="500.5"/>
	<line class="st8" x1="254" y1="508.5" x2="245.8" y2="500.5"/>
	<line class="st8" x1="259" y1="508.5" x2="250.8" y2="500.5"/>
	<line class="st8" x1="264.2" y1="508.5" x2="256" y2="500.5"/>
	<line class="st8" x1="269.2" y1="508.5" x2="261" y2="500.5"/>
	<line class="st8" x1="274.2" y1="508.5" x2="266" y2="500.5"/>
	<line class="st8" x1="279.2" y1="508.5" x2="271" y2="500.5"/>
	<line class="st8" x1="284.2" y1="508.5" x2="276" y2="500.5"/>
	<line class="st8" x1="289.2" y1="508.5" x2="281" y2="500.5"/>
	<line class="st8" x1="294.2" y1="508.5" x2="286" y2="500.5"/>
	<line class="st8" x1="299.2" y1="508.5" x2="291" y2="500.5"/>
	<line class="st8" x1="304.2" y1="508.5" x2="296" y2="500.5"/>
	<line class="st8" x1="309.2" y1="508.5" x2="301" y2="500.5"/>
	<line class="st8" x1="314.2" y1="508.5" x2="306" y2="500.5"/>
	<line class="st8" x1="319.2" y1="508.5" x2="311" y2="500.5"/>
	<line class="st8" x1="324.2" y1="508.5" x2="316" y2="500.5"/>
</g>
<g>
	<g>
		<g>
			<g>
				<path class="st5" d="M214.4,303.9L214.4,303.9h-23.8c-0.1,0-0.2,0-0.2-0.1c-0.1-0.1-0.1-0.2-0.1-0.2l0.8-20.4
					c0-0.2,0.2-0.3,0.3-0.3h22c0.2,0,0.3,0.1,0.3,0.3l1,20.3v0.1C214.7,303.8,214.6,303.9,214.4,303.9z M190.9,303.1H214l-0.9-19.7
					h-21.4L190.9,303.1z"/>
				<path class="st5" d="M214.4,304h-23.8c-0.1,0-0.3-0.1-0.4-0.2c-0.1-0.1-0.1-0.2-0.1-0.4l0.8-20.4c0-0.3,0.2-0.5,0.5-0.5h22
					c0.3,0,0.5,0.2,0.5,0.5l1,20.2v0.1C214.9,303.9,214.7,304,214.4,304L214.4,304z M191.4,283c-0.1,0-0.2,0.1-0.2,0.2l-0.8,20.4
					v0.1l0.1,0.1h23.8c0.1,0,0.2-0.1,0.2-0.2c0,0,0,0,0-0.1l0,0l-1-20.3c0-0.1-0.1-0.2-0.2-0.2C213.3,283,191.4,283,191.4,283z
					 M214.2,303.4h-23.5v-0.2l0.8-19.8h21.7v0.2L214.2,303.4z M191.1,303h22.8l-0.9-19.4h-21.1L191.1,303z"/>
			</g>
		</g>
		<g>
			<g>
				<path class="st5" d="M213.4,283.5c-0.1,0-0.2,0-0.2-0.1l-1.6-1.7h-18.2l-1.7,1.7c-0.1,0.1-0.3,0.1-0.5,0c-0.1-0.1-0.1-0.3,0-0.5
					l1.8-1.8c0.1-0.1,0.2-0.1,0.2-0.1h18.5c0.1,0,0.2,0,0.2,0.1l1.7,1.8c0.1,0.1,0.1,0.4,0,0.5C213.6,283.5,213.5,283.5,213.4,283.5
					z"/>
				<path class="st5" d="M191.4,283.6c-0.1,0-0.3-0.1-0.3-0.1c-0.1-0.1-0.1-0.2-0.1-0.4c0-0.1,0-0.3,0.1-0.4l1.8-1.8
					c0.1-0.1,0.2-0.1,0.4-0.1h18.5c0.1,0,0.3,0.1,0.4,0.2l1.7,1.8c0.1,0.1,0.1,0.2,0.1,0.4c0,0.1-0.1,0.3-0.2,0.3
					c-0.2,0.2-0.5,0.2-0.7,0l-1.6-1.7h-18.1l-1.7,1.7C191.7,283.6,191.5,283.6,191.4,283.6z M193.2,281.1c0,0-0.1,0-0.1,0.1
					l-1.8,1.8l-0.1,0.1c0,0,0,0.1,0.1,0.1c0.1,0.1,0.2,0.1,0.3,0l1.8-1.8h18.3l1.7,1.8c0.1,0.1,0.2,0.1,0.3,0l0.1-0.1V283l-1.7-1.8
					l-0.1-0.1H193.2z"/>
			</g>
		</g>
		<g>
			<g>
				<path class="st5" d="M198.6,281.4c-0.2,0-0.3-0.2-0.3-0.3v-2.2c0-0.1,0.4-3.7,4.3-3.7c0.2,0,0.3,0.1,0.3,0.3
					c0,0.2-0.1,0.3-0.3,0.3c-3.3,0.1-3.7,3-3.7,3.1v2.1C198.9,281.1,198.7,281.4,198.6,281.4z"/>
				<path class="st5" d="M198.6,281.5c-0.3,0-0.5-0.2-0.5-0.5v-2.1c0,0,0.4-3.8,4.5-3.9c0.3,0,0.5,0.2,0.5,0.5
					c0,0.3-0.2,0.5-0.5,0.5c-3.2,0.1-3.5,2.8-3.5,2.9v2.1C199.1,281.3,198.8,281.5,198.6,281.5z M202.6,275.4
					c-3.8,0.1-4.2,3.5-4.2,3.6v2c0,0.1,0.1,0.2,0.2,0.2c0.1,0,0.2-0.1,0.2-0.2v-2.1c0-0.1,0.4-3.2,3.8-3.2c0.1,0,0.2-0.1,0.2-0.2
					C202.7,275.4,202.7,275.4,202.6,275.4z"/>
			</g>
		</g>
		<g>
			<g>
				<path class="st5" d="M206.4,281.4c-0.2,0-0.3-0.2-0.3-0.3v-2.2c0-0.1-0.3-3-3.7-3.1c-0.2,0-0.3-0.2-0.3-0.3
					c0-0.2,0.1-0.3,0.3-0.3c3.9,0.1,4.3,3.7,4.3,3.7v2.1C206.7,281.1,206.6,281.4,206.4,281.4z"/>
				<path class="st5" d="M206.4,281.5c-0.3,0-0.5-0.2-0.5-0.5v-2.1c0-0.3-0.4-2.8-3.5-2.9c-0.3,0-0.5-0.2-0.5-0.5
					c0-0.3,0.2-0.5,0.5-0.5c4.1,0.1,4.5,3.8,4.5,3.8v2.2C206.9,281.3,206.7,281.5,206.4,281.5z M202.4,275.4c-0.1,0-0.2,0.1-0.2,0.2
					c0,0.1,0.1,0.2,0.2,0.2c3.3,0.1,3.8,2.9,3.8,3.2v2.1c0,0.1,0.1,0.2,0.2,0.2c0.1,0,0.2-0.1,0.2-0.2V279
					C206.6,278.8,206.2,275.4,202.4,275.4z"/>
			</g>
		</g>
		<g>
			<g>
				<path class="st5" d="M202.4,295.1c-0.2,0-0.3-0.1-0.3-0.3c0-0.2,0.1-0.3,0.3-0.3c3.3-0.1,3.7-3,3.7-3.1v-4.3
					c0-0.2,0.2-0.3,0.3-0.3c0.2,0,0.3,0.2,0.3,0.3v4.4C206.7,291.5,206.3,295,202.4,295.1L202.4,295.1z"/>
				<path class="st5" d="M202.4,295.3L202.4,295.3c-0.3,0-0.5-0.2-0.5-0.5s0.2-0.5,0.5-0.5c3.2-0.1,3.5-2.8,3.5-2.9V287
					c0-0.3,0.2-0.5,0.5-0.5c0.3,0,0.5,0.2,0.5,0.5v4.4C206.9,291.5,206.5,295.1,202.4,295.3L202.4,295.3z M206.4,286.9
					c-0.1,0-0.2,0.1-0.2,0.2v4.3c0,0.1-0.4,3.2-3.8,3.2c-0.1,0-0.2,0.1-0.2,0.2s0.1,0.2,0.2,0.2v0.2V295c3.8-0.1,4.2-3.5,4.2-3.6
					v-4.3C206.6,287,206.5,286.9,206.4,286.9z"/>
			</g>
		</g>
		<g>
			<g>
				<path class="st5" d="M202.6,295.1L202.6,295.1c-3.9-0.1-4.3-3.7-4.3-3.7V287c0-0.2,0.2-0.3,0.3-0.3s0.3,0.2,0.3,0.3v4.4
					c0,0.1,0.3,3,3.7,3.1c0.2,0,0.3,0.2,0.3,0.3C202.9,295,202.7,295.1,202.6,295.1z"/>
				<path class="st5" d="M202.6,295.3L202.6,295.3c-4.1-0.1-4.5-3.8-4.5-3.8V287c0-0.3,0.2-0.5,0.5-0.5c0.3,0,0.5,0.2,0.5,0.5v4.4
					c0,0.3,0.4,2.8,3.5,2.9c0.3,0,0.5,0.2,0.5,0.5C203.1,295,202.8,295.3,202.6,295.3z M198.6,286.9c-0.1,0-0.2,0.1-0.2,0.2v4.4
					c0,0.1,0.4,3.5,4.2,3.5v0.2V295c0.1,0,0.2-0.1,0.2-0.2s-0.1-0.2-0.2-0.2c-3.3-0.1-3.8-2.9-3.8-3.2V287
					C198.7,287,198.7,286.9,198.6,286.9z"/>
			</g>
		</g>
		<g>
			<g>
				<path class="st5" d="M198.5,287.5c-0.9,0-1.6-0.7-1.6-1.6c0-0.9,0.7-1.6,1.6-1.6s1.6,0.7,1.6,1.6
					C200.1,286.9,199.4,287.5,198.5,287.5z M198.5,285.1c-0.5,0-0.9,0.4-0.9,0.9s0.4,0.9,0.9,0.9s0.9-0.4,0.9-0.9
					S199,285.1,198.5,285.1z"/>
				<path class="st5" d="M198.5,287.8c-1,0-1.7-0.8-1.7-1.7c0-0.9,0.8-1.7,1.7-1.7s1.7,0.8,1.7,1.7
					C200.2,287,199.5,287.8,198.5,287.8z M198.5,284.6c-0.8,0-1.4,0.6-1.4,1.4c0,0.8,0.6,1.4,1.4,1.4s1.4-0.6,1.4-1.4
					C199.9,285.3,199.3,284.6,198.5,284.6z M198.5,287c-0.6,0-1.1-0.5-1.1-1.1c0-0.6,0.5-1.1,1.1-1.1s1.1,0.5,1.1,1.1
					C199.6,286.5,199.1,287,198.5,287z M198.5,285.3c-0.4,0-0.7,0.3-0.7,0.7c0,0.4,0.3,0.7,0.7,0.7s0.7-0.3,0.7-0.7
					C199.2,285.6,198.9,285.3,198.5,285.3z"/>
			</g>
		</g>
		<g>
			<g>
				<path class="st5" d="M206.4,287.5c-0.9,0-1.6-0.7-1.6-1.6c0-0.9,0.7-1.6,1.6-1.6c0.9,0,1.6,0.7,1.6,1.6
					C208,286.9,207.3,287.5,206.4,287.5z M206.4,285c-0.5,0-0.9,0.4-0.9,0.9s0.4,0.9,0.9,0.9s0.9-0.4,0.9-0.9S206.9,285,206.4,285z"
					/>
				<path class="st5" d="M206.4,287.8c-1,0-1.8-0.8-1.8-1.8s0.8-1.8,1.8-1.8s1.8,0.8,1.8,1.8S207.4,287.8,206.4,287.8z M206.4,284.5
					c-0.8,0-1.4,0.6-1.4,1.4c0,0.8,0.6,1.4,1.4,1.4s1.4-0.6,1.4-1.4C207.8,285.1,207.2,284.5,206.4,284.5z M206.4,287
					c-0.6,0-1.1-0.5-1.1-1.1c0-0.6,0.5-1.1,1.1-1.1s1.1,0.5,1.1,1.1C207.5,286.5,207,287,206.4,287z M206.4,285.3
					c-0.4,0-0.8,0.3-0.8,0.8c0,0.4,0.3,0.8,0.8,0.8s0.8-0.3,0.8-0.8S206.8,285.3,206.4,285.3z"/>
			</g>
		</g>
	</g>
</g>
</svg>
