<svg xmlns="http://www.w3.org/2000/svg" xmlns:xlink="http://www.w3.org/1999/xlink" x="0px" y="0px" viewBox="-153.5 379.5 36 36" style="enable-background:new -153.5 379.5 36 36;" xml:space="preserve">
<path fill="#A7A9AC" d="M-127.6,379.8h-15.8c-5.4,0-9.7,4.4-9.7,9.7v15.8c0,5.4,4.4,9.7,9.7,9.7h15.8c5.4,0,9.7-4.4,9.7-9.7v-15.8C-117.8,384.2-122.2,379.8-127.6,379.8z M-121,405.4c0,3.6-3,6.6-6.6,6.6h-15.8c-3.6,0-6.6-3-6.6-6.6v-15.8c0-3.6,3-6.6,6.6-6.6h15.8c3.6,0,6.6,3,6.6,6.6L-121,405.4L-121,405.4z"/>
<path fill="#A7A9AC" d="M-135.5,388.4c-5,0-9.1,4.1-9.1,9.1c0,5,4.1,9.1,9.1,9.1s9.1-4.1,9.1-9.1C-126.4,392.5-130.5,388.4-135.5,388.4z M-135.5,403.4c-3.3,0-6-2.7-6-6c0-3.3,2.7-6,6-6s6,2.7,6,6C-129.5,400.8-132.2,403.4-135.5,403.4z"/>
<path fill="#A7A9AC" d="M-126,385.7c-0.6,0-1.2,0.2-1.6,0.7c-0.4,0.4-0.7,1-0.7,1.6c0,0.6,0.2,1.2,0.7,1.6c0.4,0.4,1,0.7,1.6,0.7c0.6,0,1.2-0.2,1.6-0.7c0.4-0.4,0.7-1,0.7-1.6c0-0.6-0.2-1.2-0.7-1.6C-124.8,386-125.4,385.7-126,385.7z"/>
</svg>
