<?xml version="1.0" encoding="utf-8"?>
<!-- Generator: Adobe Illustrator 19.0.0, SVG Export Plug-In . SVG Version: 6.00 Build 0)  -->
<svg version="1.1" id="Layer_1" xmlns="http://www.w3.org/2000/svg" xmlns:xlink="http://www.w3.org/1999/xlink" x="0px" y="0px"
	 viewBox="0 0 36 36" style="enable-background:new 0 0 36 36;" xml:space="preserve">
<style type="text/css">
	.st0{fill:#DD4B38;}
</style>
<path class="st0" d="M0,0v36h36V0H0z M21,19.5c-0.6,4-3.6,6.4-7.5,6.4c-4.4,0-7.9-3.6-7.9-7.9c0-4.4,3.6-7.9,7.9-7.9
	c2.1,0,4,0.8,5.3,2.1l-2.3,2.3c-0.8-0.8-1.8-1.2-3.1-1.2c-2.6,0-4.7,2.2-4.7,4.8c0,2.6,2.1,4.7,4.7,4.7c2.2,0,3.8-1,4.3-3.1h-4.3
	v-3.2H21c0.1,0.5,0.1,1.1,0.1,1.6C21.1,18.5,21.1,19,21,19.5z M30.5,18.5h-2.8v2.8h-2v-2.8H23v-2h2.8v-2.8h2v2.8h2.8V18.5z"/>
</svg>
