<?xml version="1.0" encoding="utf-8"?>
<!-- Generator: Adobe Illustrator 19.0.0, SVG Export Plug-In . SVG Version: 6.00 Build 0)  -->
<svg version="1.1" id="Layer_1" xmlns="http://www.w3.org/2000/svg" xmlns:xlink="http://www.w3.org/1999/xlink" x="0px" y="0px"
	 viewBox="0 0 300 185" style="enable-background:new 0 0 300 185;" xml:space="preserve">
<style type="text/css">
	.st0{fill:#EDB92E;}
	.st1{fill:#EE5C30;}
	.st2{fill:#231F20;}
	.st3{fill:#BAD585;}
	.st4{fill:none;stroke:#333333;stroke-width:2;stroke-linecap:round;stroke-linejoin:round;stroke-miterlimit:10;}
</style>
<g id="XMLID_141_">
	<path id="XMLID_222_" class="st0" d="M97.2,122.2l22.4,48.7h-8.1l-7.3-15.9H83.8l-7.5,15.9h-4l22.9-48.7H97.2z M85.2,151.9h17.5
		l-8.6-18.8L85.2,151.9z"/>
	<path id="XMLID_225_" class="st0" d="M148.7,125.6c-2.9,0-5.5,0.5-7.9,1.5c-2.4,1-4.5,2.5-6.3,4.4c-1.8,1.9-3.1,4.2-4.1,6.9
		c-1,2.7-1.5,5.7-1.5,9.1s0.5,6.4,1.6,9.1c1.1,2.7,2.5,5,4.4,6.9c1.8,1.9,4,3.3,6.5,4.4c2.5,1,5.2,1.5,8.1,1.5c2.1,0,4-0.3,5.7-0.9
		c1.7-0.6,3.2-1.4,4.5-2.4v-16.7h-9v-2.8h17v21c-1.4,0.8-2.8,1.4-4.2,2c-1.4,0.6-2.9,1.1-4.6,1.5c-1.6,0.4-3.4,0.7-5.4,0.9
		c-2,0.2-4.2,0.3-6.7,0.3c-2.6,0-5.1-0.3-7.5-0.9c-2.4-0.6-4.6-1.4-6.6-2.5c-2-1.1-3.8-2.4-5.5-3.9c-1.6-1.5-3-3.2-4.2-5
		c-1.1-1.8-2-3.8-2.6-5.9s-0.9-4.2-0.9-6.5c0-2.2,0.3-4.4,0.9-6.5c0.6-2.1,1.4-4.1,2.5-6c1.1-1.9,2.4-3.6,4-5.1
		c1.6-1.6,3.4-2.9,5.3-4s4.1-2,6.5-2.6c2.3-0.6,4.8-0.9,7.5-0.9c2.5,0,4.9,0.3,7,1c2.1,0.7,4.1,1.6,5.8,2.7c1.8,1.1,3.3,2.4,4.7,3.9
		c1.4,1.5,2.5,3,3.5,4.6l-3.5,2.3c-2-3.9-4.2-6.7-6.7-8.5C154.7,126.5,151.9,125.6,148.7,125.6z"/>
	<path id="XMLID_227_" class="st0" d="M207.7,123.3v3.1h-25.1v17h16.8v3.1h-16.8v21.4h25.1v3.1h-33.1v-47.6H207.7z"/>
	<path id="XMLID_229_" class="st0" d="M225.4,169c1.2,0,2.4-0.2,3.5-0.5c1.2-0.3,2.2-0.8,3.1-1.4c0.9-0.6,1.6-1.4,2.2-2.3
		s0.8-2,0.8-3.2c0-1.5-0.4-2.8-1.1-3.9s-1.7-2.2-3-3.1s-2.6-1.9-4.2-2.7s-3.2-1.7-4.8-2.5c-1.6-0.8-3.2-1.7-4.8-2.6s-3-1.9-4.2-3.1
		s-2.2-2.4-3-3.8s-1.1-3-1.1-4.8c0-1.8,0.3-3.5,1-5.1s1.7-2.9,3-4.1c1.3-1.1,2.9-2,4.9-2.7s4.1-1,6.6-1c4.5,0,8.1,0.9,10.7,2.8
		c2.6,1.9,4.5,4.6,5.7,8.2l-4.1,1.9c-0.5-1.5-1.1-2.8-1.8-4c-0.7-1.2-1.6-2.2-2.7-3.1c-1-0.9-2.2-1.5-3.6-2
		c-1.3-0.5-2.9-0.7-4.5-0.7c-1.5,0-2.8,0.2-3.9,0.6s-2.1,1-2.8,1.6s-1.3,1.4-1.7,2.3s-0.6,1.7-0.6,2.6c0,1.3,0.4,2.4,1.2,3.4
		c0.8,1,1.8,2,3,3c1.3,0.9,2.7,1.8,4.3,2.7c1.6,0.9,3.3,1.7,4.9,2.6s3.3,1.8,4.9,2.8c1.6,1,3.1,2,4.3,3.1c1.3,1.1,2.3,2.4,3,3.7
		c0.8,1.4,1.2,2.9,1.2,4.5c0,1.9-0.4,3.7-1.1,5.3s-1.8,3.1-3.2,4.3s-3.2,2.2-5.3,2.9s-4.6,1.1-7.4,1.1c-2.3,0-4.3-0.3-6.1-0.8
		c-1.8-0.5-3.4-1.2-4.8-2.2s-2.6-2.1-3.5-3.5c-1-1.4-1.8-3-2.4-4.7l4.3-1.8c0.5,1.5,1.2,2.9,2,4.2c0.8,1.2,1.8,2.3,3,3.1
		s2.4,1.5,3.8,1.9S223.8,169,225.4,169z"/>
</g>
<g id="XMLID_140_">
	<path id="XMLID_198_" class="st1" d="M90,16.2V4.7h2.5v9.2h5.7v2.3H90z"/>
	<path id="XMLID_200_" class="st1" d="M101.2,16.2V4.7h2.5v11.5H101.2z"/>
	<path id="XMLID_202_" class="st1" d="M107.6,16.2V4.7h4.7c1.4,0,2.4,0.4,3.2,1.1s1.2,1.7,1.2,2.9v0c0,1.3-0.4,2.3-1.3,3
		c-0.9,0.7-2,1.1-3.3,1.1h-1.9v3.5H107.6z M110.2,10.5h2c0.6,0,1.1-0.2,1.5-0.5c0.4-0.3,0.5-0.7,0.5-1.3v0c0-0.6-0.2-1-0.5-1.3
		c-0.4-0.3-0.9-0.5-1.5-0.5h-2V10.5z"/>
	<path id="XMLID_205_" class="st1" d="M129.6,16.3c-1.9,0-3.5-0.6-4.9-1.8l1.5-1.8c1.1,0.9,2.3,1.4,3.4,1.4c0.5,0,0.9-0.1,1.2-0.3
		c0.3-0.2,0.4-0.5,0.4-0.8v0c0-0.3-0.2-0.6-0.5-0.8c-0.3-0.2-0.9-0.4-1.9-0.7c-0.7-0.2-1.2-0.3-1.6-0.5c-0.4-0.2-0.8-0.4-1.2-0.6
		c-0.4-0.3-0.6-0.6-0.8-1c-0.2-0.4-0.3-0.9-0.3-1.4v0c0-1,0.4-1.9,1.1-2.5c0.8-0.6,1.7-1,2.9-1c1.6,0,3.1,0.5,4.3,1.5l-1.3,1.9
		c-1.1-0.8-2.1-1.1-3-1.1c-0.5,0-0.8,0.1-1.1,0.3c-0.3,0.2-0.4,0.4-0.4,0.7v0c0,0.4,0.2,0.7,0.5,0.8c0.3,0.2,1,0.4,2,0.7
		c1.3,0.3,2.2,0.7,2.8,1.3c0.6,0.5,0.9,1.2,0.9,2.2v0c0,1.1-0.4,2-1.2,2.6C131.9,16,130.9,16.3,129.6,16.3z"/>
	<path id="XMLID_207_" class="st1" d="M137.1,16.2V4.7h2.7l3,4.9l3-4.9h2.7v11.5h-2.5V8.6l-3.2,4.9h-0.1l-3.2-4.9v7.5H137.1z"/>
	<path id="XMLID_209_" class="st1" d="M151.3,16.2l4.9-11.6h2.3l4.9,11.6h-2.6l-1.1-2.6H155l-1.1,2.6H151.3z M155.9,11.3h3.1
		l-1.5-3.7L155.9,11.3z"/>
	<path id="XMLID_212_" class="st1" d="M171.7,16.4c-1.7,0-3.1-0.6-4.2-1.7s-1.7-2.5-1.7-4.2v0c0-1.7,0.6-3.1,1.7-4.2
		s2.6-1.7,4.3-1.7c1,0,1.9,0.2,2.6,0.5c0.7,0.3,1.4,0.7,1.9,1.3l-1.6,1.9c-1-0.9-1.9-1.3-2.9-1.3c-1,0-1.7,0.3-2.4,1
		c-0.6,0.7-1,1.5-1,2.5v0c0,1,0.3,1.9,0.9,2.6c0.6,0.7,1.4,1.1,2.4,1.1c0.6,0,1.1-0.1,1.6-0.3c0.4-0.2,0.9-0.6,1.4-1l1.6,1.6
		c-0.6,0.7-1.3,1.2-2,1.5C173.6,16.2,172.7,16.4,171.7,16.4z"/>
	<path id="XMLID_214_" class="st1" d="M179.4,16.2V4.7h2.5v5l4.7-5h3.1L185,9.5l4.9,6.6h-3l-3.6-4.9l-1.3,1.4v3.5H179.4z"/>
	<path id="XMLID_216_" class="st1" d="M192.5,16.2V4.7h2.5v11.5H192.5z"/>
	<path id="XMLID_218_" class="st1" d="M198.9,16.2V4.7h2.3l5.4,7.1V4.7h2.5v11.5H207l-5.6-7.3v7.3H198.9z"/>
	<path id="XMLID_220_" class="st1" d="M218.5,16.4c-1.8,0-3.2-0.6-4.4-1.7c-1.1-1.1-1.7-2.5-1.7-4.2v0c0-1.7,0.6-3.1,1.7-4.2
		c1.2-1.2,2.6-1.7,4.3-1.7c1,0,1.8,0.1,2.5,0.4c0.7,0.3,1.4,0.7,2,1.2L221.4,8c-0.5-0.4-0.9-0.7-1.4-0.9c-0.5-0.2-1-0.3-1.6-0.3
		c-0.9,0-1.7,0.4-2.3,1.1c-0.6,0.7-1,1.5-1,2.5v0c0,1.1,0.3,1.9,1,2.6c0.7,0.7,1.5,1,2.5,1c0.9,0,1.7-0.2,2.4-0.7v-1.6h-2.5V9.5h5v5
		C221.9,15.8,220.3,16.4,218.5,16.4z"/>
</g>
<g id="XMLID_139_">
	<path id="XMLID_150_" class="st2" d="M13,35.2c0.5,0.4,0.8,0.8,0.8,1.1c0,0.3-0.1,0.5-0.4,0.7c-1,1-1.7,1.9-2.1,2.7
		c-0.4,0.8-0.6,1.5-0.6,2.1c0,0.8,0.3,1.4,0.9,1.9c0.6,0.5,1.2,0.9,1.9,1.2c0.5,0.2,0.8,0.6,0.8,1.2c0,0.5-0.2,1-0.5,1.5
		c-0.4,0.6-0.9,1.1-1.7,1.6c-1.3-0.4-2.4-1-3.4-2c-1-1-1.5-2.2-1.5-3.6c0-1.2,0.4-2.5,1.3-3.9C9.3,38.3,10.8,36.8,13,35.2z
		 M22.1,35.2c0.5,0.4,0.8,0.8,0.8,1.1c0,0.3-0.1,0.5-0.3,0.7c-1,1-1.8,1.9-2.2,2.7c-0.4,0.8-0.6,1.5-0.6,2.1c0,0.8,0.3,1.4,0.9,1.9
		c0.6,0.5,1.2,0.9,1.9,1.2c0.6,0.2,0.9,0.6,0.9,1.2c0,0.5-0.2,1-0.6,1.5c-0.4,0.6-1,1.1-1.7,1.6c-1.3-0.4-2.4-1-3.4-2
		c-1-1-1.5-2.2-1.5-3.6c0-1.2,0.4-2.5,1.3-3.9C18.4,38.3,19.9,36.8,22.1,35.2z"/>
	<path id="XMLID_167_" class="st2" d="M65.3,56.1c0,2.3-0.4,4.5-1.2,6.7c-0.8,2.2-2,4.2-3.5,6c-1.6,1.8-3.6,3.2-6,4.3
		c-2.4,1.1-5.3,1.6-8.5,1.6H34.4c-1,0-2.1,0-3.4,0.1c-1.3,0.1-2.5,0.1-3.7,0.2c-0.1-0.4-0.1-0.7-0.1-0.9c0-0.5,0.2-0.8,0.6-0.9
		c1.4-0.3,2.4-0.7,3-1c0.6-0.3,0.9-0.8,0.9-1.5V41.6c0-0.8-0.3-1.3-0.9-1.6c-0.6-0.3-1.6-0.6-3.1-0.9c-0.2,0-0.4-0.2-0.5-0.3
		c-0.1-0.2-0.1-0.4-0.1-0.6c0-0.2,0-0.5,0.1-0.9c0.8,0.1,1.5,0.1,2.1,0.1c0.6,0,1.2,0,1.7,0.1c0.5,0,1.1,0.1,1.6,0.1s1.1,0,1.6,0H46
		c3.2,0,6,0.5,8.4,1.5c2.4,1,4.4,2.3,6,4c1.6,1.7,2.8,3.6,3.6,5.9C64.9,51.1,65.3,53.5,65.3,56.1z M59.3,57.2
		c0-5.9-1.5-10.2-4.4-13.1c-2.9-2.8-7.2-4.3-12.8-4.3h-5v30.5c0,0.4,0.1,0.7,0.3,1c0.2,0.3,0.5,0.5,1,0.6c0.5,0.2,1.1,0.3,1.9,0.3
		c0.8,0.1,1.8,0.1,3,0.1c2.9,0,5.4-0.4,7.4-1.1c2-0.7,3.7-1.7,4.9-3c1.3-1.3,2.2-2.9,2.7-4.8C59,61.6,59.3,59.5,59.3,57.2z"/>
	<path id="XMLID_170_" class="st2" d="M89.5,69.4c0.3-0.3,0.6-0.4,0.9-0.4c0.4,0,0.7,0.3,1.1,1c-0.5,0.7-1.1,1.4-1.7,2
		c-0.6,0.6-1.4,1.2-2.3,1.7c-0.9,0.5-1.9,0.9-3.1,1.2c-1.1,0.3-2.5,0.5-3.9,0.5c-1.5,0-3-0.2-4.4-0.7c-1.4-0.5-2.6-1.3-3.6-2.3
		c-1-1-1.9-2.3-2.5-3.8c-0.6-1.5-0.9-3.3-0.9-5.4c0-1.9,0.4-3.7,1.1-5.4c0.7-1.6,1.7-3,2.9-4.2c1.2-1.2,2.5-2.1,3.9-2.7
		c1.4-0.6,2.8-1,4.1-1c3.5,0,6.1,1,7.8,3.1c1.6,2.1,2.4,4.8,2.4,8.1c0,0.2-0.1,0.3-0.3,0.3l-16.6,0.7c0,1.5,0.2,2.9,0.6,4.1
		c0.4,1.3,1,2.3,1.8,3.3c0.8,0.9,1.7,1.6,2.8,2.1c1.1,0.5,2.3,0.8,3.7,0.8c1.2,0,2.4-0.3,3.5-0.9C87.8,71,88.7,70.3,89.5,69.4z
		 M80.2,51.9c-1.9,0-3.4,0.7-4.5,2.2c-1.1,1.5-1.6,3.4-1.6,5.8L85,59.5c0.6,0,0.9-0.2,0.9-0.7c0-0.7-0.1-1.5-0.3-2.3
		c-0.2-0.8-0.6-1.5-1-2.2c-0.5-0.7-1-1.2-1.7-1.7C82,52.1,81.2,51.9,80.2,51.9z"/>
	<path id="XMLID_173_" class="st2" d="M109.7,56.9c-0.3,0-0.5-0.1-0.7-0.2c-0.1-0.1-0.2-0.3-0.3-0.4c-0.3-1.6-0.9-2.7-1.9-3.3
		c-1-0.7-2.2-1-3.6-1c-1.1,0-2.1,0.3-2.9,0.9s-1.3,1.5-1.3,2.6c0,1,0.4,1.8,1.2,2.5c0.8,0.7,2.2,1.3,4.3,2c1.1,0.3,2.1,0.7,3.1,1.1
		c0.9,0.4,1.7,0.9,2.4,1.5c0.7,0.6,1.2,1.3,1.6,2.2c0.4,0.9,0.6,1.9,0.6,3.1c0,1-0.2,1.9-0.5,2.9c-0.4,0.9-0.9,1.7-1.7,2.4
		s-1.7,1.2-2.8,1.7c-1.1,0.4-2.5,0.6-4,0.6c-1.2,0-2.6-0.1-4.1-0.4c-1.5-0.3-2.9-0.8-4.1-1.5c-0.1-1-0.1-2-0.2-3.1
		c-0.1-1.1-0.1-2.2-0.1-3.3h0.6c0.4,0,0.7,0.1,1,0.2c0.3,0.1,0.4,0.4,0.5,0.7c0.2,1.6,0.8,2.9,1.9,3.9c1.1,1,2.6,1.5,4.6,1.5
		c1.6,0,2.8-0.4,3.6-1.1c0.8-0.7,1.3-1.7,1.3-2.9c0-1.3-0.5-2.2-1.4-2.9c-0.9-0.7-2.3-1.3-4.1-1.8c-2.3-0.7-4-1.6-5.3-2.7
		c-1.3-1.1-1.9-2.7-1.9-4.9c0-1,0.2-1.9,0.6-2.8c0.4-0.9,0.9-1.6,1.6-2.3c0.7-0.6,1.5-1.2,2.5-1.5c1-0.4,2.1-0.6,3.3-0.6
		c1.5,0,3,0.2,4.3,0.6c1.4,0.4,2.4,0.8,3.2,1.3c0,0.3,0.1,0.7,0.1,1.1c0,0.4,0.1,0.9,0.1,1.4c0,0.5,0,1,0.1,1.4c0,0.5,0,0.9,0,1.3
		L109.7,56.9z"/>
	<path id="XMLID_175_" class="st2" d="M121.4,74.7c-0.6,0-1.3,0-2,0c-0.7,0-1.3,0-1.9,0.1c-0.6,0-1.1,0.1-1.5,0.1
		c-0.4,0-0.7,0.1-0.8,0.1c0,0,0-0.2-0.1-0.4c0-0.2-0.1-0.4-0.1-0.5c0-0.4,0.2-0.6,0.5-0.7c1-0.2,1.8-0.4,2.4-0.7
		c0.6-0.3,0.9-0.7,0.9-1.3V55.8c0-1.1-0.2-2-0.6-2.5c-0.4-0.5-1.3-0.8-2.6-0.9c-0.5-0.1-0.7-0.3-0.7-0.8c0-0.2,0-0.4,0.1-0.7
		c0.5,0,1.2,0,2.1-0.1c0.9-0.1,1.6-0.1,2.2-0.2c0.9-0.2,1.7-0.3,2.3-0.5s1.2-0.3,1.5-0.3c0.5,0,0.8,0.3,0.8,0.9
		c0,0.5-0.1,1.2-0.2,1.9c-0.1,0.7-0.2,1.7-0.2,2.9v15.8c0,0.6,0.3,1,0.9,1.3c0.6,0.3,1.4,0.5,2.5,0.7c0.3,0.1,0.5,0.3,0.5,0.7
		c0,0.1,0,0.3,0,0.5c0,0.2,0,0.4-0.1,0.4c-0.1,0-0.4,0-0.8-0.1c-0.4,0-0.9-0.1-1.5-0.1c-0.6,0-1.2-0.1-1.9-0.1
		C122.7,74.7,122,74.7,121.4,74.7z M118,40.3c0-0.9,0.3-1.7,0.9-2.4c0.6-0.7,1.4-1,2.4-1c0.9,0,1.7,0.3,2.3,1
		c0.6,0.7,0.9,1.5,0.9,2.4c0,1-0.3,1.8-0.9,2.4c-0.6,0.6-1.4,0.9-2.3,0.9c-1,0-1.7-0.3-2.4-0.9C118.4,42.1,118,41.3,118,40.3z"/>
	<path id="XMLID_178_" class="st2" d="M131.5,49.1c-0.3-0.2-0.5-0.4-0.6-0.6c-0.1-0.2-0.2-0.4-0.2-0.6c0-0.2,0.1-0.4,0.4-0.7
		c1.1-1,1.8-1.8,2.2-2.6c0.4-0.8,0.6-1.4,0.6-2.1c0-0.8-0.3-1.5-0.9-2c-0.6-0.5-1.2-0.9-1.9-1.2c-0.6-0.2-0.9-0.6-0.9-1.3
		c0-0.5,0.2-1,0.6-1.6c0.4-0.6,1-1,1.9-1.5c1.2,0.4,2.3,1.1,3.3,2.1c1,1,1.5,2.2,1.5,3.6c0,1.2-0.4,2.5-1.3,3.9
		C135.4,46.2,133.8,47.7,131.5,49.1z M140.9,49.1c-0.6-0.3-0.9-0.7-0.9-1.1c0-0.2,0.1-0.4,0.4-0.7c1.1-1,1.8-1.8,2.3-2.6
		c0.4-0.8,0.7-1.4,0.7-2.1c0-0.8-0.3-1.5-0.9-2c-0.6-0.5-1.2-0.9-1.9-1.2c-0.6-0.2-0.9-0.6-0.9-1.3c0-0.5,0.2-1,0.6-1.6
		c0.4-0.6,1-1,1.9-1.5c0.6,0.2,1.2,0.5,1.8,0.8c0.6,0.3,1.1,0.8,1.5,1.3c0.5,0.5,0.8,1,1.1,1.7c0.3,0.6,0.4,1.3,0.4,2
		c0,1.2-0.5,2.5-1.4,3.9C144.8,46.2,143.2,47.7,140.9,49.1z"/>
	<path id="XMLID_181_" class="st2" d="M163.3,75c-1-0.1-2-0.1-3-0.2c-1-0.1-2.1-0.1-3.1-0.1s-2.1,0-3.2,0.1
		c-1.1,0.1-2.1,0.1-3.1,0.2c-0.1-0.4-0.1-0.7-0.1-0.9c0-0.4,0.2-0.6,0.5-0.7c0.8-0.2,1.6-0.4,2.3-0.7c0.7-0.3,1.1-0.7,1.1-1.3V40.6
		c0-1.2-0.2-2.1-0.7-2.5c-0.5-0.4-1.4-0.7-2.7-0.8c-0.5-0.1-0.7-0.3-0.7-0.8c0-0.2,0-0.5,0.1-0.8c0.5,0,1.2,0,2.1-0.1
		c0.9-0.1,1.7-0.1,2.4-0.2c0.9-0.1,1.7-0.3,2.3-0.5c0.7-0.2,1.2-0.3,1.5-0.3c0.3,0,0.6,0.1,0.7,0.2c0.1,0.2,0.2,0.4,0.2,0.6
		c0,0.6-0.1,1.4-0.2,2.3c-0.1,0.9-0.2,1.9-0.2,3v30.6c0,0.6,0.4,1.1,1.1,1.3c0.7,0.3,1.5,0.5,2.4,0.7c0.3,0.1,0.5,0.3,0.5,0.7
		C163.4,74.3,163.3,74.6,163.3,75z"/>
	<path id="XMLID_183_" class="st2" d="M171.8,74.7c-0.6,0-1.3,0-2,0c-0.7,0-1.3,0-1.9,0.1c-0.6,0-1.1,0.1-1.5,0.1
		c-0.4,0-0.7,0.1-0.8,0.1c0,0,0-0.2-0.1-0.4c0-0.2-0.1-0.4-0.1-0.5c0-0.4,0.2-0.6,0.5-0.7c1-0.2,1.8-0.4,2.4-0.7
		c0.6-0.3,0.9-0.7,0.9-1.3V55.8c0-1.1-0.2-2-0.6-2.5c-0.4-0.5-1.3-0.8-2.6-0.9c-0.5-0.1-0.7-0.3-0.7-0.8c0-0.2,0-0.4,0.1-0.7
		c0.5,0,1.2,0,2.1-0.1c0.9-0.1,1.6-0.1,2.2-0.2c0.9-0.2,1.7-0.3,2.3-0.5s1.2-0.3,1.5-0.3c0.5,0,0.8,0.3,0.8,0.9
		c0,0.5-0.1,1.2-0.2,1.9c-0.1,0.7-0.2,1.7-0.2,2.9v15.8c0,0.6,0.3,1,0.9,1.3c0.6,0.3,1.4,0.5,2.5,0.7c0.3,0.1,0.5,0.3,0.5,0.7
		c0,0.1,0,0.3,0,0.5c0,0.2,0,0.4-0.1,0.4c-0.1,0-0.4,0-0.8-0.1c-0.4,0-0.9-0.1-1.5-0.1c-0.6,0-1.2-0.1-1.9-0.1
		C173.2,74.7,172.5,74.7,171.8,74.7z M168.5,40.3c0-0.9,0.3-1.7,0.9-2.4c0.6-0.7,1.4-1,2.4-1c0.9,0,1.7,0.3,2.3,1
		c0.6,0.7,0.9,1.5,0.9,2.4c0,1-0.3,1.8-0.9,2.4c-0.6,0.6-1.4,0.9-2.3,0.9c-1,0-1.7-0.3-2.4-0.9C168.8,42.1,168.5,41.3,168.5,40.3z"
		/>
	<path id="XMLID_186_" class="st2" d="M191.6,52c-1.8,0-3.3,0.8-4.4,2.3c-1.1,1.6-1.7,3.7-1.7,6.4c0,3.7,0.8,6.6,2.5,8.6
		c1.7,2.1,3.9,3.1,6.6,3.1c1.2,0,2.2-0.2,3.1-0.6c0.8-0.4,1.5-0.8,2.1-1.1c0.1-0.1,0.2-0.2,0.4-0.3c0.2-0.1,0.3-0.1,0.5-0.1
		c0.2,0,0.4,0.1,0.6,0.4c0.2,0.3,0.4,0.5,0.5,0.6c-0.4,0.5-0.9,0.9-1.4,1.4c-0.6,0.5-1.3,0.9-2.1,1.3c-0.8,0.4-1.7,0.7-2.8,1
		c-1.1,0.2-2.3,0.4-3.7,0.4c-1.6,0-3-0.3-4.4-0.8c-1.4-0.5-2.6-1.3-3.7-2.3c-1-1-1.9-2.3-2.5-3.9c-0.6-1.5-0.9-3.3-0.9-5.4
		c0-1.9,0.4-3.7,1.1-5.4c0.7-1.6,1.7-3,2.9-4.1s2.5-2,3.9-2.7c1.4-0.6,2.8-1,4.2-1c1.4,0,2.7,0.2,3.8,0.5c1.1,0.3,2.1,0.7,2.9,1.2
		c0.8,0.5,1.4,1.1,1.9,1.7c0.4,0.7,0.7,1.4,0.7,2.1c0,0.2-0.2,0.4-0.6,0.6c-0.4,0.2-0.8,0.3-1.3,0.4c-0.5,0.1-0.9,0.2-1.4,0.2
		c-0.4,0-0.7,0.1-0.8,0.1c-0.5,0-0.9-0.2-1.2-0.7c-0.3-0.5-0.6-1-0.9-1.5c-0.3-0.6-0.8-1.1-1.4-1.5C193.5,52.3,192.7,52,191.6,52z"
		/>
	<path id="XMLID_188_" class="st2" d="M210.1,74.7c-0.6,0-1.3,0-2,0c-0.7,0-1.3,0-1.9,0.1c-0.6,0-1.1,0.1-1.5,0.1
		c-0.4,0-0.7,0.1-0.8,0.1c0,0,0-0.2-0.1-0.4c0-0.2-0.1-0.4-0.1-0.5c0-0.4,0.2-0.6,0.5-0.7c1-0.2,1.8-0.4,2.4-0.7
		c0.6-0.3,0.9-0.7,0.9-1.3V55.8c0-1.1-0.2-2-0.6-2.5c-0.4-0.5-1.3-0.8-2.6-0.9c-0.5-0.1-0.7-0.3-0.7-0.8c0-0.2,0-0.4,0.1-0.7
		c0.5,0,1.2,0,2.1-0.1c0.9-0.1,1.6-0.1,2.2-0.2c0.9-0.2,1.7-0.3,2.3-0.5c0.7-0.2,1.2-0.3,1.5-0.3c0.5,0,0.8,0.3,0.8,0.9
		c0,0.5-0.1,1.2-0.2,1.9c-0.1,0.7-0.2,1.7-0.2,2.9v15.8c0,0.6,0.3,1,0.9,1.3c0.6,0.3,1.4,0.5,2.5,0.7c0.3,0.1,0.5,0.3,0.5,0.7
		c0,0.1,0,0.3,0,0.5c0,0.2,0,0.4-0.1,0.4c-0.1,0-0.4,0-0.8-0.1c-0.4,0-0.9-0.1-1.5-0.1c-0.6,0-1.2-0.1-1.9-0.1
		C211.4,74.7,210.7,74.7,210.1,74.7z M206.8,40.3c0-0.9,0.3-1.7,0.9-2.4c0.6-0.7,1.4-1,2.4-1c0.9,0,1.7,0.3,2.3,1
		c0.6,0.7,0.9,1.5,0.9,2.4c0,1-0.3,1.8-0.9,2.4c-0.6,0.6-1.4,0.9-2.3,0.9c-1,0-1.7-0.3-2.4-0.9S206.8,41.3,206.8,40.3z"/>
	<path id="XMLID_191_" class="st2" d="M218.5,62.6c0-1.8,0.3-3.4,1-5c0.7-1.6,1.6-2.9,2.7-4.1s2.5-2.1,4-2.7c1.5-0.7,3.2-1,5-1
		c1.9,0,3.6,0.3,5.2,0.9s2.9,1.5,4,2.6c1.1,1.1,2,2.5,2.6,4c0.6,1.6,0.9,3.3,0.9,5.2c0,1.8-0.3,3.5-1,5c-0.7,1.5-1.6,2.9-2.7,4
		s-2.5,2.1-4,2.7c-1.5,0.7-3.2,1-5,1c-1.9,0-3.6-0.3-5.2-0.9c-1.6-0.6-2.9-1.5-4-2.6c-1.1-1.1-2-2.4-2.6-4
		C218.8,66.3,218.5,64.5,218.5,62.6z M223.9,60.7c0,1.4,0.2,2.9,0.5,4.4c0.3,1.5,0.8,2.8,1.4,4c0.6,1.2,1.4,2.2,2.4,3
		c1,0.8,2.2,1.2,3.6,1.2c2.2,0,3.9-0.8,5.1-2.3s1.8-3.5,1.8-5.9c0-1.4-0.1-2.9-0.4-4.4c-0.3-1.5-0.7-3-1.4-4.2
		c-0.6-1.3-1.5-2.3-2.5-3.2c-1-0.8-2.3-1.3-3.7-1.3c-2,0-3.7,0.7-4.9,2.1C224.5,55.5,223.9,57.7,223.9,60.7z"/>
	<path id="XMLID_194_" class="st2" d="M250,55.8c0-1.3-0.2-2.1-0.5-2.5c-0.4-0.4-1.2-0.7-2.5-0.8c-0.5-0.1-0.7-0.3-0.7-0.7
		c0-0.2,0-0.5,0.1-0.8c0.5,0,1.2,0,2-0.1c0.8-0.1,1.5-0.1,2.1-0.3c0.8-0.1,1.6-0.3,2.2-0.4c0.6-0.2,1.1-0.3,1.4-0.3
		c0.5,0,0.8,0.3,0.8,0.9V65c0,1,0.1,1.8,0.2,2.6c0.1,0.8,0.3,1.5,0.6,2.1c0.3,0.6,0.7,1.1,1.3,1.4c0.6,0.3,1.3,0.5,2.2,0.5
		c1,0,1.9-0.2,2.8-0.5c0.9-0.3,1.7-0.8,2.4-1.4c0.7-0.6,1.3-1.4,1.7-2.3c0.4-0.9,0.6-2,0.6-3.2v-8.4c0-1.2-0.2-2.1-0.5-2.5
		c-0.4-0.5-1.2-0.7-2.5-0.9c-0.5-0.1-0.7-0.3-0.7-0.7c0-0.2,0-0.5,0.1-0.8c0.5,0,1.2,0,2-0.1c0.8-0.1,1.5-0.1,2.1-0.3
		c0.8-0.1,1.6-0.3,2.2-0.4s1.1-0.3,1.4-0.3c0.5,0,0.8,0.3,0.8,0.9v18.6c0,0.6,0,1.2,0.1,1.6c0.1,0.4,0.2,0.7,0.5,1
		c0.2,0.2,0.5,0.4,0.9,0.6c0.4,0.1,0.9,0.2,1.6,0.3c0.5,0.1,0.7,0.3,0.7,0.7c0,0.2,0,0.5-0.1,0.8c-0.7,0-1.5,0.1-2.3,0.2
		c-0.8,0.1-1.6,0.2-2.3,0.3c-0.7,0.1-1.4,0.2-1.9,0.3c-0.6,0.1-0.9,0.2-1.2,0.2c-0.5,0-0.8-0.3-0.8-0.9v-4.8c-0.1,0.1-0.4,0.5-1,1.1
		c-0.5,0.6-1.2,1.3-2.1,1.9s-1.9,1.3-3,1.9c-1.1,0.6-2.3,0.8-3.6,0.8c-2.3,0-4.1-0.7-5.2-2s-1.7-3.2-1.7-5.7V55.8z"/>
	<path id="XMLID_196_" class="st2" d="M293.2,56.9c-0.3,0-0.5-0.1-0.7-0.2c-0.1-0.1-0.2-0.3-0.3-0.4c-0.3-1.6-0.9-2.7-1.9-3.3
		c-1-0.7-2.2-1-3.6-1c-1.1,0-2.1,0.3-2.9,0.9s-1.3,1.5-1.3,2.6c0,1,0.4,1.8,1.2,2.5c0.8,0.7,2.2,1.3,4.3,2c1.1,0.3,2.1,0.7,3.1,1.1
		c0.9,0.4,1.7,0.9,2.4,1.5c0.7,0.6,1.2,1.3,1.6,2.2c0.4,0.9,0.6,1.9,0.6,3.1c0,1-0.2,1.9-0.5,2.9c-0.4,0.9-0.9,1.7-1.7,2.4
		s-1.7,1.2-2.8,1.7c-1.1,0.4-2.5,0.6-4,0.6c-1.2,0-2.6-0.1-4.1-0.4c-1.5-0.3-2.9-0.8-4.1-1.5c-0.1-1-0.1-2-0.2-3.1
		c-0.1-1.1-0.1-2.2-0.1-3.3h0.6c0.4,0,0.7,0.1,1,0.2c0.3,0.1,0.4,0.4,0.5,0.7c0.2,1.6,0.8,2.9,1.9,3.9c1.1,1,2.6,1.5,4.6,1.5
		c1.6,0,2.8-0.4,3.6-1.1c0.8-0.7,1.3-1.7,1.3-2.9c0-1.3-0.5-2.2-1.4-2.9c-0.9-0.7-2.3-1.3-4.1-1.8c-2.3-0.7-4-1.6-5.3-2.7
		c-1.3-1.1-1.9-2.7-1.9-4.9c0-1,0.2-1.9,0.6-2.8c0.4-0.9,0.9-1.6,1.6-2.3c0.7-0.6,1.5-1.2,2.5-1.5c1-0.4,2.1-0.6,3.3-0.6
		c1.5,0,3,0.2,4.3,0.6c1.4,0.4,2.4,0.8,3.2,1.3c0,0.3,0.1,0.7,0.1,1.1c0,0.4,0.1,0.9,0.1,1.4c0,0.5,0,1,0.1,1.4c0,0.5,0,0.9,0,1.3
		L293.2,56.9z"/>
</g>
<g id="XMLID_133_">
	<g id="XMLID_136_">
		<g id="XMLID_421_">
			<path id="XMLID_445_" class="st3" d="M86.3,105.7V94.2h8.8v2.3h-6.2V99h5.5v2.3h-5.5v4.5H86.3z"/>
			<path id="XMLID_442_" class="st3" d="M108,104.2c-1.2,1.2-2.6,1.7-4.4,1.7s-3.2-0.6-4.4-1.7c-1.2-1.1-1.7-2.5-1.7-4.2v0
				c0-1.7,0.6-3.1,1.8-4.2c1.2-1.2,2.6-1.7,4.4-1.7c1.8,0,3.2,0.6,4.4,1.7c1.2,1.1,1.7,2.5,1.7,4.2v0
				C109.8,101.6,109.2,103,108,104.2z M101.2,102.5c0.7,0.7,1.5,1.1,2.5,1.1c1,0,1.8-0.3,2.5-1c0.6-0.7,1-1.5,1-2.5v0
				c0-1-0.3-1.9-1-2.6c-0.7-0.7-1.5-1.1-2.5-1.1s-1.8,0.3-2.5,1c-0.6,0.7-1,1.5-1,2.5v0C100.2,101,100.5,101.8,101.2,102.5z"/>
			<path id="XMLID_439_" class="st3" d="M123,104.2c-1.2,1.2-2.6,1.7-4.4,1.7s-3.2-0.6-4.4-1.7c-1.2-1.1-1.7-2.5-1.7-4.2v0
				c0-1.7,0.6-3.1,1.8-4.2c1.2-1.2,2.6-1.7,4.4-1.7c1.8,0,3.2,0.6,4.4,1.7c1.2,1.1,1.7,2.5,1.7,4.2v0
				C124.8,101.6,124.2,103,123,104.2z M116.2,102.5c0.7,0.7,1.5,1.1,2.5,1.1c1,0,1.8-0.3,2.5-1c0.6-0.7,1-1.5,1-2.5v0
				c0-1-0.3-1.9-1-2.6c-0.7-0.7-1.5-1.1-2.5-1.1s-1.8,0.3-2.5,1c-0.6,0.7-1,1.5-1,2.5v0C115.2,101,115.5,101.8,116.2,102.5z"/>
			<path id="XMLID_436_" class="st3" d="M128,105.7V94.2h4.5c1.8,0,3.3,0.5,4.4,1.6c1.1,1.1,1.7,2.5,1.7,4.1v0c0,1.6-0.6,3-1.7,4.1
				c-1.1,1.1-2.6,1.6-4.4,1.6H128z M130.5,103.4h2c1,0,1.9-0.3,2.5-1c0.6-0.6,1-1.5,1-2.5v0c0-1-0.3-1.9-1-2.5c-0.6-0.6-1.5-1-2.5-1
				h-2V103.4z"/>
			<path id="XMLID_434_" class="st3" d="M147.8,105.7V94.2h8.8v2.3h-6.2V99h5.5v2.3h-5.5v4.5H147.8z"/>
			<path id="XMLID_431_" class="st3" d="M169.5,104.2c-1.2,1.2-2.6,1.7-4.4,1.7s-3.2-0.6-4.4-1.7c-1.2-1.1-1.7-2.5-1.7-4.2v0
				c0-1.7,0.6-3.1,1.8-4.2c1.2-1.2,2.6-1.7,4.4-1.7c1.8,0,3.2,0.6,4.4,1.7c1.2,1.1,1.7,2.5,1.7,4.2v0
				C171.3,101.6,170.7,103,169.5,104.2z M162.7,102.5c0.7,0.7,1.5,1.1,2.5,1.1c1,0,1.8-0.3,2.5-1c0.6-0.7,1-1.5,1-2.5v0
				c0-1-0.3-1.9-1-2.6c-0.7-0.7-1.5-1.1-2.5-1.1s-1.8,0.3-2.5,1c-0.6,0.7-1,1.5-1,2.5v0C161.7,101,162,101.8,162.7,102.5z"/>
			<path id="XMLID_428_" class="st3" d="M174.5,105.7V94.2h5.3c1.5,0,2.6,0.4,3.4,1.2c0.7,0.7,1,1.5,1,2.6v0c0,1.8-0.8,3-2.5,3.6
				l2.8,4.1h-3L179,102h-2v3.7H174.5z M177.1,99.8h2.6c0.6,0,1.1-0.1,1.4-0.4c0.3-0.3,0.5-0.7,0.5-1.2v0c0-0.5-0.2-0.9-0.5-1.2
				c-0.4-0.3-0.8-0.4-1.5-0.4h-2.5V99.8z"/>
			<path id="XMLID_426_" class="st3" d="M196,105.7v-9.2h-3.5v-2.3h9.5v2.3h-3.5v9.2H196z"/>
			<path id="XMLID_424_" class="st3" d="M205,105.7V94.2h2.5v4.6h4.7v-4.6h2.5v11.5h-2.5v-4.6h-4.7v4.6H205z"/>
			<path id="XMLID_422_" class="st3" d="M218.5,105.7V94.2h8.7v2.3H221v2.3h5.4v2.3H221v2.4h6.3v2.3H218.5z"/>
		</g>
	</g>
	<line id="XMLID_135_" class="st4" x1="253.5" y1="101.2" x2="293.5" y2="101.2"/>
	<line id="XMLID_134_" class="st4" x1="30.6" y1="101.2" x2="66.4" y2="101.2"/>
</g>
<g id="XMLID_131_">
</g>
<g id="XMLID_231_">
</g>
<g id="XMLID_232_">
</g>
<g id="XMLID_233_">
</g>
<g id="XMLID_234_">
</g>
<g id="XMLID_235_">
</g>
</svg>
