<?xml version="1.0"?>
<!--Icons from directory ""-->
<svg xmlns="http://www.w3.org/2000/svg" width="55" height="1045" viewBox="0 0 55 1045">
    <svg xmlns:xlink="http://www.w3.org/1999/xlink" id="01" xml:space="preserve" viewBox="290.9 502.5 34.3 22" version="1.1" y="0" x="0px" enable-background="new 290.9 502.5 34.3 22" width="45" height="45">		<path d="m323.9 519.2c-0.2-0.1-0.4-0.2-0.7-0.2h-0.5-2.5c-0.1-2.8-1.1-5.5-2.9-7.6-1.7-2.1-4.2-3.5-6.8-4.1 0.2-0.4 0.3-0.9 0.3-1.3 0-0.7-0.3-1.5-0.8-2s-1.2-0.8-2-0.8c-0.7 0-1.5 0.3-2 0.8s-0.8 1.2-0.8 2c0 0.5 0.1 0.9 0.3 1.3-2.7 0.5-5.1 2-6.8 4.1-1.8 2.1-2.8 4.8-2.9 7.6h-2.5-0.5c-0.2 0-0.5 0.1-0.7 0.2-0.4 0.2-0.7 0.7-0.7 1.1 0 0.5 0.3 0.9 0.7 1.1 0.2 0.1 0.4 0.2 0.7 0.2h0.5 4.4c0.1 0.4 0.3 0.8 0.6 1.1 0.4 0.4 0.9 0.6 1.4 0.6h2.7 11 2.7c0.5 0 1.1-0.3 1.4-0.6s0.5-0.7 0.6-1.1h4.4 0.5c0.2 0 0.5-0.1 0.7-0.2 0.4-0.2 0.7-0.7 0.7-1.1 0.1-0.4-0.1-0.9-0.5-1.1zm-17.4-14.7c0.4-0.4 1-0.6 1.5-0.6 0.6 0 1.1 0.2 1.5 0.6s0.6 1 0.6 1.5c0 0.6-0.2 1.1-0.6 1.5s-1 0.6-1.5 0.6c-0.6 0-1.1-0.2-1.5-0.6s-0.6-1-0.6-1.5 0.2-1.1 0.6-1.5zm-7.3 7.3c1.7-2 4.2-3.4 6.8-3.9l0.1 0.1c0.5 0.5 1.2 0.8 2 0.8 0.7 0 1.5-0.3 2-0.8l0.1-0.1c2.6 0.5 5.1 1.9 6.8 3.9s2.7 4.6 2.7 7.2h-23.3c0.1-2.6 1.1-5.2 2.8-7.2zm18 10.5c-0.3 0.3-0.6 0.4-1 0.4h-2.7-11-2.7c-0.4 0-0.7-0.2-1-0.4-0.2-0.2-0.3-0.4-0.4-0.7h19.2c-0.1 0.3-0.2 0.5-0.4 0.7zm6.3-1.4c-0.1 0.1-0.2 0.1-0.3 0.1h-0.5-29.4-0.5c-0.1 0-0.2 0-0.3-0.1-0.2-0.1-0.3-0.4-0.3-0.6s0.1-0.5 0.3-0.6c0.1-0.1 0.2-0.1 0.3-0.1h0.5 29.4 0.5c0.1 0 0.2 0 0.3 0.1 0.2 0.1 0.3 0.4 0.3 0.6s-0.1 0.5-0.3 0.6z" fill="#333"/>		<path d="m313.5 523.5h-13.7c-0.6 0-1.1-0.3-1.5-0.7-0.3-0.3-0.5-0.7-0.6-1.1h-4.9c-0.3 0-0.5-0.1-0.7-0.2-0.4-0.2-0.7-0.7-0.7-1.2s0.3-1 0.7-1.2c0.2-0.1 0.4-0.2 0.7-0.2h2.9c0.1-2.8 1.1-5.5 2.9-7.6 1.7-2.1 4.2-3.5 6.8-4.1-0.2-0.4-0.3-0.8-0.3-1.3 0-0.8 0.3-1.5 0.8-2s1.3-0.8 2-0.8 1.5 0.3 2 0.8 0.8 1.3 0.8 2c0 0.4-0.1 0.9-0.3 1.3 2.6 0.6 5.1 2 6.8 4.1 1.8 2.1 2.8 4.8 2.9 7.6h2.9c0.3 0 0.5 0.1 0.7 0.2 0.4 0.2 0.7 0.7 0.7 1.2s-0.3 1-0.7 1.2c-0.2 0.1-0.4 0.2-0.7 0.2h-4.9c-0.1 0.4-0.3 0.8-0.6 1.1-0.4 0.4-0.9 0.6-1.5 0.7h-2.5zm-20.1-4.4h-0.5c-0.2 0-0.4 0.1-0.6 0.2-0.4 0.2-0.6 0.6-0.6 1.1 0 0.4 0.2 0.9 0.6 1.1 0.2 0.1 0.4 0.2 0.6 0.2h5v0.1c0.1 0.4 0.3 0.8 0.5 1.1 0.4 0.4 0.9 0.6 1.4 0.6h13.7 2.7c0.5 0 1-0.2 1.4-0.6 0.3-0.3 0.5-0.7 0.5-1.1v-0.1h5c0.2 0 0.4-0.1 0.6-0.2 0.4-0.2 0.6-0.6 0.6-1.1 0-0.4-0.2-0.9-0.6-1.1-0.2-0.1-0.4-0.2-0.6-0.2h-3v-0.1c-0.1-2.8-1.1-5.4-2.9-7.5-1.7-2.1-4.2-3.5-6.8-4h-0.1v-0.1c0.2-0.4 0.3-0.8 0.3-1.3 0-0.7-0.3-1.4-0.8-1.9s-1.2-0.8-1.9-0.8-1.4 0.3-1.9 0.8-0.8 1.2-0.8 1.9c0 0.4 0.1 0.9 0.3 1.3v0.1h-0.1c-2.6 0.5-5.1 2-6.8 4-1.8 2.1-2.8 4.8-2.9 7.5v0.1h-2.3zm20.1 3.8h-13.7c-0.4 0-0.8-0.2-1.1-0.5-0.2-0.2-0.3-0.5-0.4-0.7v-0.1h19.3v0.1c-0.1 0.3-0.2 0.5-0.4 0.7-0.3 0.3-0.7 0.5-1.1 0.5h-2.6zm-15-1.2l0.3 0.6c0.2 0.3 0.6 0.4 1 0.4h13.7 2.7c0.4 0 0.7-0.2 1-0.4 0.2-0.2 0.3-0.4 0.3-0.6h-19zm24.2-0.6h-29.8c-0.1 0-0.3 0-0.4-0.1-0.2-0.1-0.4-0.4-0.4-0.7s0.1-0.5 0.4-0.7c0.1-0.1 0.2-0.1 0.4-0.1h2.6 27.7c0.1 0 0.3 0 0.4 0.1 0.2 0.1 0.4 0.4 0.4 0.7s-0.1 0.5-0.4 0.7c-0.1 0.1-0.2 0.1-0.4 0.1h-0.5zm-29.3-1.4h-0.5c-0.1 0-0.2 0-0.3 0.1-0.2 0.1-0.3 0.3-0.3 0.5s0.1 0.4 0.3 0.5c0.1 0.1 0.2 0.1 0.3 0.1h2.6 27.7c0.1 0 0.2 0 0.3-0.1 0.2-0.1 0.3-0.3 0.3-0.5s-0.1-0.4-0.3-0.5c-0.1-0.1-0.2-0.1-0.3-0.1h-2.6-27.2zm26.3-0.6h-23.3v-0.1c0.1-2.6 1-5.2 2.8-7.2 1.7-2 4.2-3.5 6.8-3.9l0.1 0.1 0.1 0.1c0.5 0.5 1.2 0.8 1.9 0.8s1.4-0.3 1.9-0.8l0.1-0.1 0.1-0.1c2.6 0.5 5.1 1.9 6.8 3.9 1.6 2 2.6 4.5 2.7 7.3zm-23.2-0.2h23c-0.1-2.6-1-5.1-2.7-7.1s-4.1-3.4-6.7-3.9l-0.1 0.1c-0.5 0.5-1.3 0.8-2 0.8s-1.5-0.3-2-0.8l-0.1-0.1c-2.6 0.5-5 1.9-6.7 3.9-1.6 2-2.6 4.5-2.7 7.1zm11.5-10.6c-0.6 0-1.2-0.2-1.6-0.7-0.4-0.4-0.7-1-0.7-1.6s0.2-1.2 0.7-1.6c0.4-0.4 1-0.7 1.6-0.7s1.2 0.2 1.6 0.7c0.4 0.4 0.7 1 0.7 1.6s-0.2 1.2-0.7 1.6c-0.4 0.4-1 0.7-1.6 0.7zm0-0.2c0.6 0 1.1-0.2 1.5-0.6s0.6-0.9 0.6-1.5c0-0.5-0.2-1.1-0.6-1.5s-0.9-0.6-1.5-0.6-1.1 0.2-1.5 0.6-0.6 0.9-0.6 1.5c0 0.5 0.2 1.1 0.6 1.5s1 0.6 1.5 0.6z" fill="#333"/></svg>
    <svg xmlns:xlink="http://www.w3.org/1999/xlink" id="02" xml:space="preserve" viewBox="0 0 33.7 26.4" version="1.1" y="55" x="0px" enable-background="new 0 0 33.7 26.4" width="45" height="45">		<path d="m16.8 2.6c-5.8 0-10.5 4.8-10.5 10.6s4.7 10.6 10.5 10.6c5.8 0 10.6-4.7 10.6-10.6s-4.7-10.6-10.6-10.6zm0 20.4c-5.4 0-9.8-4.4-9.8-9.8s4.4-9.8 9.8-9.8c5.4 0 9.8 4.4 9.8 9.8s-4.4 9.8-9.8 9.8z" fill="#333"/>		<path d="m17.2 11.3v-6.3c0-0.2-0.2-0.4-0.4-0.4s-0.4 0.2-0.4 0.4v6.3c-0.8 0.2-1.4 0.8-1.5 1.5h-3.6c-0.2 0-0.4 0.2-0.4 0.4s0.2 0.4 0.4 0.4h3.6c0.2 0.9 1 1.6 1.9 1.6 1.1 0 2-0.9 2-2 0-1-0.7-1.7-1.6-1.9zm-0.4 3.1c-0.6 0-1.2-0.5-1.2-1.2s0.5-1.2 1.2-1.2c0.6 0 1.2 0.5 1.2 1.2s-0.5 1.2-1.2 1.2z" fill="#333"/></svg>
    <svg xmlns:xlink="http://www.w3.org/1999/xlink" id="03" xml:space="preserve" viewBox="0 0 33.7 26.4" version="1.1" y="110" x="0px" enable-background="new 0 0 33.7 26.4" width="45" height="45"><g fill="#333">	<path d="m21.1 7.2c-0.1 0-0.2 0-0.2-0.1l-1.8-2-2.1 1.6c-0.1 0.1-0.3 0.1-0.4 0s-0.1-0.3 0-0.4l2.4-1.8c0.1-0.1 0.3-0.1 0.4 0l1.9 2.3c0.1 0.1 0.1 0.3 0 0.4h-0.2z"/>	<path d="m10 13.5c-0.2 0-0.3-0.1-0.3-0.3 0-0.1 0.1-0.3 0.3-0.3 4.9 0 9-3.7 9-8.3 0-0.1 0.1-0.3 0.3-0.3s0.3 0.1 0.3 0.3c-0.1 5-4.4 8.9-9.6 8.9z"/>	<path d="m10 22c-0.2 0-0.3-0.1-0.3-0.3v-4.1c0-0.1 0.1-0.3 0.3-0.3s0.3 0.1 0.3 0.3v4.1c-0.1 0.1-0.2 0.3-0.3 0.3z"/>	<path d="m14.5 22c-0.2 0-0.3-0.1-0.3-0.3v-6.7c0-0.1 0.1-0.3 0.3-0.3s0.3 0.1 0.3 0.3v6.7c0 0.1-0.1 0.3-0.3 0.3z"/>	<path d="m19.1 22c-0.2 0-0.3-0.1-0.3-0.3v-8.5c0-0.1 0.1-0.3 0.3-0.3s0.3 0.1 0.3 0.3v8.5c0 0.1-0.1 0.3-0.3 0.3z"/>	<path d="m23.7 22c-0.2 0-0.3-0.1-0.3-0.3v-11.3c0-0.1 0.1-0.3 0.3-0.3s0.3 0.1 0.3 0.3v11.2c0 0.2-0.1 0.4-0.3 0.4z"/></g></svg>
    <svg xmlns:xlink="http://www.w3.org/1999/xlink" id="beverages" xml:space="preserve" viewBox="282.2 493.1 53.3 43.6" version="1.1" y="165" x="0px" enable-background="new 282.2 493.1 53.3 43.6" width="55" height="55"><path stroke="#F1F2F2" stroke-width=".25" stroke-miterlimit="10" d="m319.6 506.9c0-0.3-0.3-0.6-0.7-0.6h-13.2l-0.6-4.6c0-0.2-0.1-0.3-0.2-0.4s-0.2-0.2-0.3-0.2l-5-1.8c-0.4-0.1-0.8 0.1-0.9 0.4-0.1 0.4 0.1 0.8 0.4 0.9l4.7 1.7 0.5 4h-5.3-0.3c-0.2 0.1-0.4 0.2-0.5 0.4v0.1 0.2 0.1 0.1 0.1l4.8 22.7c0 0.1 0.1 0.1 0.1 0.2 0.1 0.3 0.4 0.5 0.7 0.5h10.1 0.1 0.2c0.2-0.1 0.4-0.3 0.4-0.5l4.9-22.9c0.1-0.2 0.1-0.3 0.1-0.4zm-1.6 0.8l-1.2 5.4c-1.6 0-1.6 1.1-3.2 1.1s-1.6-1.1-3.2-1.1-1.6 1.1-3.2 1.1h-0.5l-0.8-6.5h12.1zm-12.9 5.7c-0.3-0.2-0.7-0.3-1.2-0.3-1.5 0-1.6 0.9-2.9 1l-1.4-6.5h4.7l0.8 5.8zm8.3 15.8h-9.1l-3-13.7c1-0.2 1.2-1 2.6-1 1.6 0 1.6 1.1 3.2 1.1s1.6-1.1 3.2-1.1 1.6 1.1 3.2 1.1c1.5 0 1.6-0.9 2.9-1l-3 14.6z" fill="#404041"/></svg>
    <svg xmlns:xlink="http://www.w3.org/1999/xlink" id="beveragesactive" xml:space="preserve" viewBox="282.2 493.1 53.3 43.6" version="1.1" y="220" x="0px" enable-background="new 282.2 493.1 53.3 43.6" width="55" height="55"><path stroke="#F1F2F2" stroke-width=".25" stroke-miterlimit="10" d="m319.6 506.9c0-0.3-0.3-0.6-0.7-0.6h-13.2l-0.6-4.6c0-0.2-0.1-0.3-0.2-0.4s-0.2-0.2-0.3-0.2l-5-1.8c-0.4-0.1-0.8 0.1-0.9 0.4-0.1 0.4 0.1 0.8 0.4 0.9l4.7 1.7 0.5 4h-5.3-0.3c-0.2 0.1-0.4 0.2-0.5 0.4v0.1 0.2 0.1 0.1 0.1l4.8 22.7c0 0.1 0.1 0.1 0.1 0.2 0.1 0.3 0.4 0.5 0.7 0.5h10.1 0.1 0.2c0.2-0.1 0.4-0.3 0.4-0.5l4.9-22.9c0.1-0.2 0.1-0.3 0.1-0.4zm-1.6 0.8l-1.2 5.4c-1.6 0-1.6 1.1-3.2 1.1s-1.6-1.1-3.2-1.1-1.6 1.1-3.2 1.1h-0.5l-0.8-6.5h12.1zm-12.9 5.7c-0.3-0.2-0.7-0.3-1.2-0.3-1.5 0-1.6 0.9-2.9 1l-1.4-6.5h4.7l0.8 5.8zm8.3 15.8h-9.1l-3-13.7c1-0.2 1.2-1 2.6-1 1.6 0 1.6 1.1 3.2 1.1s1.6-1.1 3.2-1.1 1.6 1.1 3.2 1.1c1.5 0 1.6-0.9 2.9-1l-3 14.6z" fill="#EE5B31"/></svg>
    <svg xmlns:xlink="http://www.w3.org/1999/xlink" id="breads" xml:space="preserve" viewBox="282.2 493.1 53.3 43.6" version="1.1" y="275" x="0px" enable-background="new 282.2 493.1 53.3 43.6" width="55" height="55">	<path stroke="#414042" stroke-miterlimit="10" d="m332.8 518.4c0 2.2-3.1 4.6-7.3 6.3-3.6 1.5-7.9 2.4-13.8 2.4-2.3 0-4.6-0.1-6.7-0.3-4.1-0.4-7.8-0.7-13.3-3.3-3.3-1.6-4.2-3.1-4.2-5 0-4.1 10.1-7.5 22.6-7.5s22.7 3.2 22.7 7.4z" fill="none"/><g stroke="#414042" stroke-miterlimit="10" fill="#F1F2F2">	<path d="m330.1 515.4c0 2.2-3.1 4.6-7.3 6.3-3.6 1.5-7.9 2.4-13.8 2.4-2.3 0-4.6-0.1-6.7-0.3-4.1-0.4-7.8-0.7-13.3-3.3-3.3-1.6-4.2-3.1-4.2-5 0-4.1 10.1-7.5 22.6-7.5s22.7 3.3 22.7 7.4z"/>	<path d="m331.8 512.5c0 2.2-3.1 4.6-7.3 6.3-3.6 1.5-7.9 2.4-13.8 2.4-2.3 0-4.6-0.1-6.7-0.3-4.1-0.4-7.8-0.7-13.3-3.3-3.3-1.6-4.2-3.1-4.2-5 0-4.1 10.1-7.5 22.6-7.5 12.6-0.1 22.7 3.3 22.7 7.4z"/>	<path d="m330.1 510.3c0 2.2-3.1 4.6-7.3 6.3-3.6 1.5-7.9 2.4-13.8 2.4-2.3 0-4.6-0.1-6.7-0.3-4.1-0.4-7.8-0.7-13.3-3.3-3.3-1.6-4.2-3.1-4.2-5 0-4.1 10.1-7.5 22.6-7.5s22.7 3.3 22.7 7.4z"/>	</g>		<path d="m295.3 508.1c-0.1 0-0.3 0-0.4-0.1-0.6-0.6-1.6 0.1-1.6 0.1-0.2 0.1-0.5 0.1-0.7-0.2-0.1-0.2-0.1-0.5 0.2-0.7 0.6-0.4 2-0.8 2.9 0.1 0.2 0.2 0.2 0.5 0 0.7-0.1 0-0.3 0.1-0.4 0.1z" fill="#414042"/>		<path d="m301.9 511.6c-0.1 0-0.3 0-0.4-0.1-0.6-0.6-1.6 0.1-1.6 0.1-0.2 0.1-0.5 0.1-0.7-0.2-0.1-0.2-0.1-0.5 0.2-0.7 0.6-0.4 2-0.8 2.9 0.1 0.2 0.2 0.2 0.5 0 0.7-0.1 0-0.3 0.1-0.4 0.1z" fill="#414042"/>		<path d="m309 508.1c-0.1 0-0.3 0-0.4-0.1-0.6-0.6-1.6 0.1-1.6 0.1-0.2 0.1-0.5 0.1-0.7-0.2-0.1-0.2-0.1-0.5 0.2-0.7 0.6-0.4 2-0.8 2.9 0.1 0.2 0.2 0.2 0.5 0 0.7-0.1 0-0.2 0.1-0.4 0.1z" fill="#414042"/>		<path d="m313.5 511.6c-0.1 0-0.3 0-0.4-0.1-0.6-0.6-1.6 0.1-1.6 0.1-0.2 0.1-0.5 0.1-0.7-0.2-0.1-0.2-0.1-0.5 0.2-0.7 0.6-0.4 2-0.8 2.9 0.1 0.2 0.2 0.2 0.5 0 0.7-0.2 0-0.3 0.1-0.4 0.1z" fill="#414042"/>		<path d="m322 514.8c-0.1 0-0.3 0-0.4-0.1-0.6-0.6-1.6 0.1-1.6 0.1-0.2 0.1-0.5 0.1-0.7-0.2-0.1-0.2-0.1-0.5 0.2-0.7 0.6-0.4 2-0.8 2.9 0.1 0.2 0.2 0.2 0.5 0 0.7-0.1 0.1-0.2 0.1-0.4 0.1z" fill="#414042"/>		<path d="m308.6 514.8c-0.1 0-0.3 0-0.4-0.1-0.6-0.6-1.6 0.1-1.6 0.1-0.2 0.1-0.5 0.1-0.7-0.2-0.1-0.2-0.1-0.5 0.2-0.7 0.6-0.4 2-0.8 2.9 0.1 0.2 0.2 0.2 0.5 0 0.7-0.1 0.1-0.2 0.1-0.4 0.1z" fill="#414042"/>		<path d="m295.7 514.5c-0.1 0-0.3 0-0.4-0.1-0.6-0.6-1.6 0.1-1.6 0.1-0.2 0.1-0.5 0.1-0.7-0.2-0.1-0.2-0.1-0.5 0.2-0.7 0.6-0.4 2-0.8 2.9 0.1 0.2 0.2 0.2 0.5 0 0.7-0.1 0-0.2 0.1-0.4 0.1z" fill="#414042"/>		<path d="m322 508.1c-0.1 0-0.3 0-0.4-0.1-0.6-0.6-1.6 0.1-1.6 0.1-0.2 0.1-0.5 0.1-0.7-0.2-0.1-0.2-0.1-0.5 0.2-0.7 0.6-0.4 2-0.8 2.9 0.1 0.2 0.2 0.2 0.5 0 0.7-0.1 0-0.2 0.1-0.4 0.1z" fill="#414042"/></svg>
    <svg xmlns:xlink="http://www.w3.org/1999/xlink" id="breadsactive" xml:space="preserve" viewBox="282.2 493.1 53.3 43.6" version="1.1" y="330" x="0px" enable-background="new 282.2 493.1 53.3 43.6" width="55" height="55">	<path stroke="#EE5B31" stroke-miterlimit="10" d="m332.8 518.4c0 2.2-3.1 4.6-7.3 6.3-3.6 1.5-7.9 2.4-13.8 2.4-2.3 0-4.6-0.1-6.7-0.3-4.1-0.4-7.8-0.7-13.3-3.3-3.3-1.6-4.2-3.1-4.2-5 0-4.1 10.1-7.5 22.6-7.5s22.7 3.2 22.7 7.4z" fill="none"/><g stroke="#EE5B31" stroke-miterlimit="10" fill="#F1F2F2">	<path d="m330.1 515.4c0 2.2-3.1 4.6-7.3 6.3-3.6 1.5-7.9 2.4-13.8 2.4-2.3 0-4.6-0.1-6.7-0.3-4.1-0.4-7.8-0.7-13.3-3.3-3.3-1.6-4.2-3.1-4.2-5 0-4.1 10.1-7.5 22.6-7.5s22.7 3.3 22.7 7.4z"/>	<path d="m331.8 512.5c0 2.2-3.1 4.6-7.3 6.3-3.6 1.5-7.9 2.4-13.8 2.4-2.3 0-4.6-0.1-6.7-0.3-4.1-0.4-7.8-0.7-13.3-3.3-3.3-1.6-4.2-3.1-4.2-5 0-4.1 10.1-7.5 22.6-7.5 12.6-0.1 22.7 3.3 22.7 7.4z"/>	<path d="m330.1 510.3c0 2.2-3.1 4.6-7.3 6.3-3.6 1.5-7.9 2.4-13.8 2.4-2.3 0-4.6-0.1-6.7-0.3-4.1-0.4-7.8-0.7-13.3-3.3-3.3-1.6-4.2-3.1-4.2-5 0-4.1 10.1-7.5 22.6-7.5s22.7 3.3 22.7 7.4z"/>	</g>		<path d="m295.3 508.1c-0.1 0-0.3 0-0.4-0.1-0.6-0.6-1.6 0.1-1.6 0.1-0.2 0.1-0.5 0.1-0.7-0.2-0.1-0.2-0.1-0.5 0.2-0.7 0.6-0.4 2-0.8 2.9 0.1 0.2 0.2 0.2 0.5 0 0.7-0.1 0-0.3 0.1-0.4 0.1z" fill="#EE5B31"/>		<path d="m301.9 511.6c-0.1 0-0.3 0-0.4-0.1-0.6-0.6-1.6 0.1-1.6 0.1-0.2 0.1-0.5 0.1-0.7-0.2-0.1-0.2-0.1-0.5 0.2-0.7 0.6-0.4 2-0.8 2.9 0.1 0.2 0.2 0.2 0.5 0 0.7-0.1 0-0.3 0.1-0.4 0.1z" fill="#EE5B31"/>		<path d="m309 508.1c-0.1 0-0.3 0-0.4-0.1-0.6-0.6-1.6 0.1-1.6 0.1-0.2 0.1-0.5 0.1-0.7-0.2-0.1-0.2-0.1-0.5 0.2-0.7 0.6-0.4 2-0.8 2.9 0.1 0.2 0.2 0.2 0.5 0 0.7-0.1 0-0.2 0.1-0.4 0.1z" fill="#EE5B31"/>		<path d="m313.5 511.6c-0.1 0-0.3 0-0.4-0.1-0.6-0.6-1.6 0.1-1.6 0.1-0.2 0.1-0.5 0.1-0.7-0.2-0.1-0.2-0.1-0.5 0.2-0.7 0.6-0.4 2-0.8 2.9 0.1 0.2 0.2 0.2 0.5 0 0.7-0.2 0-0.3 0.1-0.4 0.1z" fill="#EE5B31"/>		<path d="m322 514.8c-0.1 0-0.3 0-0.4-0.1-0.6-0.6-1.6 0.1-1.6 0.1-0.2 0.1-0.5 0.1-0.7-0.2-0.1-0.2-0.1-0.5 0.2-0.7 0.6-0.4 2-0.8 2.9 0.1 0.2 0.2 0.2 0.5 0 0.7-0.1 0.1-0.2 0.1-0.4 0.1z" fill="#EE5B31"/>		<path d="m308.6 514.8c-0.1 0-0.3 0-0.4-0.1-0.6-0.6-1.6 0.1-1.6 0.1-0.2 0.1-0.5 0.1-0.7-0.2-0.1-0.2-0.1-0.5 0.2-0.7 0.6-0.4 2-0.8 2.9 0.1 0.2 0.2 0.2 0.5 0 0.7-0.1 0.1-0.2 0.1-0.4 0.1z" fill="#EE5B31"/>		<path d="m295.7 514.5c-0.1 0-0.3 0-0.4-0.1-0.6-0.6-1.6 0.1-1.6 0.1-0.2 0.1-0.5 0.1-0.7-0.2-0.1-0.2-0.1-0.5 0.2-0.7 0.6-0.4 2-0.8 2.9 0.1 0.2 0.2 0.2 0.5 0 0.7-0.1 0-0.2 0.1-0.4 0.1z" fill="#EE5B31"/>		<path d="m322 508.1c-0.1 0-0.3 0-0.4-0.1-0.6-0.6-1.6 0.1-1.6 0.1-0.2 0.1-0.5 0.1-0.7-0.2-0.1-0.2-0.1-0.5 0.2-0.7 0.6-0.4 2-0.8 2.9 0.1 0.2 0.2 0.2 0.5 0 0.7-0.1 0-0.2 0.1-0.4 0.1z" fill="#EE5B31"/></svg>
    <svg xmlns:xlink="http://www.w3.org/1999/xlink" id="condiments" xml:space="preserve" viewBox="282.2 493.1 53.3 43.6" version="1.1" y="385" x="0px" enable-background="new 282.2 493.1 53.3 43.6" width="55" height="55"><g transform="translate(-14.828 -5.248)" fill="#404041">	<path d="m323.7 504.1c5.2 0 9.3 1.2 9.3 3.2v0.1 0.1l-0.2 0.6 0.2 0.5 0.1 0.1v0.1c-0.1 0.4 0 0.2-0.2 0.6l0.4 0.3c0.6 0.6 0.9 1.2 0.9 1.8v20.8c0 2.5-4.5 3.7-10.4 3.7-5.7 0-10.4-1.3-10.4-3.7v-20.6c0-0.8 0.4-1.4 1-2l0.3-0.3c-0.3-0.5-0.2-0.2-0.3-0.8v-0.2l0.1-0.1 0.3-0.5-0.3-0.6-0.1-0.1v-0.1c-0.1-1.7 4.1-2.9 9.3-2.9zm0 1.2c-2.1 0-4.2 0.2-6.3 0.8-0.5 0.1-1.7 0.5-1.8 1.1l0.4 0.7 0.2 0.3-0.2 0.3-0.3 0.6c0.1 0.2 0 0.1 0.3 0.4l0.3 0.3 0.2 0.1c0.1 0 0.3 0.1 0.4 0.1 0.2 0.1 0.4 0.1 0.6 0.1 0.7 0.1 2.3 0.2 3.5 0.1h0.2c0.4 0 0.9-0.1 1.4-0.3 0.3-0.1 0.5-0.1 0.7-0.2 0.1 0 0.2-0.1 0.3-0.1l0.2 0.6c-0.1 0-0.2 0.1-0.3 0.1-0.2 0.1-0.5 0.1-0.8 0.2-0.5 0.1-1 0.2-1.4 0.3h-0.2c-1.3 0.1-2.9 0.1-3.7-0.1-0.2 0-0.4-0.1-0.6-0.2-0.1 0-0.3-0.1-0.4-0.1h-0.1l-0.3 0.1s-0.1 0.1-0.2 0.1c-0.2 0.1-0.3 0.2-0.5 0.3-0.4 0.3-0.6 0.7-0.6 1.1v20.6c0 1.3 4.2 2.5 9.2 2.5 5.2 0 9.2-1.1 9.2-2.5v-20.8c0-0.3-0.2-0.7-0.6-1l-0.4-0.4c-0.1-0.1-0.2-0.1-0.2-0.1l-0.6-0.4 0.5-0.5c0.2-0.2 0.1-0.1 0.2-0.3l-0.1-0.2c-0.3 0.3-0.1 0.1-0.5 0.4-0.6 0.5-1.4 0.9-2.3 1.2-0.5 0.2-1.2 0.3-1.9 0.5-0.7 0.1-1.4 0.3-2.1 0.4-0.3 0-0.5 0.1-0.7 0.1h-0.3l-0.1-0.6h0.3c0.2 0 0.4-0.1 0.7-0.1 0.7-0.1 1.4-0.2 2.1-0.4 0.7-0.1 1.4-0.3 1.9-0.4 0.8-0.3 1.5-0.6 2.1-1.1 0.4-0.3 0.2-0.1 0.6-0.5v-0.1l0.1-0.2 0.3-0.7c-0.3-1-2.9-1.4-3.6-1.6-2.6-0.5-2.9-0.4-4.8-0.5z"/>	<path d="m323.8 505.7c2.2 0 4.3 0.3 5.8 0.8l-0.2 0.6c-1.4-0.5-3.4-0.7-5.6-0.7-2.3 0-4.5 0.3-5.9 0.8l-0.2-0.6c1.5-0.6 3.7-0.9 6.1-0.9z"/>	<path d="m316.9 507.1c0 0.2 0.6 0.5 1.8 0.8 1.3 0.3 3 0.4 4.9 0.4s3.6-0.1 4.9-0.4c1.2-0.2 1.8-0.6 1.8-0.8h0.6c0 1.1-3.1 1.8-7.3 1.8s-7.3-0.6-7.3-1.8h0.6z"/></g></svg>
    <svg xmlns:xlink="http://www.w3.org/1999/xlink" id="condimentsactive" xml:space="preserve" viewBox="282.2 493.1 53.3 43.6" version="1.1" y="440" x="0px" enable-background="new 282.2 493.1 53.3 43.6" width="55" height="55"><g transform="translate(-14.828 -5.248)" fill="#EE5B31">	<path d="m323.7 504.1c5.2 0 9.3 1.2 9.3 3.2v0.1 0.1l-0.2 0.6 0.2 0.5 0.1 0.1v0.1c-0.1 0.4 0 0.2-0.2 0.6l0.4 0.3c0.6 0.6 0.9 1.2 0.9 1.8v20.8c0 2.5-4.5 3.7-10.4 3.7-5.7 0-10.4-1.3-10.4-3.7v-20.6c0-0.8 0.4-1.4 1-2l0.3-0.3c-0.3-0.5-0.2-0.2-0.3-0.8v-0.2l0.1-0.1 0.3-0.5-0.3-0.6-0.1-0.1v-0.1c-0.1-1.7 4.1-2.9 9.3-2.9zm0 1.2c-2.1 0-4.2 0.2-6.3 0.8-0.5 0.1-1.7 0.5-1.8 1.1l0.4 0.7 0.2 0.3-0.2 0.3-0.3 0.6c0.1 0.2 0 0.1 0.3 0.4l0.3 0.3 0.2 0.1c0.1 0 0.3 0.1 0.4 0.1 0.2 0.1 0.4 0.1 0.6 0.1 0.7 0.1 2.3 0.2 3.5 0.1h0.2c0.4 0 0.9-0.1 1.4-0.3 0.3-0.1 0.5-0.1 0.7-0.2 0.1 0 0.2-0.1 0.3-0.1l0.2 0.6c-0.1 0-0.2 0.1-0.3 0.1-0.2 0.1-0.5 0.1-0.8 0.2-0.5 0.1-1 0.2-1.4 0.3h-0.2c-1.3 0.1-2.9 0.1-3.7-0.1-0.2 0-0.4-0.1-0.6-0.2-0.1 0-0.3-0.1-0.4-0.1h-0.1l-0.3 0.1s-0.1 0.1-0.2 0.1c-0.2 0.1-0.3 0.2-0.5 0.3-0.4 0.3-0.6 0.7-0.6 1.1v20.6c0 1.3 4.2 2.5 9.2 2.5 5.2 0 9.2-1.1 9.2-2.5v-20.8c0-0.3-0.2-0.7-0.6-1l-0.4-0.4c-0.1-0.1-0.2-0.1-0.2-0.1l-0.6-0.4 0.5-0.5c0.2-0.2 0.1-0.1 0.2-0.3l-0.1-0.2c-0.3 0.3-0.1 0.1-0.5 0.4-0.6 0.5-1.4 0.9-2.3 1.2-0.5 0.2-1.2 0.3-1.9 0.5-0.7 0.1-1.4 0.3-2.1 0.4-0.3 0-0.5 0.1-0.7 0.1h-0.3l-0.1-0.6h0.3c0.2 0 0.4-0.1 0.7-0.1 0.7-0.1 1.4-0.2 2.1-0.4 0.7-0.1 1.4-0.3 1.9-0.4 0.8-0.3 1.5-0.6 2.1-1.1 0.4-0.3 0.2-0.1 0.6-0.5v-0.1l0.1-0.2 0.3-0.7c-0.3-1-2.9-1.4-3.6-1.6-2.6-0.5-2.9-0.4-4.8-0.5z"/>	<path d="m323.8 505.7c2.2 0 4.3 0.3 5.8 0.8l-0.2 0.6c-1.4-0.5-3.4-0.7-5.6-0.7-2.3 0-4.5 0.3-5.9 0.8l-0.2-0.6c1.5-0.6 3.7-0.9 6.1-0.9z"/>	<path d="m316.9 507.1c0 0.2 0.6 0.5 1.8 0.8 1.3 0.3 3 0.4 4.9 0.4s3.6-0.1 4.9-0.4c1.2-0.2 1.8-0.6 1.8-0.8h0.6c0 1.1-3.1 1.8-7.3 1.8s-7.3-0.6-7.3-1.8h0.6z"/></g></svg>
    <svg xmlns:xlink="http://www.w3.org/1999/xlink" id="currie" xml:space="preserve" viewBox="282.2 493.1 53.3 43.6" version="1.1" y="495" x="0px" enable-background="new 282.2 493.1 53.3 43.6" width="55" height="55"><g fill="#404041">	<path d="m331.7 523.3c-0.3-0.2-0.6-0.3-0.9-0.3h-0.8-3.5c-0.1-4-1.6-7.9-4.2-10.9-2.5-3-6.1-5.1-9.9-5.9 0.3-0.6 0.5-1.2 0.5-1.9 0-1.1-0.4-2.1-1.2-2.8-0.7-0.7-1.8-1.2-2.8-1.2-1.1 0-2.1 0.4-2.8 1.2-0.7 0.7-1.2 1.8-1.2 2.8 0 0.7 0.2 1.3 0.5 1.9-3.8 0.8-7.4 2.9-9.9 5.9-2.6 3-4.1 7-4.2 10.9h-3.5-0.8c-0.3 0-0.7 0.1-0.9 0.3-0.6 0.3-0.9 1-0.9 1.6 0 0.7 0.4 1.3 0.9 1.6 0.3 0.2 0.6 0.3 0.9 0.3h0.8 6.4c0.1 0.6 0.4 1.2 0.8 1.6 0.5 0.6 1.3 0.9 2.1 0.9h4 15.8 4c0.8 0 1.5-0.4 2.1-0.9 0.4-0.4 0.7-1 0.8-1.6h6.4 0.8c0.3 0 0.7-0.1 0.9-0.3 0.6-0.3 0.9-1 0.9-1.6-0.2-0.6-0.5-1.2-1.1-1.6zm-25.1-21.1c0.6-0.6 1.4-0.9 2.2-0.9s1.6 0.3 2.2 0.9 0.9 1.4 0.9 2.2-0.3 1.6-0.9 2.2-1.4 0.9-2.2 0.9-1.6-0.3-2.2-0.9-0.9-1.4-0.9-2.2 0.4-1.6 0.9-2.2zm-10.5 10.5c2.5-2.9 6-5 9.8-5.6l0.1 0.1c0.7 0.7 1.8 1.2 2.8 1.2 1.1 0 2.1-0.4 2.8-1.2l0.1-0.1c3.8 0.7 7.3 2.7 9.8 5.6s3.9 6.6 4 10.3h-33.4c0.1-3.7 1.6-7.4 4-10.3zm26 15.2c-0.4 0.4-0.9 0.6-1.4 0.6h-3.9-15.8-3.9c-0.5 0-1.1-0.3-1.4-0.6s-0.5-0.6-0.5-1h27.6c-0.2 0.4-0.4 0.7-0.7 1zm9.1-2.1c-0.1 0.1-0.3 0.1-0.5 0.1h-0.7-42.2-0.7c-0.2 0-0.3 0-0.5-0.1-0.3-0.2-0.5-0.5-0.5-0.9 0-0.3 0.2-0.7 0.5-0.9 0.1-0.1 0.3-0.1 0.5-0.1h0.7 42.2 0.7c0.2 0 0.3 0 0.5 0.1 0.3 0.2 0.5 0.5 0.5 0.9s-0.2 0.8-0.5 0.9z"/>	<path d="m301.9 512l-0.5-0.8c-2.8 1.6-4.8 4.3-5.6 7.4l0.9 0.2c0.7-2.9 2.6-5.4 5.2-6.8z"/></g></svg>
    <svg xmlns:xlink="http://www.w3.org/1999/xlink" id="currieactive" xml:space="preserve" viewBox="282.2 493.1 53.3 43.6" version="1.1" y="550" x="0px" enable-background="new 282.2 493.1 53.3 43.6" width="55" height="55"><g fill="#EE5B31">	<path d="m331.7 523.3c-0.3-0.2-0.6-0.3-0.9-0.3h-0.8-3.5c-0.1-4-1.6-7.9-4.2-10.9-2.5-3-6.1-5.1-9.9-5.9 0.3-0.6 0.5-1.2 0.5-1.9 0-1.1-0.4-2.1-1.2-2.8-0.7-0.7-1.8-1.2-2.8-1.2-1.1 0-2.1 0.4-2.8 1.2-0.7 0.7-1.2 1.8-1.2 2.8 0 0.7 0.2 1.3 0.5 1.9-3.8 0.8-7.4 2.9-9.9 5.9-2.6 3-4.1 7-4.2 10.9h-3.5-0.8c-0.3 0-0.7 0.1-0.9 0.3-0.6 0.3-0.9 1-0.9 1.6 0 0.7 0.4 1.3 0.9 1.6 0.3 0.2 0.6 0.3 0.9 0.3h0.8 6.4c0.1 0.6 0.4 1.2 0.8 1.6 0.5 0.6 1.3 0.9 2.1 0.9h4 15.8 4c0.8 0 1.5-0.4 2.1-0.9 0.4-0.4 0.7-1 0.8-1.6h6.4 0.8c0.3 0 0.7-0.1 0.9-0.3 0.6-0.3 0.9-1 0.9-1.6-0.2-0.6-0.5-1.2-1.1-1.6zm-25.1-21.1c0.6-0.6 1.4-0.9 2.2-0.9s1.6 0.3 2.2 0.9 0.9 1.4 0.9 2.2-0.3 1.6-0.9 2.2-1.4 0.9-2.2 0.9-1.6-0.3-2.2-0.9-0.9-1.4-0.9-2.2 0.4-1.6 0.9-2.2zm-10.5 10.5c2.5-2.9 6-5 9.8-5.6l0.1 0.1c0.7 0.7 1.8 1.2 2.8 1.2 1.1 0 2.1-0.4 2.8-1.2l0.1-0.1c3.8 0.7 7.3 2.7 9.8 5.6s3.9 6.6 4 10.3h-33.4c0.1-3.7 1.6-7.4 4-10.3zm26 15.2c-0.4 0.4-0.9 0.6-1.4 0.6h-3.9-15.8-3.9c-0.5 0-1.1-0.3-1.4-0.6s-0.5-0.6-0.5-1h27.6c-0.2 0.4-0.4 0.7-0.7 1zm9.1-2.1c-0.1 0.1-0.3 0.1-0.5 0.1h-0.7-42.2-0.7c-0.2 0-0.3 0-0.5-0.1-0.3-0.2-0.5-0.5-0.5-0.9 0-0.3 0.2-0.7 0.5-0.9 0.1-0.1 0.3-0.1 0.5-0.1h0.7 42.2 0.7c0.2 0 0.3 0 0.5 0.1 0.3 0.2 0.5 0.5 0.5 0.9s-0.2 0.8-0.5 0.9z"/>	<path d="m301.9 512l-0.5-0.8c-2.8 1.6-4.8 4.3-5.6 7.4l0.9 0.2c0.7-2.9 2.6-5.4 5.2-6.8z"/></g></svg>
    <svg xmlns:xlink="http://www.w3.org/1999/xlink" id="miscellaneous" xml:space="preserve" viewBox="282.2 493.1 53.3 43.6" version="1.1" y="605" x="0px" enable-background="new 282.2 493.1 53.3 43.6" width="55" height="55"><g stroke="#F1F2F2" stroke-width=".5" stroke-miterlimit="10" fill="#404041">	<path d="m332.9 504.1c-0.4-0.6-0.9-1-1.7-1.2-0.6-0.2-1.4-0.1-2 0.3l-17.4 11.2h-26.5c-0.3 0-0.5 0.1-0.7 0.3s-0.3 0.4-0.3 0.7v7.1c0 2.5 2.1 4.6 4.6 4.6h19.7c1.1 0 2.4-0.5 3.2-1.4 0.8-0.8 1.4-2 1.4-3.2v-6.5l5.2-3.4 6-0.5c0.3-0.1 0.7-0.2 1-0.4l6.6-4.2c1.2-0.7 1.6-2.2 0.9-3.4zm-21.8 18.4c0 0.6-0.2 1.2-0.7 1.8-0.4 0.4-1 0.7-1.8 0.7h-19.6c-1.4 0-2.5-1.1-2.5-2.5v-6h24.6v6zm19.9-16.7l-6.6 4.2c-0.1 0.1-0.2 0.1-0.2 0.1l-2.1 0.2 8.2-5.3c0.1-0.1 0.2-0.1 0.3-0.1h0.2s0.2 0 0.3 0.2c0.3 0.2 0.2 0.6-0.1 0.7z"/>	<path d="m304.6 506.6c0.6 0 1 0.5 1 1v4c0 0.6-0.5 1-1 1-0.6 0-1-0.5-1-1v-4c0-0.5 0.4-1 1-1z"/>	<path d="m298.8 504.7c0.6 0 1 0.5 1 1v5.8c0 0.6-0.5 1-1 1-0.6 0-1-0.5-1-1v-5.8c-0.1-0.5 0.4-1 1-1z"/>	<path d="m293 506.6c0.6 0 1 0.5 1 1v4c0 0.6-0.5 1-1 1-0.6 0-1-0.5-1-1v-4c0-0.5 0.5-1 1-1z"/></g></svg>
    <svg xmlns:xlink="http://www.w3.org/1999/xlink" id="miscellaneousactive" xml:space="preserve" viewBox="282.2 493.1 53.3 43.6" version="1.1" y="660" x="0px" enable-background="new 282.2 493.1 53.3 43.6" width="55" height="55"><g stroke="#F1F2F2" stroke-width=".5" stroke-miterlimit="10" fill="#EE5B31">	<path d="m332.9 504.1c-0.4-0.6-0.9-1-1.7-1.2-0.6-0.2-1.4-0.1-2 0.3l-17.4 11.2h-26.5c-0.3 0-0.5 0.1-0.7 0.3s-0.3 0.4-0.3 0.7v7.1c0 2.5 2.1 4.6 4.6 4.6h19.7c1.1 0 2.4-0.5 3.2-1.4 0.8-0.8 1.4-2 1.4-3.2v-6.5l5.2-3.4 6-0.5c0.3-0.1 0.7-0.2 1-0.4l6.6-4.2c1.2-0.7 1.6-2.2 0.9-3.4zm-21.8 18.4c0 0.6-0.2 1.2-0.7 1.8-0.4 0.4-1 0.7-1.8 0.7h-19.6c-1.4 0-2.5-1.1-2.5-2.5v-6h24.6v6zm19.9-16.7l-6.6 4.2c-0.1 0.1-0.2 0.1-0.2 0.1l-2.1 0.2 8.2-5.3c0.1-0.1 0.2-0.1 0.3-0.1h0.2s0.2 0 0.3 0.2c0.3 0.2 0.2 0.6-0.1 0.7z"/>	<path d="m304.6 506.6c0.6 0 1 0.5 1 1v4c0 0.6-0.5 1-1 1-0.6 0-1-0.5-1-1v-4c0-0.5 0.4-1 1-1z"/>	<path d="m298.8 504.7c0.6 0 1 0.5 1 1v5.8c0 0.6-0.5 1-1 1-0.6 0-1-0.5-1-1v-5.8c-0.1-0.5 0.4-1 1-1z"/>	<path d="m293 506.6c0.6 0 1 0.5 1 1v4c0 0.6-0.5 1-1 1-0.6 0-1-0.5-1-1v-4c0-0.5 0.5-1 1-1z"/></g></svg>
    <svg xmlns:xlink="http://www.w3.org/1999/xlink" id="rice" xml:space="preserve" viewBox="282.2 493.1 53.3 43.6" version="1.1" y="715" x="0px" enable-background="new 282.2 493.1 53.3 43.6" width="55" height="55"><path d="m308.8 499.8c-1 0-1.8 0.3-2.5 0.7-0.6 0.4-1.1 1-1.6 1.7-1 1.3-1.9 2.8-3.9 3.9h-1.5c-1.6 0-2.8 1.3-2.8 2.8 0 1 0.6 1.9 1.4 2.4-0.7 1.7-1 3.5-1 5 0 2.1 0.5 3.9 0.9 5.4s0.7 2.8 0.5 3.7c-0.2 0.6-0.4 0.8-0.6 1-0.2 0.1-0.5 0.2-0.8 0.2-0.3 0.1-0.7 0.2-1 0.6s-0.4 0.9-0.4 1.8c0 0.2 0.1 0.3 0.3 0.3 1.9 0.5 3.9 0.7 5.7 0.7 1.9 0 3.9-0.4 5.7-0.9 0.5-0.2 1.1-0.3 1.6-0.5 2.2 0.7 4.6 1.4 7.5 1.4 1.8 0 3.9-0.3 5.7-0.7 0.2 0 0.3-0.2 0.3-0.3 0-0.9-0.1-1.4-0.4-1.8s-0.7-0.5-1-0.6c-0.3-0.1-0.6-0.1-0.8-0.2s-0.4-0.4-0.6-1c-0.2-0.9 0.1-2.2 0.5-3.7s0.9-3.3 0.9-5.4c0-0.9-0.1-1.9-0.4-2.9 0-0.2-0.2-0.3-0.4-0.3s-0.3 0.2-0.3 0.4c0.2 1 0.4 2 0.4 2.7 0 2-0.5 3.7-0.9 5.2s-0.8 2.8-0.5 4c0.2 0.7 0.5 1.1 0.9 1.4s0.8 0.3 1.1 0.3c0.3 0.1 0.5 0.1 0.6 0.3s0.2 0.5 0.3 1.1c-1.7 0.4-3.6 0.6-5.3 0.6-2.4 0-4.5-0.5-6.5-1.1 0.7-0.3 1.3-0.7 1.8-1 0.2-0.1 0.2-0.3 0.1-0.5s-0.3-0.2-0.5-0.1c-0.8 0.6-2.3 1.3-4.1 1.9-1.8 0.5-3.8 0.9-5.5 0.9-1.6 0-3.5-0.2-5.3-0.6 0-0.6 0.1-1 0.3-1.1 0.1-0.2 0.3-0.2 0.6-0.3s0.7-0.1 1.1-0.3 0.7-0.7 0.9-1.4c0.3-1.2-0.1-2.5-0.5-4s-0.9-3.2-0.9-5.2c0-1.3 0.3-3.1 1-4.7 0.2 0.1 0.5 0.1 0.8 0.1 4.3 0 6.6-1.2 9.4-1.9h0.1c0.8 0.2 1.7 0.5 2.5 0.7 1.9 0.6 4 1.3 7.1 1.3 1.6 0 2.8-1.3 2.8-2.8 0-1.6-1.3-2.8-2.8-2.8h-1.5c-2-1.1-2.9-2.6-3.9-3.9-0.5-0.6-1-1.2-1.6-1.7-1.1-0.5-1.9-0.8-3-0.8zm0 0.7c0.9 0 1.5 0.2 2.1 0.6 0.5 0.4 1 0.9 1.5 1.5 0.8 1.1 1.7 2.4 3.2 3.5h-13.4c1.5-1.1 2.4-2.4 3.2-3.5 0.5-0.6 0.9-1.2 1.5-1.5s1-0.6 1.9-0.6zm-9.5 6.3h19c1.2 0 2.1 0.9 2.1 2.1s-0.9 2.1-2.1 2.1c-2.9 0-4.9-0.6-6.8-1.2s-3.8-1.3-6.5-1.3c-0.2 0-0.4 0.2-0.4 0.3s0.2 0.4 0.3 0.4c0.9 0 1.6 0.1 2.4 0.2-2.3 0.7-4.5 1.6-8 1.6-1.2 0-2.1-0.9-2.1-2.1s1-2.1 2.1-2.1z" fill="#404041"/></svg>
    <svg xmlns:xlink="http://www.w3.org/1999/xlink" id="riceactive" xml:space="preserve" viewBox="282.2 493.1 53.3 43.6" version="1.1" y="770" x="0px" enable-background="new 282.2 493.1 53.3 43.6" width="55" height="55"><path d="m308.8 499.8c-1 0-1.8 0.3-2.5 0.7-0.6 0.4-1.1 1-1.6 1.7-1 1.3-1.9 2.8-3.9 3.9h-1.5c-1.6 0-2.8 1.3-2.8 2.8 0 1 0.6 1.9 1.4 2.4-0.7 1.7-1 3.5-1 5 0 2.1 0.5 3.9 0.9 5.4s0.7 2.8 0.5 3.7c-0.2 0.6-0.4 0.8-0.6 1-0.2 0.1-0.5 0.2-0.8 0.2-0.3 0.1-0.7 0.2-1 0.6s-0.4 0.9-0.4 1.8c0 0.2 0.1 0.3 0.3 0.3 1.9 0.5 3.9 0.7 5.7 0.7 1.9 0 3.9-0.4 5.7-0.9 0.5-0.2 1.1-0.3 1.6-0.5 2.2 0.7 4.6 1.4 7.5 1.4 1.8 0 3.9-0.3 5.7-0.7 0.2 0 0.3-0.2 0.3-0.3 0-0.9-0.1-1.4-0.4-1.8s-0.7-0.5-1-0.6c-0.3-0.1-0.6-0.1-0.8-0.2s-0.4-0.4-0.6-1c-0.2-0.9 0.1-2.2 0.5-3.7s0.9-3.3 0.9-5.4c0-0.9-0.1-1.9-0.4-2.9 0-0.2-0.2-0.3-0.4-0.3s-0.3 0.2-0.3 0.4c0.2 1 0.4 2 0.4 2.7 0 2-0.5 3.7-0.9 5.2s-0.8 2.8-0.5 4c0.2 0.7 0.5 1.1 0.9 1.4s0.8 0.3 1.1 0.3c0.3 0.1 0.5 0.1 0.6 0.3s0.2 0.5 0.3 1.1c-1.7 0.4-3.6 0.6-5.3 0.6-2.4 0-4.5-0.5-6.5-1.1 0.7-0.3 1.3-0.7 1.8-1 0.2-0.1 0.2-0.3 0.1-0.5s-0.3-0.2-0.5-0.1c-0.8 0.6-2.3 1.3-4.1 1.9-1.8 0.5-3.8 0.9-5.5 0.9-1.6 0-3.5-0.2-5.3-0.6 0-0.6 0.1-1 0.3-1.1 0.1-0.2 0.3-0.2 0.6-0.3s0.7-0.1 1.1-0.3 0.7-0.7 0.9-1.4c0.3-1.2-0.1-2.5-0.5-4s-0.9-3.2-0.9-5.2c0-1.3 0.3-3.1 1-4.7 0.2 0.1 0.5 0.1 0.8 0.1 4.3 0 6.6-1.2 9.4-1.9h0.1c0.8 0.2 1.7 0.5 2.5 0.7 1.9 0.6 4 1.3 7.1 1.3 1.6 0 2.8-1.3 2.8-2.8 0-1.6-1.3-2.8-2.8-2.8h-1.5c-2-1.1-2.9-2.6-3.9-3.9-0.5-0.6-1-1.2-1.6-1.7-1.1-0.5-1.9-0.8-3-0.8zm0 0.7c0.9 0 1.5 0.2 2.1 0.6 0.5 0.4 1 0.9 1.5 1.5 0.8 1.1 1.7 2.4 3.2 3.5h-13.4c1.5-1.1 2.4-2.4 3.2-3.5 0.5-0.6 0.9-1.2 1.5-1.5s1-0.6 1.9-0.6zm-9.5 6.3h19c1.2 0 2.1 0.9 2.1 2.1s-0.9 2.1-2.1 2.1c-2.9 0-4.9-0.6-6.8-1.2s-3.8-1.3-6.5-1.3c-0.2 0-0.4 0.2-0.4 0.3s0.2 0.4 0.3 0.4c0.9 0 1.6 0.1 2.4 0.2-2.3 0.7-4.5 1.6-8 1.6-1.2 0-2.1-0.9-2.1-2.1s1-2.1 2.1-2.1z" fill="#EE5B31"/></svg>
    <svg xmlns:xlink="http://www.w3.org/1999/xlink" id="snacks" xml:space="preserve" viewBox="282.2 493.1 53.3 43.6" version="1.1" y="825" x="0px" enable-background="new 282.2 493.1 53.3 43.6" width="55" height="55"><g stroke-width=".75" stroke-miterlimit="10">	<path stroke="#F1F2F2" d="m319.3 509.5l-0.3-0.3c-0.2-0.3-1.6-1.8-2-2.2-0.7-0.8-1.3-1.4-1.8-2-2.2-2.4-2.3-2.4-3.2-2.2-1 0.3-1.4 1.3-2.7 6.5-0.4-1.6-1.1-3.3-2-5.1l-0.2-0.4c-0.2-0.3-1.1-2.2-1.3-2.7-0.5-1-0.9-1.7-1.2-2.3-1.5-2.8-1.6-2.9-2.5-2.9-1.1 0-1.7 1-4.8 6.4-1.7 3-3.6 6.6-4.6 8.6-0.5 1-1.4 2.3-3.2 4.7-0.1 0.1-0.1 0.1-0.2 0.3-2.2 2.9-2.7 3.6-3.4 4.7-0.5 0.8-0.8 1.4-0.8 2-0.1 0.5 0.1 1 0.3 1.4 0.5 0.1 13.2-1.4 20.6-1.2-0.3 0.7-0.6 1.5-1 2.4-0.1 0.2-0.1 0.2-0.1 0.3-1.4 3.4-1.7 4.2-2 5.4-0.3 0.9-0.4 1.6-0.3 2.1s0.3 1 0.7 1.2c0.5-0.1 8.1-3.3 15.2-4.9 7.4-1.6 14.1-1.7 14.5-3.2 0.4-2.7-5.5-7.3-13.7-16.6zm-19.9 10.4c-0.9 0-1.8 0.2-6.4 1-0.2 0-0.2 0-0.4 0.1-2.2 0.4-3.7 0.6-4.7 0.8 0.6-1 1.1-1.7 3.2-4.4 0.1-0.1 0.1-0.1 0.2-0.3 1.9-2.5 2.8-3.9 3.5-5.1 1-2 2.9-5.6 4.6-8.5 0.9-1.6 1.7-3 2.3-4 0.1-0.1 0.1-0.1 0.1-0.2 0.1 0.2 0.2 0.4 0.4 0.7 0.3 0.6 0.7 1.3 1.2 2.3 0.3 0.5 1.2 2.3 1.3 2.7l0.2 0.4c1.8 3.6 2.9 5.5 3.6 6.5v0.4c-0.7 2.8-1.4 5.7-1.7 7.5-0.1 0.3-0.2 0.7-0.3 1.2-5.1-0.9-6.2-1.1-7.1-1.1zm24 5.9h-0.4c-5.3 0.6-6.4 0.7-7.3 0.9s-1.7 0.6-5.9 2.6l-0.4 0.2c-2 0.9-3.4 1.6-4.4 2 0.3-1.1 0.6-1.9 2-5.1 0.1-0.2 0.1-0.2 0.1-0.3 1.2-2.9 1.8-4.5 2-5.8 0.5-2.2 1.4-6.2 2.2-9.4 0.5-1.8 0.9-3.3 1.2-4.4 0-0.1 0.1-0.2 0.1-0.2 0.2 0.2 0.3 0.4 0.5 0.6 0.5 0.5 1 1.1 1.7 1.9 0.4 0.4 1.7 2 2 2.2l0.3 0.3c2.7 3 4.2 4.6 5.2 5.4 1.3 1 3.7 3.5 5.4 5.6 0.9 1.2 1.6 2.2 1.9 2.9-0.9 0-2.9 0.2-6.2 0.6z" fill="#404041"/>	<path d="m321 516.6s1.7 5.5-7.8 8.3" stroke="#414042" stroke-linecap="round" fill="none"/></g></svg>
    <svg xmlns:xlink="http://www.w3.org/1999/xlink" id="snacksactive" xml:space="preserve" viewBox="282.2 493.1 53.3 43.6" version="1.1" y="880" x="0px" enable-background="new 282.2 493.1 53.3 43.6" width="55" height="55"><g stroke-miterlimit="10">	<path stroke="#F1F2F2" stroke-width=".75" d="m319.3 509.5l-0.3-0.3c-0.2-0.3-1.6-1.8-2-2.2-0.7-0.8-1.3-1.4-1.8-2-2.2-2.4-2.3-2.4-3.2-2.2-1 0.3-1.4 1.3-2.7 6.5-0.4-1.6-1.1-3.3-2-5.1l-0.2-0.4c-0.2-0.3-1.1-2.2-1.3-2.7-0.5-1-0.9-1.7-1.2-2.3-1.5-2.8-1.6-2.9-2.5-2.9-1.1 0-1.7 1-4.8 6.4-1.7 3-3.6 6.6-4.6 8.6-0.5 1-1.4 2.3-3.2 4.7-0.1 0.1-0.1 0.1-0.2 0.3-2.2 2.9-2.7 3.6-3.4 4.7-0.5 0.8-0.8 1.4-0.8 2-0.1 0.5 0.1 1 0.3 1.4 0.5 0.1 13.2-1.4 20.6-1.2-0.3 0.7-0.6 1.5-1 2.4-0.1 0.2-0.1 0.2-0.1 0.3-1.4 3.4-1.7 4.2-2 5.4-0.3 0.9-0.4 1.6-0.3 2.1s0.3 1 0.7 1.2c0.5-0.1 8.1-3.3 15.2-4.9 7.4-1.6 14.1-1.7 14.5-3.2 0.4-2.7-5.5-7.3-13.7-16.6zm-19.9 10.4c-0.9 0-1.8 0.2-6.4 1-0.2 0-0.2 0-0.4 0.1-2.2 0.4-3.7 0.6-4.7 0.8 0.6-1 1.1-1.7 3.2-4.4 0.1-0.1 0.1-0.1 0.2-0.3 1.9-2.5 2.8-3.9 3.5-5.1 1-2 2.9-5.6 4.6-8.5 0.9-1.6 1.7-3 2.3-4 0.1-0.1 0.1-0.1 0.1-0.2 0.1 0.2 0.2 0.4 0.4 0.7 0.3 0.6 0.7 1.3 1.2 2.3 0.3 0.5 1.2 2.3 1.3 2.7l0.2 0.4c1.8 3.6 2.9 5.5 3.6 6.5v0.4c-0.7 2.8-1.4 5.7-1.7 7.5-0.1 0.3-0.2 0.7-0.3 1.2-5.1-0.9-6.2-1.1-7.1-1.1zm24 5.9h-0.4c-5.3 0.6-6.4 0.7-7.3 0.9s-1.7 0.6-5.9 2.6l-0.4 0.2c-2 0.9-3.4 1.6-4.4 2 0.3-1.1 0.6-1.9 2-5.1 0.1-0.2 0.1-0.2 0.1-0.3 1.2-2.9 1.8-4.5 2-5.8 0.5-2.2 1.4-6.2 2.2-9.4 0.5-1.8 0.9-3.3 1.2-4.4 0-0.1 0.1-0.2 0.1-0.2 0.2 0.2 0.3 0.4 0.5 0.6 0.5 0.5 1 1.1 1.7 1.9 0.4 0.4 1.7 2 2 2.2l0.3 0.3c2.7 3 4.2 4.6 5.2 5.4 1.3 1 3.7 3.5 5.4 5.6 0.9 1.2 1.6 2.2 1.9 2.9-0.9 0-2.9 0.2-6.2 0.6z" fill="#EE5B31"/>	<path stroke="#EE5B31" d="m321 516.6s1.7 5.5-7.8 8.3" fill="none"/></g></svg>
    <svg xmlns:xlink="http://www.w3.org/1999/xlink" id="sweets" xml:space="preserve" viewBox="282.2 493.1 53.3 43.6" version="1.1" y="935" x="0px" enable-background="new 282.2 493.1 53.3 43.6" width="55" height="55">			<path d="m297.6 531.1c-3.4 0-6.1-2.7-6.1-6.1s2.7-6.1 6.1-6.1 6.1 2.7 6.1 6.1-2.7 6.1-6.1 6.1zm0-11.2c-2.8 0-5.1 2.3-5.1 5.1s2.3 5.1 5.1 5.1 5.1-2.3 5.1-5.1-2.3-5.1-5.1-5.1z" fill="#404041"/>			<path d="m308.8 531.1c-3.4 0-6.1-2.7-6.1-6.1s2.7-6.1 6.1-6.1 6.1 2.7 6.1 6.1-2.7 6.1-6.1 6.1zm0-11.2c-2.8 0-5.1 2.3-5.1 5.1s2.3 5.1 5.1 5.1 5.1-2.3 5.1-5.1-2.2-5.1-5.1-5.1z" fill="#404041"/>			<path d="m320.1 531.1c-3.4 0-6.1-2.7-6.1-6.1s2.7-6.1 6.1-6.1 6.1 2.7 6.1 6.1-2.7 6.1-6.1 6.1zm0-11.2c-2.8 0-5.1 2.3-5.1 5.1s2.3 5.1 5.1 5.1 5.1-2.3 5.1-5.1-2.3-5.1-5.1-5.1z" fill="#404041"/>			<path d="m314.3 521.2c-3.4 0-6.1-2.7-6.1-6.1s2.7-6.1 6.1-6.1 6.1 2.7 6.1 6.1-2.8 6.1-6.1 6.1zm0-11.2c-2.8 0-5.1 2.3-5.1 5.1s2.3 5.1 5.1 5.1 5.1-2.3 5.1-5.1-2.3-5.1-5.1-5.1z" fill="#404041"/>			<path d="m308.6 511c-3.4 0-6.1-2.7-6.1-6.1s2.7-6.1 6.1-6.1 6.1 2.7 6.1 6.1-2.7 6.1-6.1 6.1zm0-11.3c-2.8 0-5.1 2.3-5.1 5.1s2.3 5.1 5.1 5.1 5.1-2.3 5.1-5.1-2.2-5.1-5.1-5.1z" fill="#404041"/>			<path d="m303 521.2c-3.4 0-6.1-2.7-6.1-6.1s2.7-6.1 6.1-6.1 6.1 2.7 6.1 6.1-2.7 6.1-6.1 6.1zm0-11.2c-2.8 0-5.1 2.3-5.1 5.1s2.3 5.1 5.1 5.1 5.1-2.3 5.1-5.1-2.3-5.1-5.1-5.1z" fill="#404041"/>		<path d="m294.7 524.4c-0.2 0-0.4-0.2-0.5-0.4-0.1-0.6 0-1.2 0.3-1.6 0.6-0.8 1.6-1 1.8-1 0.3 0 0.5 0.1 0.6 0.4 0 0.3-0.1 0.5-0.4 0.6 0 0-0.7 0.1-1.1 0.6-0.2 0.2-0.2 0.5-0.1 0.9-0.1 0.2-0.3 0.5-0.6 0.5z" fill="#404041"/>		<path d="m305.7 524.4c-0.2 0-0.4-0.2-0.5-0.4-0.1-0.6 0-1.2 0.3-1.6 0.6-0.8 1.6-1 1.8-1 0.3 0 0.5 0.1 0.6 0.4 0 0.3-0.1 0.5-0.4 0.6 0 0-0.7 0.1-1.1 0.6-0.2 0.2-0.2 0.5-0.1 0.9-0.1 0.2-0.2 0.5-0.6 0.5 0.1 0 0 0 0 0z" fill="#404041"/>		<path d="m300 514.8c-0.2 0-0.4-0.2-0.5-0.4-0.1-0.6 0-1.2 0.3-1.6 0.6-0.8 1.6-1 1.8-1 0.3 0 0.5 0.1 0.6 0.4 0 0.3-0.1 0.5-0.4 0.6 0 0-0.7 0.1-1.1 0.6-0.2 0.2-0.2 0.5-0.1 0.9-0.1 0.1-0.3 0.4-0.6 0.5v0z" fill="#404041"/>		<path d="m311.5 514.8c-0.2 0-0.4-0.2-0.5-0.4-0.1-0.6 0-1.2 0.3-1.6 0.6-0.8 1.6-1 1.8-1 0.3 0 0.5 0.1 0.6 0.4 0 0.3-0.1 0.5-0.4 0.6 0 0-0.7 0.1-1.1 0.6-0.2 0.2-0.2 0.5-0.1 0.9-0.1 0.1-0.3 0.4-0.6 0.5v0z" fill="#404041"/>		<path d="m305.7 504.4c-0.2 0-0.4-0.2-0.5-0.4-0.1-0.6 0-1.2 0.3-1.6 0.6-0.8 1.6-1 1.8-1 0.3 0 0.5 0.1 0.6 0.4 0 0.3-0.1 0.5-0.4 0.6 0 0-0.7 0.1-1.1 0.6-0.2 0.2-0.2 0.5-0.1 0.9-0.1 0.2-0.2 0.4-0.6 0.5 0.1 0 0 0 0 0z" fill="#404041"/>		<path d="m317 524.4c-0.2 0-0.4-0.2-0.5-0.4-0.1-0.6 0-1.2 0.3-1.6 0.6-0.8 1.6-1 1.8-1 0.3 0 0.5 0.1 0.6 0.4 0 0.3-0.1 0.5-0.4 0.6 0 0-0.7 0.1-1.1 0.6-0.2 0.2-0.2 0.5-0.1 0.9 0 0.2-0.2 0.5-0.6 0.5 0.1 0 0.1 0 0 0z" fill="#404041"/></svg>
    <svg xmlns:xlink="http://www.w3.org/1999/xlink" id="sweetsactive" xml:space="preserve" viewBox="282.2 493.1 53.3 43.6" version="1.1" y="990" x="0px" enable-background="new 282.2 493.1 53.3 43.6" width="55" height="55">			<path d="m297.6 531.1c-3.4 0-6.1-2.7-6.1-6.1s2.7-6.1 6.1-6.1 6.1 2.7 6.1 6.1-2.7 6.1-6.1 6.1zm0-11.2c-2.8 0-5.1 2.3-5.1 5.1s2.3 5.1 5.1 5.1 5.1-2.3 5.1-5.1-2.3-5.1-5.1-5.1z" fill="#EE5B31"/>			<path d="m308.8 531.1c-3.4 0-6.1-2.7-6.1-6.1s2.7-6.1 6.1-6.1 6.1 2.7 6.1 6.1-2.7 6.1-6.1 6.1zm0-11.2c-2.8 0-5.1 2.3-5.1 5.1s2.3 5.1 5.1 5.1 5.1-2.3 5.1-5.1-2.2-5.1-5.1-5.1z" fill="#EE5B31"/>			<path d="m320.1 531.1c-3.4 0-6.1-2.7-6.1-6.1s2.7-6.1 6.1-6.1 6.1 2.7 6.1 6.1-2.7 6.1-6.1 6.1zm0-11.2c-2.8 0-5.1 2.3-5.1 5.1s2.3 5.1 5.1 5.1 5.1-2.3 5.1-5.1-2.3-5.1-5.1-5.1z" fill="#EE5B31"/>			<path d="m314.3 521.2c-3.4 0-6.1-2.7-6.1-6.1s2.7-6.1 6.1-6.1 6.1 2.7 6.1 6.1-2.8 6.1-6.1 6.1zm0-11.2c-2.8 0-5.1 2.3-5.1 5.1s2.3 5.1 5.1 5.1 5.1-2.3 5.1-5.1-2.3-5.1-5.1-5.1z" fill="#EE5B31"/>			<path d="m308.6 511c-3.4 0-6.1-2.7-6.1-6.1s2.7-6.1 6.1-6.1 6.1 2.7 6.1 6.1-2.7 6.1-6.1 6.1zm0-11.3c-2.8 0-5.1 2.3-5.1 5.1s2.3 5.1 5.1 5.1 5.1-2.3 5.1-5.1-2.2-5.1-5.1-5.1z" fill="#EE5B31"/>			<path d="m303 521.2c-3.4 0-6.1-2.7-6.1-6.1s2.7-6.1 6.1-6.1 6.1 2.7 6.1 6.1-2.7 6.1-6.1 6.1zm0-11.2c-2.8 0-5.1 2.3-5.1 5.1s2.3 5.1 5.1 5.1 5.1-2.3 5.1-5.1-2.3-5.1-5.1-5.1z" fill="#EE5B31"/>		<path d="m294.7 524.4c-0.2 0-0.4-0.2-0.5-0.4-0.1-0.6 0-1.2 0.3-1.6 0.6-0.8 1.6-1 1.8-1 0.3 0 0.5 0.1 0.6 0.4 0 0.3-0.1 0.5-0.4 0.6 0 0-0.7 0.1-1.1 0.6-0.2 0.2-0.2 0.5-0.1 0.9-0.1 0.2-0.3 0.5-0.6 0.5z" fill="#EE5B31"/>		<path d="m305.7 524.4c-0.2 0-0.4-0.2-0.5-0.4-0.1-0.6 0-1.2 0.3-1.6 0.6-0.8 1.6-1 1.8-1 0.3 0 0.5 0.1 0.6 0.4 0 0.3-0.1 0.5-0.4 0.6 0 0-0.7 0.1-1.1 0.6-0.2 0.2-0.2 0.5-0.1 0.9-0.1 0.2-0.2 0.5-0.6 0.5 0.1 0 0 0 0 0z" fill="#EE5B31"/>		<path d="m300 514.8c-0.2 0-0.4-0.2-0.5-0.4-0.1-0.6 0-1.2 0.3-1.6 0.6-0.8 1.6-1 1.8-1 0.3 0 0.5 0.1 0.6 0.4 0 0.3-0.1 0.5-0.4 0.6 0 0-0.7 0.1-1.1 0.6-0.2 0.2-0.2 0.5-0.1 0.9-0.1 0.1-0.3 0.4-0.6 0.5v0z" fill="#EE5B31"/>		<path d="m311.5 514.8c-0.2 0-0.4-0.2-0.5-0.4-0.1-0.6 0-1.2 0.3-1.6 0.6-0.8 1.6-1 1.8-1 0.3 0 0.5 0.1 0.6 0.4 0 0.3-0.1 0.5-0.4 0.6 0 0-0.7 0.1-1.1 0.6-0.2 0.2-0.2 0.5-0.1 0.9-0.1 0.1-0.3 0.4-0.6 0.5v0z" fill="#EE5B31"/>		<path d="m305.7 504.4c-0.2 0-0.4-0.2-0.5-0.4-0.1-0.6 0-1.2 0.3-1.6 0.6-0.8 1.6-1 1.8-1 0.3 0 0.5 0.1 0.6 0.4 0 0.3-0.1 0.5-0.4 0.6 0 0-0.7 0.1-1.1 0.6-0.2 0.2-0.2 0.5-0.1 0.9-0.1 0.2-0.2 0.4-0.6 0.5 0.1 0 0 0 0 0z" fill="#EE5B31"/>		<path d="m317 524.4c-0.2 0-0.4-0.2-0.5-0.4-0.1-0.6 0-1.2 0.3-1.6 0.6-0.8 1.6-1 1.8-1 0.3 0 0.5 0.1 0.6 0.4 0 0.3-0.1 0.5-0.4 0.6 0 0-0.7 0.1-1.1 0.6-0.2 0.2-0.2 0.5-0.1 0.9 0 0.2-0.2 0.5-0.6 0.5 0.1 0 0.1 0 0 0z" fill="#EE5B31"/></svg>
</svg>
