<svg id="shoppingBagColor" xmlns="http://www.w3.org/2000/svg" xmlns:xlink="http://www.w3.org/1999/xlink" x="0px" y="0px" viewBox="0 0 42 48" style="enable-background:new 0 0 42 48;fill:#ED5B31;" xml:space="preserve">
    <path d="M39.8,46.7C39.8,46.7,39.8,46.7,39.8,46.7H2.2c-0.1,0-0.3-0.1-0.4-0.2c-0.1-0.1-0.2-0.2-0.1-0.4L3,14c0-0.3,0.2-0.5,0.5-0.5h34.7c0.3,0,0.5,0.2,0.5,0.5l1.5,32c0,0.1,0,0.1,0,0.2C40.3,46.4,40.1,46.7,39.8,46.7z M2.7,45.6h36.5l-1.5-31.1H4L2.7,45.6z"/>
    <path d="M39.8,46.9l-37.6,0c-0.2,0-0.4-0.1-0.6-0.2c-0.1-0.2-0.2-0.4-0.2-0.6L2.7,14c0-0.4,0.4-0.8,0.8-0.8h34.7c0.4,0,0.8,0.3,0.8,0.7l1.5,31.9c0,0.1,0,0.1,0,0.2C40.6,46.6,40.2,46.9,39.8,46.9L39.8,46.9zM3.5,13.7c-0.2,0-0.3,0.1-0.3,0.3L1.9,46.1c0,0.1,0,0.2,0.1,0.2c0.1,0.1,0.1,0.1,0.2,0.1l37.6,0c0.2,0,0.3-0.1,0.3-0.3c0,0,0-0.1,0-0.1l0-0.1l-1.5-32c0-0.2-0.1-0.3-0.3-0.3H3.5z M39.5,45.8h-37l0-0.3l1.3-31.3H38l0,0.2L39.5,45.8z M3,45.3h36l-1.5-30.6H4.3L3,45.3z"/>
    <path d="M38.2,14.5c-0.1,0-0.3-0.1-0.4-0.2l-2.6-2.7H6.6l-2.7,2.8c-0.2,0.2-0.5,0.2-0.8,0c-0.2-0.2-0.2-0.5,0-0.8L6,10.7c0.1-0.1,0.2-0.2,0.4-0.2h29.2c0.1,0,0.3,0.1,0.4,0.2l2.7,2.9c0.2,0.2,0.2,0.6,0,0.8C38.5,14.5,38.4,14.5,38.2,14.5z"/>
    <path d="M3.5,14.8c-0.2,0-0.4-0.1-0.5-0.2c-0.2-0.1-0.2-0.3-0.2-0.6c0-0.2,0.1-0.4,0.2-0.6l2.9-2.9c0.1-0.2,0.4-0.2,0.6-0.2h29.1c0.2,0,0.4,0.1,0.6,0.2l2.7,2.9C39,13.6,39,13.8,39,14c0,0.2-0.1,0.4-0.2,0.5c-0.3,0.3-0.8,0.3-1.1,0l-2.5-2.7H6.7l-2.6,2.7C3.9,14.7,3.7,14.8,3.5,14.8z M6.4,10.8c-0.1,0-0.1,0-0.2,0.1l-2.9,2.9c-0.1,0.1-0.1,0.1-0.1,0.2c0,0.1,0,0.1,0.1,0.2c0.1,0.1,0.3,0.1,0.4,0l2.8-2.8h28.9l2.7,2.8c0.1,0.1,0.3,0.1,0.4,0c0.1-0.1,0.1-0.1,0.1-0.2c0-0.1,0-0.1-0.1-0.2l-2.7-2.9c-0.1-0.1-0.1-0.1-0.2-0.1H6.4z"/>
    <path d="M14.8,11.1c-0.3,0-0.5-0.2-0.5-0.5V7.2c0-0.1,0.6-5.8,6.8-5.9c0.3,0,0.5,0.2,0.5,0.5c0,0.3-0.2,0.5-0.5,0.5c-5.3,0.1-5.8,4.7-5.8,4.9l0,3.3C15.3,10.9,15.1,11.1,14.8,11.1z"/>
    <path d="M14.8,11.3c-0.4,0-0.8-0.4-0.8-0.8V7.2c0-0.1,0.6-6,7.1-6.1c0.5,0,0.8,0.3,0.8,0.8c0,0.4-0.3,0.8-0.8,0.8c-5,0.1-5.5,4.5-5.6,4.6l0,3.3C15.6,11,15.2,11.3,14.8,11.3z M21.1,1.6c-6,0.1-6.6,5.6-6.6,5.7v3.3c0,0.2,0.1,0.3,0.3,0.3c0.2,0,0.3-0.1,0.3-0.3l0-3.3c0-0.2,0.6-5,6-5.1c0.2,0,0.3-0.1,0.3-0.3C21.4,1.7,21.3,1.6,21.1,1.6z"/>
    <path d="M27.2,11.1c-0.3,0-0.5-0.2-0.5-0.5V7.2c0-0.1-0.5-4.7-5.8-4.8c-0.3,0-0.5-0.3-0.5-0.5c0-0.3,0.2-0.5,0.5-0.5c6.2,0.1,6.8,5.8,6.8,5.8l0,3.4C27.7,10.9,27.5,11.1,27.2,11.1z"/>
    <path d="M27.2,11.3c-0.4,0-0.8-0.4-0.8-0.8V7.2c-0.1-0.4-0.7-4.5-5.6-4.6c-0.4,0-0.8-0.4-0.8-0.8c0-0.4,0.3-0.8,0.8-0.8c6.4,0.1,7.1,6,7.1,6.1l0,3.4C28,11,27.6,11.3,27.2,11.3z M20.9,1.6c-0.2,0-0.3,0.1-0.3,0.3c0,0.2,0.1,0.3,0.3,0.3c5.3,0.1,6,4.5,6,5l0,3.4c0,0.2,0.1,0.3,0.3,0.3c0.2,0,0.3-0.1,0.3-0.3l0-3.4C27.4,7,26.8,1.7,20.9,1.6z"/>
    <path d="M20.9,32.8c-0.3,0-0.5-0.2-0.5-0.5c0-0.3,0.2-0.5,0.5-0.5c5.3-0.1,5.8-4.7,5.8-4.9l0-6.8c0-0.3,0.2-0.5,0.5-0.5s0.5,0.2,0.5,0.5v6.9C27.7,27.1,27.1,32.7,20.9,32.8L20.9,32.8z"/>
    <path d="M20.9,33.1L20.9,33.1c-0.4,0-0.8-0.3-0.8-0.8c0-0.4,0.3-0.8,0.8-0.8c5-0.1,5.5-4.5,5.6-4.6l0-6.8c0-0.4,0.4-0.8,0.8-0.8c0.4,0,0.8,0.4,0.8,0.8v6.9C28,27,27.4,33,20.9,33.1L20.9,33.1zM27.2,19.8c-0.2,0-0.3,0.1-0.3,0.3l0,6.8c0,0.2-0.6,5-6,5.1c-0.2,0-0.3,0.1-0.3,0.3c0,0.2,0.1,0.3,0.3,0.3l0,0.3l0-0.3c6.1-0.1,6.6-5.6,6.6-5.7v-6.8C27.5,19.9,27.3,19.8,27.2,19.8z"/>
    <path d="M21.1,32.8L21.1,32.8c-6.2-0.1-6.8-5.8-6.9-5.8l0-6.9c0-0.3,0.2-0.5,0.5-0.5c0.3,0,0.5,0.2,0.5,0.5v6.9c0,0.1,0.5,4.7,5.8,4.8c0.3,0,0.5,0.3,0.5,0.5C21.7,32.6,21.4,32.8,21.1,32.8z"/>
    <path d="M21.1,33.1L21.1,33.1C14.7,33,14,27.1,14,27l0-6.9c0-0.4,0.4-0.8,0.8-0.8s0.8,0.4,0.8,0.8v6.9c0.1,0.4,0.7,4.5,5.6,4.6c0.4,0,0.8,0.4,0.8,0.8C21.9,32.7,21.6,33.1,21.1,33.1z M14.8,19.8c-0.2,0-0.3,0.1-0.3,0.3l0,6.9c0,0.2,0.6,5.5,6.6,5.6l0,0.3v-0.3c0.2,0,0.3-0.1,0.3-0.3c0-0.2-0.1-0.3-0.3-0.3c-5.3-0.1-6-4.5-6-5l0-6.9C15.1,19.9,15,19.8,14.8,19.8z"/>
    <path d="M14.7,21c-1.4,0-2.5-1.1-2.5-2.5c0-1.4,1.1-2.5,2.5-2.5c1.4,0,2.5,1.1,2.5,2.5C17.2,19.9,16.1,21,14.7,21z M14.7,17.1c-0.8,0-1.4,0.6-1.4,1.4c0,0.8,0.6,1.4,1.4,1.4c0.8,0,1.4-0.6,1.4-1.4C16.1,17.7,15.5,17.1,14.7,17.1z"/>
    <path d="M14.7,21.2c-1.5,0-2.7-1.2-2.7-2.7c0-1.5,1.2-2.7,2.7-2.7s2.7,1.2,2.7,2.7C17.4,20,16.2,21.2,14.7,21.2z M14.7,16.3c-1.2,0-2.2,1-2.2,2.2c0,1.2,1,2.2,2.2,2.2s2.2-1,2.2-2.2C16.9,17.3,15.9,16.3,14.7,16.3z M14.7,20.1c-0.9,0-1.7-0.7-1.7-1.7c0-0.9,0.7-1.7,1.7-1.7c0.9,0,1.7,0.7,1.7,1.7C16.4,19.4,15.6,20.1,14.7,20.1z M14.7,17.3c-0.6,0-1.2,0.5-1.2,1.2c0,0.6,0.5,1.2,1.2,1.2s1.2-0.5,1.2-1.2C15.9,17.9,15.4,17.3,14.7,17.3z"/>
    <path d="M27.2,21c-1.4,0-2.5-1.1-2.5-2.5c0-1.4,1.1-2.5,2.5-2.5s2.5,1.1,2.5,2.5C29.7,19.8,28.6,21,27.2,21z M27.2,17c-0.8,0-1.5,0.7-1.5,1.5c0,0.8,0.7,1.5,1.5,1.5s1.5-0.7,1.5-1.5C28.7,17.6,28,17,27.2,17z"/>
    <path d="M27.2,21.2c-1.5,0-2.8-1.3-2.8-2.8s1.3-2.8,2.8-2.8s2.8,1.3,2.8,2.8S28.7,21.2,27.2,21.2z M27.2,16.1c-1.3,0-2.3,1-2.3,2.3s1,2.3,2.3,2.3c1.3,0,2.3-1,2.3-2.3S28.4,16.1,27.2,16.1z M27.2,20.1c-0.9,0-1.7-0.8-1.7-1.7s0.8-1.7,1.7-1.7c0.9,0,1.7,0.8,1.7,1.7S28.1,20.1,27.2,20.1z M27.2,17.2c-0.7,0-1.2,0.5-1.2,1.2c0,0.7,0.5,1.2,1.2,1.2c0.7,0,1.2-0.5,1.2-1.2C28.4,17.8,27.9,17.2,27.2,17.2z"/>
</svg>