<?xml version="1.0" encoding="utf-8"?>
<!-- Generator: Adobe Illustrator 19.0.0, SVG Export Plug-In . SVG Version: 6.00 Build 0)  -->
<svg version="1.1" id="Layer_1" xmlns="http://www.w3.org/2000/svg" xmlns:xlink="http://www.w3.org/1999/xlink" x="0px" y="0px"
	 viewBox="0 0 32 128" style="enable-background:new 0 0 32 128;" xml:space="preserve">
<style type="text/css">
	.st0{fill:#424242;}
	.st1{fill:none;stroke:#E7262F;stroke-width:4;stroke-miterlimit:10;}
	.st2{fill:none;stroke:#E7262F;stroke-width:2;stroke-miterlimit:10;}
	.st3{fill:#C8B299;}
	.st4{fill:#52AC47;}
	.st5{fill:#EDB92E;}
	.st6{fill:#8EC641;}
	.st7{fill:#E7262F;}
</style>
<g id="XMLID_382_">
	<g id="XMLID_215_">
		<path id="XMLID_218_" class="st0" d="M23.4,7.9c0.2-0.1,0.3-0.3,0.2-0.5c-0.1-0.2-0.2-0.3-0.4-0.2l0,0c-2.2,0.9-2.7,2.9-2.8,3.7
			c-0.8,0-1.6,0.4-2.1,0.9c-0.6,0.6-0.9,1.4-0.9,2.2c0,1.2-0.2,3-2.6,5.5c-1.5,1.6-3.7,3-5.1,3.8c-1.2,0.7-1.4,0.8-1.3,1.2
			c0.1,0.2,0.2,0.3,0.4,0.3c1.8,0,6.3-0.3,9.6-2.8c3.3-2.6,5.2-5.5,5.2-8c0-0.2,0-0.3,0-0.4l0,0l0,0c-0.2-1.3-1.2-2.3-2.5-2.6
			C21.2,10.3,21.6,8.6,23.4,7.9z M17.9,21.5c-2.6,2-6.1,2.5-8.1,2.6L10,24c1.4-0.8,3.7-2.2,5.3-4c2.5-2.7,2.8-4.6,2.8-6
			c0,0,0-0.1,0-0.1c0.5,0.1,1.1,0.3,1.2,0.5c0.1,0.2,0.3,0.2,0.5,0.2c0,0,0.1,0,0.1,0c0.3-0.3,0.7-0.5,1.1-0.7
			c0.3,0.2,0.5,0.5,0.6,0.8c0,0.1,0.1,0.2,0.2,0.2c0,0,0.1,0,0.1,0c0.1,0,0.2,0,0.2-0.1c0.2-0.2,0.5-0.4,0.7-0.6
			C22.7,16.5,20.9,19.1,17.9,21.5z M22.8,13.4c-0.3,0.2-0.6,0.3-0.8,0.5c-0.2-0.3-0.5-0.6-0.8-0.8c-0.1-0.1-0.2-0.1-0.3-0.1
			c-0.4,0.1-0.9,0.3-1.2,0.6c-0.4-0.3-0.9-0.5-1.4-0.6c0.1-0.3,0.3-0.6,0.5-0.8c0.9-0.9,2.4-1,3.4,0C22.4,12.6,22.7,13,22.8,13.4z"
			/>
		<circle id="XMLID_54_" class="st1" cx="16" cy="16" r="13.5"/>
		<line id="XMLID_1_" class="st2" x1="6.9" y1="6.9" x2="25.1" y2="25.1"/>
	</g>
	<g>
		<polygon id="XMLID_235_" class="st3" points="3.4,62.9 3.4,62.2 3.4,62.2 		"/>
		<path id="XMLID_234_" class="st4" d="M26,44.8c-0.3-0.5-0.8-0.9-1.2-1.3h-0.1c-0.7,0.2-1.4,0.6-2,1l-0.3,0.3L22,44.6
			c-0.7-0.5-1.5-0.8-2.3-0.9l-0.7-0.1l0.2-0.6c0.2-0.7,0.6-1.2,1-1.7c1.9-1.9,4.8-1.9,6.7-0.1c0.6,0.6,1.1,1.4,1.3,2.2l0.1,0.4
			l-0.4,0.2c-0.4,0.2-0.9,0.5-1.3,0.9l-0.5,0.4L26,44.8z"/>
		<path id="XMLID_233_" class="st4" d="M24.5,39.9c-0.2,0-1.2,0-1.3,0.5c1.7,0.2,3.1,1.5,3.5,3.1c-0.2,0.1-0.4,0.2-0.7,0.4
			c-0.5,0.7,0.2,1,0.3,1.2c0.7-0.4,1.4-0.8,2.1-1.1C28,42.2,26.4,39.9,24.5,39.9z"/>
		<path id="XMLID_232_" class="st5" d="M4.8,61.7l0.4-0.2c2.4-1.5,6.5-3.9,9.1-6.8c4.2-4.6,4.8-7.8,4.7-10.1c0-0.1,0-0.1,0-0.2v-0.8
			l0.7,0.1c0.8,0.2,2.1,0.5,2.5,1.2l0.1,0.1h0.1c0.6-0.5,1.3-0.9,2.1-1.3l0.3-0.1l0.2,0.2c0.5,0.4,1,1,1.3,1.6l0.1,0.1l0,0h0.1
			c0.4-0.4,0.9-0.8,1.4-1.1l1-0.6l-0.1,1.1c-0.2,4.1-3.5,9-8.8,13.1c-4.7,3.7-11.2,4.5-14.6,4.7L4.8,61.7z"/>
		<path class="st0" d="M29,33.7c0.3-0.1,0.5-0.5,0.3-0.8c-0.2-0.3-0.4-0.5-0.8-0.3l0,0c-3.8,1.5-4.8,5.1-5,6.6
			c-1.4,0.1-2.7,0.7-3.7,1.6c-1,1-1.6,2.4-1.5,3.8c0.1,2.2-0.4,5.3-4.5,9.6c-2.6,2.8-6.6,5.3-8.9,6.7c-2.1,1.3-2.5,1.5-2.3,2.1
			c0.1,0.3,0.4,0.5,0.8,0.5c3.2,0,11.1-0.5,16.8-4.9c5.7-4.5,9.1-9.6,9.1-14.1c0-0.3,0-0.5-0.1-0.8l0,0l0,0c-0.3-2.3-2-4.1-4.3-4.5
			C25.1,38,25.9,35,29,33.7z M19.4,57.6C14.9,61.1,8.7,62,5.1,62.2L5.5,62c2.4-1.5,6.5-3.9,9.3-7c4.4-4.8,4.9-8.1,4.9-10.5
			c0-0.1,0-0.2,0-0.2c0.9,0.2,1.9,0.5,2.1,0.9c0.2,0.3,0.5,0.4,0.8,0.3c0.1,0,0.1-0.1,0.1-0.1c0.5-0.5,1.2-0.9,1.9-1.1
			c0.5,0.4,0.8,0.8,1,1.4c0.1,0.2,0.2,0.4,0.4,0.4c0.1,0,0.1,0,0.2,0c0.2,0,0.3-0.1,0.4-0.2c0.4-0.4,0.8-0.8,1.3-1
			C27.8,48.8,24.7,53.5,19.4,57.6z M27.9,43.5c-0.5,0.3-1,0.6-1.4,0.9c-0.4-0.5-0.8-1-1.4-1.4c-0.2-0.1-0.3-0.1-0.5-0.1
			c-0.8,0.2-1.5,0.6-2.2,1.1c-0.8-0.5-1.6-0.9-2.5-1c0.2-0.5,0.5-1,0.9-1.5c1.6-1.6,4.3-1.7,5.9-0.1C27.3,42.1,27.7,42.7,27.9,43.5z
			"/>
	</g>
	<g>
		<polygon id="XMLID_281_" class="st3" points="3.4,94.9 3.4,94.2 3.4,94.2 		"/>
		<path id="XMLID_280_" class="st4" d="M26,76.8c-0.3-0.5-0.8-0.9-1.2-1.3h-0.1c-0.7,0.2-1.4,0.6-2,1l-0.3,0.3L22,76.6
			c-0.7-0.5-1.5-0.8-2.3-0.9l-0.7-0.1l0.2-0.6c0.2-0.7,0.6-1.2,1-1.7c1.9-1.9,4.8-1.9,6.7-0.1c0.6,0.6,1.1,1.4,1.3,2.2l0.1,0.4
			l-0.4,0.2c-0.4,0.2-0.9,0.5-1.3,0.9l-0.5,0.4L26,76.8z"/>
		<path id="XMLID_279_" class="st4" d="M24.5,71.9c-0.2,0-1.2,0-1.3,0.5c1.7,0.2,3.1,1.5,3.5,3.1c-0.2,0.1-0.4,0.2-0.7,0.4
			c-0.5,0.7,0.2,1,0.3,1.2c0.7-0.4,1.4-0.8,2.1-1.1C28,74.2,26.4,71.9,24.5,71.9z"/>
		<path id="XMLID_278_" class="st6" d="M4.8,93.7l0.4-0.2c2.4-1.5,6.5-3.9,9.1-6.8c4.2-4.6,4.8-7.8,4.7-10.1c0-0.1,0-0.1,0-0.2v-0.8
			l0.7,0.1c0.8,0.2,2.1,0.5,2.5,1.2l0.1,0.1h0.1c0.6-0.5,1.3-0.9,2.1-1.3l0.3-0.1l0.2,0.2c0.5,0.4,1,1,1.3,1.6l0.1,0.1l0,0h0.1
			c0.4-0.4,0.9-0.8,1.4-1.1l1-0.6l-0.1,1.1c-0.2,4.1-3.5,9-8.8,13.1c-4.7,3.7-11.2,4.5-14.6,4.7L4.8,93.7z"/>
		<path class="st0" d="M29,65.7c0.3-0.1,0.5-0.5,0.3-0.8c-0.2-0.3-0.4-0.5-0.8-0.3l0,0c-3.8,1.5-4.8,5.1-5,6.6
			c-1.4,0.1-2.7,0.7-3.7,1.6c-1,1-1.6,2.4-1.5,3.8c0.1,2.2-0.4,5.3-4.5,9.6c-2.6,2.8-6.6,5.3-8.9,6.7c-2.1,1.3-2.5,1.5-2.3,2.1
			c0.1,0.3,0.4,0.5,0.8,0.5c3.2,0,11.1-0.5,16.8-4.9c5.7-4.5,9.1-9.6,9.1-14.1c0-0.3,0-0.5-0.1-0.8l0,0l0,0c-0.3-2.3-2-4.1-4.3-4.5
			C25.1,70,25.9,67,29,65.7z M19.4,89.6C14.9,93.1,8.7,94,5.1,94.2L5.5,94c2.4-1.5,6.5-3.9,9.3-7c4.4-4.8,4.9-8.1,4.9-10.5
			c0-0.1,0-0.2,0-0.2c0.9,0.2,1.9,0.5,2.1,0.9c0.2,0.3,0.5,0.4,0.8,0.3c0.1,0,0.1-0.1,0.1-0.1c0.5-0.5,1.2-0.9,1.9-1.1
			c0.5,0.4,0.8,0.8,1,1.4c0.1,0.2,0.2,0.4,0.4,0.4c0.1,0,0.1,0,0.2,0c0.2,0,0.3-0.1,0.4-0.2c0.4-0.4,0.8-0.8,1.3-1
			C27.8,80.8,24.7,85.5,19.4,89.6z M27.9,75.5c-0.5,0.3-1,0.6-1.4,0.9c-0.4-0.5-0.8-1-1.4-1.4c-0.2-0.1-0.3-0.1-0.5-0.1
			c-0.8,0.2-1.5,0.6-2.2,1.1c-0.8-0.5-1.6-0.9-2.5-1c0.2-0.5,0.5-1,0.9-1.5c1.6-1.6,4.3-1.7,5.9-0.1C27.3,74.1,27.7,74.7,27.9,75.5z
			"/>
	</g>
	<g id="XMLID_342_">
		<polygon id="XMLID_288_" class="st3" points="3.4,126.9 3.4,126.2 3.4,126.2 		"/>
		<path id="XMLID_287_" class="st4" d="M26,108.8c-0.3-0.5-0.8-0.9-1.2-1.3h-0.1c-0.7,0.2-1.4,0.6-2,1l-0.3,0.3l-0.4-0.3
			c-0.7-0.5-1.5-0.8-2.3-0.9l-0.7-0.1l0.2-0.6c0.2-0.7,0.6-1.2,1-1.7c1.9-1.9,4.8-1.9,6.7-0.1c0.6,0.6,1.1,1.4,1.3,2.2l0.1,0.4
			l-0.4,0.2c-0.4,0.2-0.9,0.5-1.3,0.9l-0.5,0.4L26,108.8z"/>
		<path id="XMLID_286_" class="st4" d="M24.5,103.9c-0.2,0-1.2,0-1.3,0.5c1.7,0.2,3.1,1.5,3.5,3.1c-0.2,0.1-0.4,0.2-0.7,0.4
			c-0.5,0.7,0.2,1,0.3,1.2c0.7-0.4,1.4-0.8,2.1-1.1C28,106.2,26.4,103.9,24.5,103.9z"/>
		<path id="XMLID_285_" class="st7" d="M4.8,125.7l0.4-0.2c2.4-1.5,6.5-3.9,9.1-6.8c4.2-4.6,4.8-7.8,4.7-10.1c0-0.1,0-0.1,0-0.2
			v-0.8l0.7,0.1c0.8,0.2,2.1,0.5,2.5,1.2l0.1,0.1h0.1c0.6-0.5,1.3-0.9,2.1-1.3l0.3-0.1l0.2,0.2c0.5,0.4,1,1,1.3,1.6l0.1,0.1l0,0h0.1
			c0.4-0.4,0.9-0.8,1.4-1.1l1-0.6l-0.1,1.1c-0.2,4.1-3.5,9-8.8,13.1c-4.7,3.7-11.2,4.5-14.6,4.7L4.8,125.7z"/>
		<path id="XMLID_343_" class="st0" d="M29,97.7c0.3-0.1,0.5-0.5,0.3-0.8s-0.4-0.5-0.8-0.3l0,0c-3.8,1.5-4.8,5.1-5,6.6
			c-1.4,0.1-2.7,0.7-3.7,1.6c-1,1-1.6,2.4-1.5,3.8c0.1,2.2-0.4,5.3-4.5,9.6c-2.6,2.8-6.6,5.3-8.9,6.7c-2.1,1.3-2.5,1.5-2.3,2.1
			c0.1,0.3,0.4,0.5,0.8,0.5c3.2,0,11.1-0.5,16.8-4.9c5.7-4.5,9.1-9.6,9.1-14.1c0-0.3,0-0.5-0.1-0.8l0,0l0,0c-0.3-2.3-2-4.1-4.3-4.5
			C25.1,102,25.9,99,29,97.7z M19.4,121.6c-4.5,3.5-10.7,4.4-14.3,4.6l0.4-0.2c2.4-1.5,6.5-3.9,9.3-7c4.4-4.8,4.9-8.1,4.9-10.5
			c0-0.1,0-0.2,0-0.2c0.9,0.2,1.9,0.5,2.1,0.9c0.2,0.3,0.5,0.4,0.8,0.3c0.1,0,0.1-0.1,0.1-0.1c0.5-0.5,1.2-0.9,1.9-1.1
			c0.5,0.4,0.8,0.8,1,1.4c0.1,0.2,0.2,0.4,0.4,0.4c0.1,0,0.1,0,0.2,0c0.2,0,0.3-0.1,0.4-0.2c0.4-0.4,0.8-0.8,1.3-1
			C27.8,112.8,24.7,117.5,19.4,121.6z M27.9,107.5c-0.5,0.3-1,0.6-1.4,0.9c-0.4-0.5-0.8-1-1.4-1.4c-0.2-0.1-0.3-0.1-0.5-0.1
			c-0.8,0.2-1.5,0.6-2.2,1.1c-0.8-0.5-1.6-0.9-2.5-1c0.2-0.5,0.5-1,0.9-1.5c1.6-1.6,4.3-1.7,5.9-0.1
			C27.3,106.1,27.7,106.7,27.9,107.5z"/>
	</g>
</g>
</svg>
