<?xml version="1.0" encoding="utf-8"?>
<!-- Generator: Adobe Illustrator 19.0.0, SVG Export Plug-In . SVG Version: 6.00 Build 0)  -->
<svg version="1.1" id="Layer_1" xmlns="http://www.w3.org/2000/svg" xmlns:xlink="http://www.w3.org/1999/xlink" x="0px" y="0px"
	 viewBox="-95 271 420 251" style="enable-background:new -95 271 420 251;" xml:space="preserve">
<style type="text/css">
	.st0{fill:#EE5B31;}
	.st1{fill:#EE5B31;stroke:#EE5B31;stroke-width:0.25;stroke-miterlimit:10;}
	.st2{fill:#333333;}
	.st3{fill:#E9E7E3;}
	.st4{fill:#736A67;}
	.st5{fill:#FFFFFF;}
	.st6{fill:#81C31F;}
	.st7{fill:none;stroke:#CCCCCC;stroke-linecap:round;stroke-linejoin:round;stroke-miterlimit:10;}
	.st8{fill:none;stroke:#FFFFFF;stroke-linecap:round;stroke-linejoin:round;stroke-miterlimit:10;}
	.st9{fill:#999999;}
</style>
<g>
	<g>
		<path class="st0" d="M-36.2,281.7c1.2,0,2,0.8,1.9,1.8c-0.2,2-0.4,4-0.7,5.9c-0.1,0.4-0.3,0.8-0.5,1.1c-2.8,2.9-5.7,5.7-8.5,8.6
			c-0.8,0.8-1.7,0.8-2.4,0c-1.7-1.7-3.5-3.5-5.2-5.2c-0.7-0.7-0.7-1.7,0-2.4c2.9-2.9,5.7-5.7,8.6-8.6c0.2-0.2,0.6-0.5,0.9-0.5
			C-40.2,282.1-38.1,281.9-36.2,281.7z M-36,282.7c-0.1,0-0.1,0-0.2,0c-1.9,0.2-3.8,0.4-5.6,0.7c-0.2,0-0.5,0.2-0.7,0.3
			c-2.8,2.8-5.6,5.6-8.4,8.4c-0.4,0.4-0.4,0.7,0,1.1c1.7,1.7,3.3,3.3,5,5c0.4,0.4,0.7,0.4,1.1,0c2.8-2.8,5.6-5.6,8.4-8.4
			c0.2-0.2,0.3-0.4,0.3-0.6c0.2-1.9,0.5-3.9,0.7-5.8C-35.3,283-35.6,282.7-36,282.7z"/>
		<path class="st0" d="M-47,289.7c0.2,0.1,0.4,0.2,0.5,0.4c1.3,1.3,2.6,2.6,4,3.9c0.3,0.3,0.4,0.6,0.1,0.9c-0.3,0.3-0.6,0.2-0.9-0.1
			c-1.3-1.3-2.6-2.6-3.9-4c-0.2-0.2-0.2-0.5-0.2-0.7C-47.4,290-47.1,289.9-47,289.7z"/>
		<path class="st0" d="M-49.1,291.8c0.2,0.1,0.4,0.2,0.5,0.3c1.3,1.3,2.6,2.6,4,3.9c0.3,0.3,0.4,0.5,0.1,0.8
			c-0.3,0.3-0.6,0.2-0.9-0.1c-1.3-1.3-2.7-2.7-4-4c-0.1-0.1-0.2-0.5-0.2-0.7C-49.5,292.1-49.2,292-49.1,291.8z"/>
		<path class="st0" d="M-38.4,284.6c0.6,0,1.1,0.5,1.1,1.1s-0.5,1.1-1.1,1.1s-1.1-0.5-1.1-1.1C-39.5,285.1-39,284.6-38.4,284.6z"/>
	</g>
	<g>
		<g>
			<path class="st0" d="M-7.6,298c-4.9,0-8.9-4-8.9-8.9c0-0.3,0.2-0.5,0.5-0.5H0.8c0.3,0,0.5,0.2,0.5,0.5C1.3,294-2.7,298-7.6,298z
				 M-15.5,289.6c0.3,4.1,3.7,7.4,7.9,7.4s7.6-3.3,7.9-7.4H-15.5z"/>
		</g>
		<g>
			<path class="st0" d="M-15.3,301.8c-0.1,0-0.3,0-0.4-0.1c-0.2-0.2-0.2-0.5,0-0.7l4.3-4.3c0.2-0.2,0.5-0.2,0.7,0s0.2,0.5,0,0.7
				l-4.3,4.3C-15,301.8-15.1,301.8-15.3,301.8z"/>
		</g>
		<g>
			<path class="st0" d="M0.3,301.8c-0.1,0-0.3,0-0.4-0.1l-4.3-4.3c-0.2-0.2-0.2-0.5,0-0.7s0.5-0.2,0.7,0l4.3,4.3
				c0.2,0.2,0.2,0.5,0,0.7C0.6,301.8,0.4,301.8,0.3,301.8z"/>
		</g>
		<g>
			<path class="st0" d="M-10.5,287.5c-0.2,0-0.4-0.1-0.5-0.3c-0.1-0.3,0-0.6,0.3-0.7c0.1,0,2.6-1.1,1.8-3.4l-0.2-0.6
				c-0.9-2.5-1.3-3.7-0.2-5c0.2-0.2,0.5-0.2,0.7-0.1c0.2,0.2,0.2,0.5,0.1,0.7c-0.7,0.8-0.5,1.5,0.4,4l0.2,0.6
				c0.9,2.6-1.1,4.2-2.3,4.7C-10.4,287.5-10.5,287.5-10.5,287.5z"/>
		</g>
		<g>
			<path class="st0" d="M-6.4,287.5c-0.2,0-0.4-0.1-0.5-0.3c-0.1-0.3,0-0.6,0.3-0.7c0.2-0.1,1.9-0.9,1.3-2.5l-0.2-0.5
				c-0.6-1.9-1-2.9-0.1-4c0.2-0.2,0.5-0.3,0.7-0.1c0.2,0.2,0.3,0.5,0.1,0.7c-0.5,0.6-0.3,1.1,0.3,3l0.2,0.5c0.7,2.1-0.9,3.4-1.9,3.8
				C-6.3,287.5-6.4,287.5-6.4,287.5z"/>
		</g>
		<g>
			<path class="st0" d="M-10.2,295.2c-0.1,0-0.1,0-0.2,0c-3.1-1.4-3.4-3.4-3.4-3.5c0-0.3,0.2-0.5,0.5-0.6c0.3,0,0.5,0.2,0.6,0.5
				c0,0.1,0.2,1.5,2.8,2.6c0.3,0.1,0.4,0.4,0.3,0.7C-9.8,295.1-10,295.2-10.2,295.2z"/>
		</g>
	</g>
	<g>
		<path class="st0" d="M26.6,280.4c0.5,0,1.1,0,1.6,0c0.1,0.2,0.3,0.4,0.3,0.6c0.1,0.5,0,1,0.1,1.5c0.3,1.5,1.2,2.6,2.4,3.5
			c0.8,0.6,1.6,1.1,2.4,1.7c1.8,1.4,2.9,3.2,3,5.6c0.2,3.7-3.5,6.1-6.3,4.7c-0.1,0-0.2,0-0.3,0c-0.6,0.4-1.3,0.7-2,0.8
			c-0.3,0-0.7,0-1,0c-0.6-0.3-1.3-0.5-1.9-0.8c-0.2-0.1-0.3-0.1-0.5,0c-0.8,0.3-1.6,0.4-2.5,0.3c-2.5-0.5-4.2-3.1-3.7-5.7
			c0.4-2,1.4-3.7,3.1-4.9c0.8-0.7,1.7-1.3,2.6-1.9c1.5-1.1,2.4-2.6,2.3-4.6C26.2,280.8,26.3,280.5,26.6,280.4z M27.4,282.1
			c-0.2,1.4-0.6,2.7-1.2,3.9s-1.2,2.4-1.9,3.6c-0.8,1.5-0.9,3-0.5,4.6c0.2,1.1,0.8,2.1,1.7,2.7c1.5,1.1,3.2,0.8,4.4-0.6
			c1.5-1.9,1.6-4,0.8-6.1c-0.3-0.8-0.8-1.6-1.2-2.3c-0.9-1.6-1.6-3.2-2-4.9C27.5,282.7,27.5,282.4,27.4,282.1z M30.3,286.6
			C30.2,286.7,30.2,286.7,30.3,286.6c0.1,0.4,0.2,0.6,0.4,0.9c0.3,0.6,0.6,1.2,0.9,1.8c0.9,1.8,0.9,3.7,0.3,5.6
			c-0.2,0.7-0.6,1.3-0.9,2c0.1,0,0.3,0.1,0.5,0.1c2,0.2,3.7-1.3,3.9-3.3c0.1-2.1-0.7-3.8-2.3-5.1C32.2,288,31.2,287.3,30.3,286.6z
			 M23.8,297c-1.7-2.7-1.8-5.4-0.4-8.2c0.3-0.6,0.7-1.3,1-1.9c0-0.1,0.1-0.2,0.2-0.4c-1,0.7-1.8,1.4-2.7,2c-1.2,0.9-2,2.1-2.3,3.6
			c-0.5,1.9,0.4,3.9,2,4.6C22.3,297.2,23,297.2,23.8,297z"/>
	</g>
	<g>
		<path class="st1" d="M62.5,298.6c-0.8-1.2-1.5-2.4-2.3-3.6c-0.2-0.3-0.4-0.5-0.8-0.5c-1.3-0.2-1.9-0.8-2.1-2.1
			c0-0.2-0.2-0.5-0.4-0.7c-1.2-0.8-2.4-1.5-3.6-2.3c0.3-0.5,0.6-1,1-1.5c0.1-0.1,0.3-0.1,0.4-0.1c1.1,0.2,2.1,0.3,3.2,0.5
			c0.4,0.1,0.6,0,0.9-0.4c1.5-2.4,3.2-4.5,5.8-5.8c2-1,4.1-1.5,6.3-1.7c0.1,0,0.3,0,0.4,0s0.1,0,0.3,0.1c-0.2,1.1-0.3,2.2-0.5,3.3
			c-0.9,4.2-3.4,7.2-7,9.3c-0.4,0.3-0.6,0.5-0.5,1c0.2,1,0.3,2,0.5,2.9c0.1,0.4,0,0.6-0.4,0.8C63.3,298.1,62.9,298.3,62.5,298.6z
			 M62.7,297.5c0.5-0.1,0.6-0.4,0.6-0.8c-0.2-1-0.3-2-0.5-3c-0.1-0.4,0-0.7,0.4-0.9c3.8-2.1,6.4-5.1,7.2-9.5c0.1-0.7,0.2-1.3,0.3-2
			c-0.2,0-0.2,0-0.3,0c-0.4,0.1-0.9,0.1-1.3,0.2c-2.8,0.5-5.4,1.5-7.3,3.7c-1,1.2-1.9,2.5-2.8,3.7c-0.2,0.3-0.3,0.4-0.7,0.3
			c-1-0.2-2.1-0.3-3.2-0.5c-0.5-0.1-0.7,0.1-0.9,0.6c1.1,0.7,2.2,1.4,3.3,2.1c0.3,0.2,0.4,0.4,0.4,0.7c0,1.2,0.6,1.8,1.8,1.8
			c0.4,0,0.6,0.1,0.7,0.4C61.3,295.4,62,296.4,62.7,297.5z"/>
		<path class="st1" d="M64.2,285.4c0-1.2,1.1-2.3,2.3-2.2c1.2,0,2.2,1.1,2.2,2.3s-1.1,2.3-2.3,2.3C65.2,287.7,64.2,286.6,64.2,285.4
			z M64.9,285.5c0,0.9,0.6,1.5,1.5,1.5s1.6-0.7,1.6-1.6s-0.7-1.5-1.6-1.5S64.9,284.6,64.9,285.5z"/>
	</g>
	<g>
		<g>
			<path class="st0" d="M-78.7,295.3c-3.8,0-7-3.1-7-7c0-3.8,3.1-7,7-7c3.8,0,7,3.1,7,7C-71.7,292.2-74.8,295.3-78.7,295.3
				L-78.7,295.3z M-78.7,282.1c-3.4,0-6.2,2.8-6.2,6.2c0,3.4,2.8,6.2,6.2,6.2s6.2-2.8,6.2-6.2C-72.4,284.9-75.2,282.1-78.7,282.1
				L-78.7,282.1z"/>
		</g>
		<g>
			<path class="st0" d="M-82.8,288.3h-0.7c0-2.7,2.2-4.9,4.9-4.9v0.7C-80.9,284.2-82.8,286-82.8,288.3L-82.8,288.3z"/>
		</g>
		<g>
			<path class="st0" d="M-69.9,297.7c-0.1,0-0.2,0-0.3-0.1l-4.1-4.1c-0.1-0.1-0.1-0.4,0-0.5s0.4-0.1,0.5,0l4.1,4.1
				c0.1,0.1,0.1,0.4,0,0.5C-69.7,297.7-69.8,297.7-69.9,297.7L-69.9,297.7z"/>
		</g>
	</g>
	<g>
		<g>
			<g>
				<g>
					<g>
						<path class="st2" d="M109.3,303.9L109.3,303.9H85.5c-0.1,0-0.2,0-0.2-0.1c-0.1-0.1-0.1-0.2-0.1-0.2l0.8-20.4
							c0-0.2,0.2-0.3,0.3-0.3h22c0.2,0,0.3,0.1,0.3,0.3l1,20.3v0.1C109.6,303.8,109.5,303.9,109.3,303.9z M85.8,303.2h23.1
							l-0.9-19.7H86.6L85.8,303.2z"/>
						<path class="st2" d="M109.3,304.1H85.5c-0.1,0-0.3-0.1-0.4-0.2s-0.1-0.2-0.1-0.4l0.8-20.4c0-0.3,0.2-0.5,0.5-0.5h22
							c0.3,0,0.5,0.2,0.5,0.5l1,20.2v0.1C109.8,303.9,109.6,304.1,109.3,304.1L109.3,304.1z M86.3,283c-0.1,0-0.2,0.1-0.2,0.2
							l-0.8,20.4v0.1l0.1,0.1h23.8c0.1,0,0.2-0.1,0.2-0.2c0,0,0,0,0-0.1l0,0l-1-20.3c0-0.1-0.1-0.2-0.2-0.2H86.3z M109.1,303.4H85.6
							v-0.2l0.8-19.8h21.7v0.2L109.1,303.4z M86,303.1h22.8l-0.9-19.4H86.8L86,303.1z"/>
					</g>
				</g>
				<g>
					<g>
						<path class="st2" d="M108.3,283.6c-0.1,0-0.2,0-0.2-0.1l-1.6-1.7H88.3l-1.7,1.7c-0.1,0.1-0.3,0.1-0.5,0
							c-0.1-0.1-0.1-0.3,0-0.5l1.8-1.8c0.1-0.1,0.2-0.1,0.2-0.1h18.5c0.1,0,0.2,0,0.2,0.1l1.7,1.8c0.1,0.1,0.1,0.4,0,0.5
							C108.5,283.5,108.4,283.6,108.3,283.6z"/>
						<path class="st2" d="M86.3,283.7c-0.1,0-0.3-0.1-0.3-0.1c-0.1-0.1-0.1-0.2-0.1-0.4c0-0.1,0-0.3,0.1-0.4l1.8-1.8
							c0.1-0.1,0.2-0.1,0.4-0.1h18.5c0.1,0,0.3,0.1,0.4,0.2l1.7,1.8c0.1,0.1,0.1,0.2,0.1,0.4c0,0.1-0.1,0.3-0.2,0.3
							c-0.2,0.2-0.5,0.2-0.7,0l-1.6-1.7H88.3l-1.7,1.7C86.6,283.7,86.4,283.7,86.3,283.7z M88.1,281.2c0,0-0.1,0-0.1,0.1l-1.8,1.8
							l-0.1,0.1c0,0,0,0.1,0.1,0.1c0.1,0.1,0.2,0.1,0.3,0l1.8-1.8h18.3l1.7,1.8c0.1,0.1,0.2,0.1,0.3,0l0.1-0.1v-0.1l-1.7-1.8
							l-0.1-0.1H88.1z"/>
					</g>
				</g>
				<g>
					<g>
						<path class="st2" d="M93.5,281.4c-0.2,0-0.3-0.2-0.3-0.3v-2.2c0-0.1,0.4-3.7,4.3-3.7c0.2,0,0.3,0.1,0.3,0.3s-0.1,0.3-0.3,0.3
							c-3.3,0.1-3.7,3-3.7,3.1v2.1C93.8,281.2,93.6,281.4,93.5,281.4z"/>
						<path class="st2" d="M93.5,281.5c-0.3,0-0.5-0.2-0.5-0.5v-2.1c0,0,0.4-3.8,4.5-3.9c0.3,0,0.5,0.2,0.5,0.5s-0.2,0.5-0.5,0.5
							c-3.2,0.1-3.5,2.8-3.5,2.9v2.1C94,281.3,93.7,281.5,93.5,281.5z M97.5,275.4c-3.8,0.1-4.2,3.5-4.2,3.6v2
							c0,0.1,0.1,0.2,0.2,0.2s0.2-0.1,0.2-0.2v-2.1c0-0.1,0.4-3.2,3.8-3.2c0.1,0,0.2-0.1,0.2-0.2C97.6,275.4,97.6,275.4,97.5,275.4z
							"/>
					</g>
				</g>
				<g>
					<g>
						<path class="st2" d="M101.3,281.4c-0.2,0-0.3-0.2-0.3-0.3v-2.2c0-0.1-0.3-3-3.7-3.1c-0.2,0-0.3-0.2-0.3-0.3
							c0-0.2,0.1-0.3,0.3-0.3c3.9,0.1,4.3,3.7,4.3,3.7v2.1C101.6,281.2,101.5,281.4,101.3,281.4z"/>
						<path class="st2" d="M101.3,281.5c-0.3,0-0.5-0.2-0.5-0.5v-2.1c0-0.3-0.4-2.8-3.5-2.9c-0.3,0-0.5-0.2-0.5-0.5s0.2-0.5,0.5-0.5
							c4.1,0.1,4.5,3.8,4.5,3.8v2.2C101.8,281.3,101.6,281.5,101.3,281.5z M97.3,275.4c-0.1,0-0.2,0.1-0.2,0.2s0.1,0.2,0.2,0.2
							c3.3,0.1,3.8,2.9,3.8,3.2v2.1c0,0.1,0.1,0.2,0.2,0.2s0.2-0.1,0.2-0.2V279C101.5,278.8,101.1,275.4,97.3,275.4z"/>
					</g>
				</g>
				<g>
					<g>
						<path class="st2" d="M97.3,295.2c-0.2,0-0.3-0.1-0.3-0.3c0-0.2,0.1-0.3,0.3-0.3c3.3-0.1,3.7-3,3.7-3.1v-4.3
							c0-0.2,0.2-0.3,0.3-0.3c0.2,0,0.3,0.2,0.3,0.3v4.4C101.6,291.5,101.2,295.1,97.3,295.2L97.3,295.2z"/>
						<path class="st2" d="M97.3,295.3L97.3,295.3c-0.3,0-0.5-0.2-0.5-0.5s0.2-0.5,0.5-0.5c3.2-0.1,3.5-2.8,3.5-2.9v-4.3
							c0-0.3,0.2-0.5,0.5-0.5s0.5,0.2,0.5,0.5v4.4C101.8,291.5,101.4,295.2,97.3,295.3L97.3,295.3z M101.3,286.9
							c-0.1,0-0.2,0.1-0.2,0.2v4.3c0,0.1-0.4,3.2-3.8,3.2c-0.1,0-0.2,0.1-0.2,0.2s0.1,0.2,0.2,0.2v0.2V295c3.8-0.1,4.2-3.5,4.2-3.6
							v-4.3C101.5,287,101.4,286.9,101.3,286.9z"/>
					</g>
				</g>
				<g>
					<g>
						<path class="st2" d="M97.5,295.2L97.5,295.2c-3.9-0.1-4.3-3.7-4.3-3.7v-4.4c0-0.2,0.2-0.3,0.3-0.3s0.3,0.2,0.3,0.3v4.4
							c0,0.1,0.3,3,3.7,3.1c0.2,0,0.3,0.2,0.3,0.3C97.8,295,97.6,295.2,97.5,295.2z"/>
						<path class="st2" d="M97.5,295.3L97.5,295.3c-4.1-0.1-4.5-3.8-4.5-3.8v-4.4c0-0.3,0.2-0.5,0.5-0.5s0.5,0.2,0.5,0.5v4.4
							c0,0.3,0.4,2.8,3.5,2.9c0.3,0,0.5,0.2,0.5,0.5C98,295.1,97.7,295.3,97.5,295.3z M93.5,286.9c-0.1,0-0.2,0.1-0.2,0.2v4.4
							c0,0.1,0.4,3.5,4.2,3.5v0.2V295c0.1,0,0.2-0.1,0.2-0.2s-0.1-0.2-0.2-0.2c-3.3-0.1-3.8-2.9-3.8-3.2V287
							C93.6,287,93.6,286.9,93.5,286.9z"/>
					</g>
				</g>
				<g>
					<g>
						<path class="st2" d="M93.4,287.6c-0.9,0-1.6-0.7-1.6-1.6s0.7-1.6,1.6-1.6s1.6,0.7,1.6,1.6S94.3,287.6,93.4,287.6z M93.4,285.2
							c-0.5,0-0.9,0.4-0.9,0.9s0.4,0.9,0.9,0.9s0.9-0.4,0.9-0.9S93.9,285.2,93.4,285.2z"/>
						<path class="st2" d="M93.4,287.8c-1,0-1.7-0.8-1.7-1.7s0.8-1.7,1.7-1.7s1.7,0.8,1.7,1.7S94.4,287.8,93.4,287.8z M93.4,284.7
							c-0.8,0-1.4,0.6-1.4,1.4s0.6,1.4,1.4,1.4s1.4-0.6,1.4-1.4C94.8,285.3,94.2,284.7,93.4,284.7z M93.4,287.1
							c-0.6,0-1.1-0.5-1.1-1.1s0.5-1.1,1.1-1.1s1.1,0.5,1.1,1.1S94,287.1,93.4,287.1z M93.4,285.3c-0.4,0-0.7,0.3-0.7,0.7
							s0.3,0.7,0.7,0.7s0.7-0.3,0.7-0.7C94.1,285.7,93.8,285.3,93.4,285.3z"/>
					</g>
				</g>
				<g>
					<g>
						<path class="st2" d="M101.3,287.6c-0.9,0-1.6-0.7-1.6-1.6s0.7-1.6,1.6-1.6s1.6,0.7,1.6,1.6S102.2,287.6,101.3,287.6z
							 M101.3,285.1c-0.5,0-0.9,0.4-0.9,0.9s0.4,0.9,0.9,0.9s0.9-0.4,0.9-0.9S101.8,285.1,101.3,285.1z"/>
						<path class="st2" d="M101.3,287.8c-1,0-1.8-0.8-1.8-1.8s0.8-1.8,1.8-1.8s1.8,0.8,1.8,1.8S102.3,287.8,101.3,287.8z
							 M101.3,284.6c-0.8,0-1.4,0.6-1.4,1.4s0.6,1.4,1.4,1.4s1.4-0.6,1.4-1.4S102.1,284.6,101.3,284.6z M101.3,287.1
							c-0.6,0-1.1-0.5-1.1-1.1s0.5-1.1,1.1-1.1s1.1,0.5,1.1,1.1S101.9,287.1,101.3,287.1z M101.3,285.3c-0.4,0-0.8,0.3-0.8,0.8
							c0,0.4,0.3,0.8,0.8,0.8s0.8-0.3,0.8-0.8S101.7,285.3,101.3,285.3z"/>
					</g>
				</g>
			</g>
		</g>
	</g>
	<g id="Icons_2_">
		<g>
			<g>
				<path class="st0" d="M-57.6,371c-1.3,0-2.4-1.1-2.4-2.4v-1.9c0-1.3,1.1-2.4,2.4-2.4c1.3,0,2.4,1.1,2.4,2.4v1.9
					C-55.2,369.9-56.3,371-57.6,371z M-57.6,364.8c-1,0-1.9,0.8-1.9,1.9v1.9c0,1,0.8,1.9,1.9,1.9c1,0,1.9-0.8,1.9-1.9v-1.9
					C-55.7,365.7-56.6,364.8-57.6,364.8z"/>
			</g>
			<g>
				<path class="st0" d="M-51.8,374.8h-11.6c-0.1,0-0.1,0-0.2-0.1c-0.1-0.1-0.1-0.1-0.1-0.2c0-1.3,0.7-2.3,1.9-3.1
					c1.1-0.6,2.6-1,4.1-1c1.6,0,3,0.3,4.1,1c1.3,0.7,1.9,1.8,1.9,3.1C-51.5,374.7-51.7,374.8-51.8,374.8z M-63.1,374.3h11
					c-0.1-1.2-1-1.9-1.7-2.3c-1-0.6-2.4-0.9-3.9-0.9s-2.8,0.3-3.9,0.9C-62.2,372.3-63,373.1-63.1,374.3z"/>
			</g>
		</g>
	</g>
	<g>
		<g>
			<path class="st0" d="M-83,375.9c-3.2,0-5.7-2.6-5.7-5.7s2.6-5.7,5.7-5.7s5.7,2.6,5.7,5.7C-77.3,373.3-79.8,375.9-83,375.9z
				 M-83,365c-2.8,0-5.1,2.3-5.1,5.2c0,2.9,2.3,5.2,5.2,5.2c2.9,0,5.2-2.3,5.2-5.2C-77.7,367.3-80.1,365-83,365z"/>
			<path class="st0" d="M-83,376c-3.2,0-5.8-2.6-5.8-5.8c0-3.2,2.6-5.8,5.8-5.8c3.2,0,5.9,2.6,5.9,5.8S-79.8,376-83,376z M-83,364.6
				c-3.1,0-5.6,2.5-5.6,5.6s2.5,5.6,5.6,5.6s5.6-2.5,5.6-5.6C-77.3,367.1-79.9,364.6-83,364.6z M-83,375.4c-2.9,0-5.2-2.4-5.2-5.2
				c0-2.9,2.4-5.2,5.2-5.2c2.8,0,5.2,2.4,5.2,5.2C-77.7,373.1-80.1,375.4-83,375.4z M-83,365.1c-2.8,0-5.1,2.3-5.1,5.1
				c0,2.8,2.3,5.1,5.1,5.1c2.8,0,5.1-2.3,5.1-5.1S-80.2,365.1-83,365.1z"/>
		</g>
	</g>
	<g>
		<g>
			<circle class="st0" cx="-83" cy="367.9" r="0.5"/>
			<path class="st0" d="M-83,368.5c-0.3,0-0.6-0.2-0.6-0.6s0.2-0.6,0.6-0.6s0.6,0.2,0.6,0.6S-82.7,368.5-83,368.5z M-83,367.6
				c-0.2,0-0.4,0.2-0.4,0.4s0.2,0.4,0.4,0.4c0.2,0,0.4-0.2,0.4-0.4S-82.8,367.6-83,367.6z"/>
		</g>
	</g>
	<g>
		<g>
			<polygon class="st0" points="-82.7,372.7 -83.2,372.7 -83.2,369.6 -83.9,369.6 -83.9,369 -82.7,369 			"/>
			<path class="st0" d="M-82.6,372.8h-0.8v-3.1H-84v-0.8h1.4V372.8z M-83.1,372.6h0.4v-3.5h-1v0.4h0.6V372.6z"/>
		</g>
	</g>
	<path class="st0" d="M177.3,288.1c-1.5,3.2-8.6,9.6-10,10.8c-1.5-1.3-8.4-7.6-9.9-10.8c-0.7-1.4-0.8-3.2-0.2-4.6
		c0.4-1.2,1.3-2.2,2.4-2.7c0.8-0.4,1.6-0.6,2.5-0.6c1.9,0,3.7,0.9,4.5,2.3l0.4,0.8c0.1,0.1,0.2,0.2,0.3,0.2s0.3-0.1,0.4-0.2
		c0,0,0,0,0-0.1l0.4-0.8c0.8-1.4,2.6-2.3,4.5-2.3c0.9,0,1.7,0.2,2.5,0.6c1.1,0.5,1.9,1.5,2.4,2.7C178.1,285,178,286.7,177.3,288.1z"
		/>
	<path class="st3" d="M142.3,288.1c-1.5,3.2-8.6,9.6-10,10.8c-1.5-1.3-8.4-7.6-9.9-10.8c-0.7-1.4-0.8-3.2-0.2-4.6
		c0.4-1.2,1.3-2.2,2.4-2.7c0.8-0.4,1.6-0.6,2.5-0.6c1.9,0,3.7,0.9,4.5,2.3l0.4,0.8c0.1,0.1,0.2,0.2,0.3,0.2s0.3-0.1,0.4-0.2
		c0,0,0,0,0-0.1l0.4-0.8c0.8-1.4,2.6-2.3,4.5-2.3c0.9,0,1.7,0.2,2.5,0.6c1.1,0.5,1.9,1.5,2.4,2.7C143.1,285,143,286.7,142.3,288.1z"
		/>
	<path class="st4" d="M-5.2,371.1h-5.5c-0.5,0-0.9-0.4-0.9-0.9s0.4-0.9,0.9-0.9h5.5c0.5,0,0.9,0.4,0.9,0.9S-4.7,371.1-5.2,371.1"/>
	<path class="st4" d="M-7.9,373.8c-0.5,0-0.9-0.4-0.9-0.9v-5.5c0-0.5,0.4-0.9,0.9-0.9s0.9,0.4,0.9,0.9v5.5
		C-7,373.4-7.4,373.8-7.9,373.8"/>
	<path class="st4" d="M-8.2,377.5c-4,0-7.3-3.3-7.3-7.3s3.3-7.3,7.3-7.3s7.3,3.3,7.3,7.3C-0.9,374.2-4.2,377.5-8.2,377.5 M-8.2,364
		c-3.4,0-6.1,2.8-6.1,6.1c0,3.4,2.8,6.1,6.1,6.1c3.4,0,6.1-2.8,6.1-6.1C-2.1,366.8-4.8,364-8.2,364"/>
	<g>
		<path class="st4" d="M-29.6,371.1h-5.5c-0.5,0-0.9-0.4-0.9-0.9s0.4-0.9,0.9-0.9h5.5c0.5,0,0.9,0.4,0.9,0.9S-29.1,371.1-29.6,371.1
			"/>
		<path class="st4" d="M-32.3,377.5c-4,0-7.3-3.3-7.3-7.3s3.3-7.3,7.3-7.3s7.3,3.3,7.3,7.3S-28.2,377.5-32.3,377.5 M-32.3,364
			c-3.4,0-6.1,2.8-6.1,6.1c0,3.4,2.8,6.1,6.1,6.1c3.4,0,6.1-2.8,6.1-6.1C-26.1,366.8-28.9,364-32.3,364"/>
	</g>
	<path class="st0" d="M195.1,370.5h-5.5c-0.5,0-0.9-0.4-0.9-0.9s0.4-0.9,0.9-0.9h5.5c0.5,0,0.9,0.4,0.9,0.9
		C196.1,370,195.7,370.5,195.1,370.5"/>
	<path class="st0" d="M192.4,373.2c-0.5,0-0.9-0.4-0.9-0.9v-5.5c0-0.5,0.4-0.9,0.9-0.9s0.9,0.4,0.9,0.9v5.5
		C193.3,372.8,192.9,373.2,192.4,373.2"/>
	<path class="st0" d="M192.4,376.9c-4,0-7.3-3.3-7.3-7.3s3.3-7.3,7.3-7.3s7.3,3.3,7.3,7.3S196.4,376.9,192.4,376.9 M192.4,363.4
		c-3.4,0-6.1,2.8-6.1,6.1c0,3.4,2.8,6.1,6.1,6.1c3.3,0,6.1-2.8,6.1-6.1C198.5,366.1,195.8,363.4,192.4,363.4"/>
	<g>
		<g>
			<path class="st5" d="M-49.9,340c-0.3-0.2-0.6-0.2-0.8-0.2h-0.7h-2.7h-0.5c-0.1-3.6-1.4-7.1-3.8-9.9c-2.3-2.7-5.5-4.6-8.9-5.3
				c0.3-0.5,0.4-1.1,0.4-1.7c0-0.9-0.4-1.9-1.1-2.6s-1.6-1.1-2.6-1.1c-0.9,0-1.9,0.4-2.6,1.1c-0.5,0.7-0.9,1.7-0.9,2.6
				c0,0.6,0.1,1.2,0.4,1.7c-3.4,0.7-6.6,2.6-8.9,5.3c-2.3,2.7-3.7,6.3-3.8,9.9h-0.4h-2.7h-0.7c-0.3,0-0.6,0.1-0.8,0.2
				c-0.5,0.3-0.8,0.9-0.8,1.5s0.3,1.2,0.8,1.5c0.3,0.2,0.6,0.2,0.8,0.2h0.7h2.7h3c0.1,0.6,0.3,1.1,0.7,1.5c0.5,0.5,1.2,0.8,1.9,0.8
				h3.6h7.1h7.1h3.6c0.7,0,1.4-0.3,1.9-0.8c0.4-0.4,0.6-0.9,0.7-1.5h3h2.7h0.7c0.3,0,0.6-0.1,0.8-0.2c0.5-0.3,0.8-0.9,0.8-1.5
				C-49,340.9-49.4,340.3-49.9,340z M-72.4,320.9c0.5-0.5,1.2-0.8,2-0.8c0.7,0,1.5,0.3,2,0.8s0.8,1.2,0.8,2c0,0.7-0.3,1.5-0.8,2
				s-1.2,0.8-2,0.8c-0.7,0-1.5-0.3-2-0.8s-0.8-1.2-0.8-2C-73.3,322.2-73,321.4-72.4,320.9z M-81.9,330.4c2.2-2.6,5.4-4.5,8.8-5.1
				l0.1,0.1c0.7,0.7,1.6,1.1,2.6,1.1c0.9,0,1.9-0.4,2.6-1.1l0.1-0.1c3.4,0.6,6.6,2.4,8.8,5.1c2.2,2.6,3.5,5.9,3.6,9.3h-4.2h-11
				h-10.8h-4.2C-85.4,336.3-84.1,333-81.9,330.4z M-58.5,344.1c-0.3,0.4-0.8,0.6-1.3,0.6h-3.5h-7.1h-7.1H-81c-0.5,0-1-0.2-1.3-0.6
				c-0.2-0.3-0.4-0.6-0.5-0.9h1.6h10.9h10.9h1.6C-58.1,343.5-58.3,343.8-58.5,344.1z M-50.3,342.2c-0.1,0.1-0.3,0.1-0.4,0.1h-0.7
				h-2.7h-5.4h-11h-10.8h-5.5h-2.7h-0.7c-0.2,0-0.3,0-0.4-0.1c-0.3-0.1-0.5-0.4-0.5-0.7s0.2-0.6,0.4-0.8c0.1-0.1,0.3-0.1,0.4-0.1
				h0.7h2.7h5.4h10.9h10.9h5.6h2.7h0.7c0.2,0,0.3,0,0.4,0.1c0.3,0.2,0.4,0.5,0.4,0.8S-50,342.1-50.3,342.2z"/>
		</g>
		<g>
			<path class="st5" d="M-63.4,345.6h-17.8c-0.7,0-1.4-0.3-1.9-0.9c-0.4-0.4-0.6-0.9-0.7-1.5h-6.4c-0.3,0-0.6-0.1-0.9-0.3
				c-0.5-0.3-0.9-0.9-0.9-1.6c0-0.6,0.3-1.2,0.9-1.6c0.3-0.2,0.6-0.2,0.9-0.3h3.8c0.1-3.6,1.4-7.1,3.8-9.8c2.3-2.7,5.4-4.6,8.8-5.3
				c-0.3-0.5-0.4-1.1-0.4-1.6c0-1,0.4-1.9,1.1-2.6s1.6-1.1,2.6-1.1l0,0c1,0,1.9,0.4,2.6,1.1s1.1,1.6,1.1,2.6c0,0.6-0.1,1.1-0.4,1.6
				c3.4,0.7,6.6,2.6,8.8,5.3c2.3,2.7,3.7,6.2,3.8,9.8h3.8c0.3,0,0.6,0.1,0.9,0.3c0.5,0.3,0.9,0.9,0.9,1.6c0,0.6-0.3,1.2-0.9,1.6
				c-0.3,0.2-0.6,0.2-0.9,0.3h-6.4c-0.1,0.6-0.4,1.1-0.7,1.5c-0.5,0.5-1.2,0.8-1.9,0.9H-63.4z M-89.5,339.8h-0.7
				c-0.3,0-0.6,0.1-0.8,0.2c-0.5,0.3-0.8,0.8-0.8,1.4s0.3,1.1,0.8,1.4c0.2,0.1,0.5,0.2,0.8,0.2h6.5v0.1c0.1,0.5,0.3,1.1,0.7,1.4
				c0.5,0.5,1.1,0.8,1.8,0.8h17.8h3.6c0.7,0,1.3-0.3,1.8-0.8c0.4-0.4,0.6-0.9,0.7-1.4V343h6.5c0.3,0,0.6-0.1,0.8-0.2
				c0.5-0.3,0.8-0.8,0.8-1.4s-0.3-1.1-0.8-1.4c-0.2-0.1-0.5-0.2-0.8-0.2h-4v-0.1c-0.1-3.6-1.4-7.1-3.7-9.8c-2.3-2.7-5.4-4.5-8.8-5.2
				h-0.1l0.1-0.1c0.3-0.5,0.4-1.1,0.4-1.6c0-0.9-0.4-1.8-1-2.5c-0.7-0.7-1.6-1-2.5-1l0,0c-0.9,0-1.8,0.4-2.5,1s-1,1.6-1,2.5
				c0,0.6,0.1,1.1,0.4,1.7l0.1,0.1h-0.1c-3.4,0.7-6.6,2.6-8.8,5.2c-2.3,2.7-3.7,6.2-3.7,9.8v0.1h-3.5V339.8z M-63.4,344.8h-17.8
				c-0.5,0-1-0.2-1.4-0.6c-0.3-0.3-0.4-0.6-0.5-1v-0.1H-58v0.1c-0.1,0.4-0.3,0.7-0.5,1c-0.4,0.4-0.9,0.6-1.4,0.6H-63.4z
				 M-82.8,343.3c0.1,0.3,0.2,0.5,0.4,0.8c0.3,0.3,0.8,0.5,1.2,0.6h17.8h3.5c0.5,0,0.9-0.2,1.2-0.6c0.2-0.2,0.4-0.5,0.4-0.8H-82.8z
				 M-51.4,342.4h-38.8c-0.2,0-0.4-0.1-0.5-0.1c-0.3-0.2-0.5-0.5-0.5-0.9s0.2-0.7,0.5-0.9c0.1-0.1,0.3-0.1,0.5-0.1h3.4h36
				c0.2,0,0.4,0.1,0.5,0.1c0.3,0.2,0.5,0.5,0.5,0.9s-0.2,0.7-0.5,0.9c-0.1,0.1-0.3,0.1-0.5,0.1H-51.4z M-89.5,340.6h-0.7
				c-0.1,0-0.3,0-0.4,0.1c-0.2,0.1-0.4,0.4-0.4,0.7c0,0.3,0.2,0.6,0.4,0.7c0.1,0.1,0.3,0.1,0.4,0.1h3.4h36c0.2,0,0.3,0,0.4-0.1
				c0.2-0.1,0.4-0.4,0.4-0.7c0-0.3-0.2-0.6-0.4-0.7c-0.1-0.1-0.3-0.1-0.4-0.1h-3.4H-89.5z M-55.3,339.8h-30.3v-0.1
				c0.1-3.4,1.4-6.8,3.6-9.4s5.5-4.5,8.9-5.1l0,0l0.1,0.1c0,0,0,0.1,0.1,0.1c0.7,0.7,1.6,1,2.5,1l0,0c0.9,0,1.8-0.4,2.5-1
				c0,0,0-0.1,0.1-0.1l0.1-0.1l0,0c3.4,0.6,6.6,2.5,8.8,5.1C-56.7,333-55.4,336.3-55.3,339.8L-55.3,339.8z M-85.4,339.6h29.9
				c-0.1-3.4-1.4-6.6-3.5-9.2c-2.2-2.6-5.4-4.4-8.7-5l0,0l-0.1,0.1c-0.7,0.7-1.6,1.1-2.6,1.1l0,0c-1,0-1.9-0.4-2.6-1.1l-0.1-0.1l0,0
				c-3.3,0.6-6.5,2.4-8.7,5C-84,333-85.3,336.3-85.4,339.6z M-70.5,325.8L-70.5,325.8L-70.5,325.8L-70.5,325.8
				c-0.8,0-1.5-0.3-2.1-0.8c-0.5-0.5-0.8-1.3-0.8-2c0-0.8,0.3-1.5,0.8-2s1.3-0.8,2-0.8c0.8,0,1.5,0.3,2.1,0.8c0.5,0.5,0.8,1.3,0.8,2
				c0,0.8-0.3,1.5-0.8,2S-69.7,325.8-70.5,325.8z M-70.5,325.6L-70.5,325.6L-70.5,325.6c0.7,0,1.4-0.3,1.9-0.8s0.8-1.2,0.8-1.9
				c0-0.7-0.3-1.4-0.8-1.9s-1.2-0.8-1.9-0.8c-0.7,0-1.4,0.3-1.9,0.8s-0.8,1.2-0.8,1.9c0,0.7,0.3,1.4,0.8,1.9S-71.2,325.6-70.5,325.6
				L-70.5,325.6z"/>
		</g>
	</g>
	<g>
		<g>
			<path class="st5" d="M-20.5,318.7c-7.6,0-13.7,6.2-13.7,13.7s6.2,13.7,13.7,13.7c7.6,0,13.7-6.2,13.7-13.7
				S-12.9,318.7-20.5,318.7z M-20.5,345.1c-7,0-12.7-5.7-12.7-12.7s5.7-12.7,12.7-12.7s12.7,5.7,12.7,12.7S-13.4,345.1-20.5,345.1z"
				/>
		</g>
		<g>
			<path class="st5" d="M-20,329.9v-8.2c0-0.3-0.2-0.5-0.5-0.5s-0.5,0.2-0.5,0.5v8.2c-1,0.2-1.8,1-2,2h-4.6c-0.3,0-0.5,0.2-0.5,0.5
				s0.2,0.5,0.5,0.5h4.6c0.2,1.2,1.3,2,2.5,2c1.4,0,2.5-1.1,2.5-2.5C-17.9,331.2-18.8,330.1-20,329.9z M-20.5,333.9
				c-0.8,0-1.5-0.7-1.5-1.5s0.7-1.5,1.5-1.5s1.5,0.7,1.5,1.5C-19,333.2-19.6,333.9-20.5,333.9z"/>
		</g>
	</g>
	<g>
		<g>
			<path class="st6" d="M92,344.1H67.1v-23.4H92V344.1z M67.9,343.3h23.3v-21.8H67.9V343.3z"/>
		</g>
		<g>
			<path class="st6" d="M79.3,337.2c-2.6,0-4.7-2.1-4.7-4.7s2.1-4.7,4.7-4.7s4.7,2.1,4.7,4.7S81.9,337.2,79.3,337.2z M79.3,328.5
				c-2.2,0-3.9,1.8-3.9,3.9c0,2.2,1.8,3.9,3.9,3.9c2.2,0,3.9-1.8,3.9-3.9S81.4,328.5,79.3,328.5z M79.3,328.5
				c-2.2,0-3.9,1.8-3.9,3.9c0,2.2,1.8,3.9,3.9,3.9c2.2,0,3.9-1.8,3.9-3.9S81.4,328.5,79.3,328.5z"/>
		</g>
	</g>
	<g>
		<path class="st5" d="M35.1,324.6c-0.1,0-0.2,0-0.3-0.1l-2.3-2.7l-2.9,2.1c-0.2,0.1-0.4,0.1-0.5-0.1c-0.1-0.1-0.1-0.4,0.1-0.5
			l3.2-2.3c0.2-0.1,0.4-0.1,0.5,0.1l2.5,2.9c0.1,0.1,0.1,0.4-0.1,0.5C35.3,324.6,35.2,324.6,35.1,324.6L35.1,324.6z"/>
		<path class="st5" d="M20.6,332.8c-0.2,0-0.4-0.2-0.4-0.3c0-0.2,0.2-0.3,0.4-0.3c6.4,0,11.7-4.8,11.7-10.8c0-0.2,0.2-0.3,0.4-0.3
			s0.4,0.2,0.4,0.3C33,327.7,27.4,332.8,20.6,332.8L20.6,332.8z"/>
		<path class="st5" d="M20.6,343.8c-0.2,0-0.4-0.2-0.4-0.3v-5.3c0-0.2,0.2-0.3,0.4-0.3c0.2,0,0.4,0.2,0.4,0.3v5.3
			C21,343.6,20.8,343.8,20.6,343.8L20.6,343.8z"/>
		<path class="st5" d="M26.6,343.8c-0.2,0-0.4-0.2-0.4-0.3v-8.7c0-0.2,0.2-0.3,0.4-0.3c0.2,0,0.4,0.2,0.4,0.3v8.7
			C26.9,343.6,26.8,343.8,26.6,343.8L26.6,343.8z"/>
		<path class="st5" d="M32.5,343.8c-0.2,0-0.4-0.2-0.4-0.3v-11.1c0-0.2,0.2-0.3,0.4-0.3s0.4,0.2,0.4,0.3v11.1
			C32.9,343.6,32.7,343.8,32.5,343.8L32.5,343.8z"/>
		<path class="st5" d="M38.5,343.8c-0.2,0-0.4-0.2-0.4-0.3v-14.7c0-0.2,0.2-0.3,0.4-0.3s0.4,0.2,0.4,0.3v14.6
			C38.8,343.6,38.7,343.8,38.5,343.8L38.5,343.8z"/>
	</g>
	<g>
		<path class="st0" d="M121.7,344.6c-1.3,0-2.4-0.2-3.3-0.6s-1.7-1-2.3-1.7c-0.6-0.7-1.1-1.6-1.4-2.5c-0.3-1-0.5-2-0.5-3.1
			c0-2.2,0.3-4.1,1-5.9s1.5-3.3,2.6-4.7c1-1.4,2.2-2.5,3.5-3.5s2.5-1.8,3.8-2.3l0.9,1.2c-1.8,1.7-3.2,3.2-4.2,4.5s-1.6,2.4-1.6,3.2
			c0,0.5,0.2,0.9,0.7,1.3c0.4,0.3,1,0.6,1.6,0.9c0.6,0.2,1.3,0.5,2,0.8s1.3,0.7,1.9,1.2s1,1.1,1.4,1.9c0.4,0.7,0.6,1.7,0.6,2.8
			c0,0.7-0.1,1.4-0.4,2.2c-0.3,0.8-0.7,1.5-1.2,2.2c-0.6,0.7-1.2,1.2-2.1,1.7C123.7,344.4,122.7,344.6,121.7,344.6z M138.3,344.6
			c-1.3,0-2.4-0.2-3.3-0.6s-1.7-1-2.3-1.7s-1.1-1.6-1.4-2.5c-0.3-1-0.5-2-0.5-3.1c0-2.2,0.3-4.1,1-5.9c0.7-1.8,1.5-3.3,2.6-4.7
			c1-1.4,2.2-2.5,3.5-3.5c1.3-1,2.5-1.8,3.8-2.3l0.9,1.2c-1.8,1.7-3.2,3.2-4.2,4.5s-1.6,2.4-1.6,3.2c0,0.5,0.2,0.9,0.7,1.3
			c0.4,0.3,1,0.6,1.6,0.9c0.6,0.2,1.3,0.5,2,0.8c0.7,0.3,1.3,0.7,1.9,1.2s1,1.1,1.4,1.9c0.4,0.7,0.6,1.7,0.6,2.8
			c0,0.7-0.1,1.4-0.4,2.2c-0.3,0.8-0.7,1.5-1.2,2.2c-0.6,0.7-1.2,1.2-2.1,1.7C140.3,344.4,139.4,344.6,138.3,344.6z"/>
	</g>
	<g>
		<path class="st0" d="M187.4,320.2c1.3,0,2.4,0.2,3.3,0.6c0.9,0.4,1.7,1,2.3,1.7s1.1,1.6,1.4,2.5c0.3,1,0.5,2,0.5,3.1
			c0,2.2-0.3,4.1-1,5.9c-0.7,1.8-1.5,3.3-2.6,4.7c-1,1.4-2.2,2.5-3.5,3.5c-1.3,1-2.5,1.8-3.8,2.3l-0.9-1.2c1.8-1.7,3.2-3.2,4.2-4.5
			s1.6-2.4,1.6-3.2c0-0.5-0.2-0.9-0.7-1.3c-0.4-0.3-1-0.6-1.6-0.9c-0.6-0.2-1.3-0.5-2-0.8c-0.7-0.3-1.3-0.7-1.9-1.2
			c-0.6-0.5-1-1.1-1.4-1.9c-0.4-0.7-0.6-1.7-0.6-2.8c0-0.7,0.1-1.4,0.4-2.2s0.7-1.5,1.2-2.2c0.6-0.7,1.2-1.2,2.1-1.7
			C185.4,320.4,186.3,320.2,187.4,320.2z M170.8,320.2c1.3,0,2.4,0.2,3.3,0.6c0.9,0.4,1.7,1,2.3,1.7s1.1,1.6,1.4,2.5
			c0.3,1,0.5,2,0.5,3.1c0,2.2-0.3,4.1-1,5.9c-0.7,1.8-1.5,3.3-2.6,4.7c-1,1.4-2.2,2.5-3.5,3.5c-1.3,1-2.5,1.8-3.8,2.3l-0.9-1.2
			c1.8-1.7,3.2-3.2,4.2-4.5s1.6-2.4,1.6-3.2c0-0.5-0.2-0.9-0.7-1.3c-0.4-0.3-1-0.6-1.6-0.9c-0.6-0.2-1.3-0.5-2-0.8
			c-0.7-0.3-1.3-0.7-1.9-1.2c-0.6-0.5-1-1.1-1.4-1.9c-0.4-0.7-0.6-1.7-0.6-2.8c0-0.7,0.1-1.4,0.4-2.2s0.7-1.5,1.2-2.2
			c0.6-0.7,1.2-1.2,2.1-1.7C168.8,320.4,169.7,320.2,170.8,320.2z"/>
	</g>
	<path class="st0" d="M35.2,366.4c0-0.6,0.2-1.3,0.5-1.9c0.4-0.7,0.8-1.1,1.1-1.3c0.2-0.1,0.4-0.2,0.7-0.2c0.3-0.1,0.6-0.1,0.7-0.1
		c0.1,0,0.2,0,0.2,0c0.1,0,0.3,0.3,0.6,0.8c0.1,0.1,0.2,0.3,0.3,0.6c0.1,0.2,0.3,0.5,0.4,0.7c0.1,0.2,0.2,0.4,0.3,0.6
		c0,0,0.1,0.1,0.2,0.3c0.1,0.1,0.2,0.3,0.2,0.4s0.1,0.2,0.1,0.3s-0.1,0.3-0.3,0.5s-0.4,0.4-0.6,0.6c-0.2,0.2-0.5,0.4-0.6,0.6
		c-0.2,0.2-0.3,0.4-0.3,0.5s0,0.1,0.1,0.2c0,0.1,0.1,0.2,0.1,0.2s0.1,0.1,0.1,0.3c0.1,0.1,0.1,0.2,0.1,0.2c0.5,1,1.1,1.8,1.8,2.5
		s1.5,1.3,2.5,1.8c0,0,0.1,0,0.2,0.1c0.1,0.1,0.2,0.1,0.3,0.1c0,0,0.1,0.1,0.2,0.1c0.1,0,0.2,0.1,0.2,0.1c0.1,0,0.3-0.1,0.5-0.3
		c0.2-0.2,0.4-0.4,0.6-0.6c0.2-0.2,0.4-0.5,0.6-0.6c0.2-0.2,0.4-0.3,0.5-0.3s0.2,0,0.3,0.1c0.1,0,0.2,0.1,0.4,0.2
		c0.1,0.1,0.2,0.2,0.3,0.2c0.2,0.1,0.4,0.2,0.6,0.3c0.2,0.1,0.4,0.2,0.7,0.4c0.2,0.1,0.4,0.2,0.6,0.3c0.5,0.2,0.8,0.4,0.8,0.6
		c0,0,0,0.1,0,0.2c0,0.2,0,0.4-0.1,0.7c-0.1,0.3-0.1,0.5-0.2,0.7c-0.1,0.3-0.6,0.7-1.3,1.1s-1.3,0.5-1.9,0.5c-0.2,0-0.4,0-0.6,0
		c-0.2,0-0.4-0.1-0.6-0.1c-0.2-0.1-0.4-0.1-0.5-0.2c-0.1,0-0.3-0.1-0.6-0.2s-0.5-0.2-0.5-0.2c-0.7-0.2-1.3-0.5-1.8-0.9
		c-0.9-0.6-1.8-1.3-2.8-2.3s-1.7-1.9-2.3-2.8c-0.3-0.5-0.6-1.1-0.9-1.8c0-0.1-0.1-0.2-0.2-0.5c-0.1-0.3-0.2-0.5-0.2-0.6
		s-0.1-0.3-0.2-0.5c-0.1-0.2-0.1-0.4-0.1-0.6C35.2,366.7,35.2,366.6,35.2,366.4z"/>
	<path class="st0" d="M10.1,365.8c0-0.4,0.1-0.8,0.3-1.1c0.2-0.3,0.6-0.4,1-0.4h12.3c0.4,0,0.7,0.1,0.9,0.4c0.3,0.3,0.4,0.6,0.4,0.9
		c0,0.4-0.1,0.9-0.4,1.3s-0.6,0.7-1,1c-2.1,1.5-3.4,2.4-3.9,2.7c-0.1,0-0.2,0.1-0.4,0.3c-0.2,0.1-0.3,0.2-0.5,0.3
		c-0.1,0.1-0.3,0.2-0.4,0.3c-0.2,0.1-0.3,0.2-0.5,0.2c-0.2,0.1-0.3,0.1-0.4,0.1l0,0l0,0c-0.1,0-0.3,0-0.4-0.1
		c-0.2-0.1-0.3-0.1-0.5-0.2s-0.3-0.2-0.4-0.3s-0.3-0.2-0.5-0.3c-0.2-0.1-0.3-0.2-0.4-0.3c-0.5-0.4-1.2-0.9-2.2-1.5
		c-1-0.7-1.5-1.1-1.7-1.2c-0.3-0.2-0.7-0.6-1-1C10.3,366.6,10.1,366.2,10.1,365.8z M10.1,374.7v-6.6c0.2,0.3,0.5,0.5,0.8,0.7
		c2,1.4,3.4,2.3,4.2,2.9c0.3,0.2,0.6,0.4,0.8,0.5c0.2,0.1,0.5,0.3,0.8,0.4s0.6,0.2,0.9,0.2l0,0l0,0c0.3,0,0.6-0.1,0.9-0.2
		s0.6-0.3,0.8-0.4c0.2-0.1,0.5-0.3,0.8-0.5c0.9-0.7,2.3-1.6,4.2-2.9c0.3-0.2,0.6-0.5,0.8-0.7v6.6c0,0.4-0.1,0.7-0.4,0.9
		c-0.3,0.3-0.6,0.4-0.9,0.4H11.5c-0.4,0-0.7-0.1-0.9-0.4C10.2,375.4,10.1,375.1,10.1,374.7z"/>
	<g>
		<g>
			<g>
				<g>
					<g>
						<path class="st2" d="M64.8,364.1c0.3,0,0.5,0.1,0.7,0.3l5.7,5.1l-5.8,5.2c-0.5,0.4-1.2,0.4-1.6-0.1s-0.4-1.2,0.1-1.6l4-3.5
							l-3.8-3.4c-0.5-0.4-0.5-1.1-0.1-1.6C64.2,364.2,64.5,364.1,64.8,364.1z"/>
					</g>
				</g>
			</g>
		</g>
	</g>
	<g>
		<g>
			<g>
				<g>
					<g>
						<path class="st4" d="M89.6,364.1c0.3,0,0.5,0.1,0.7,0.3l5.7,5.1l-5.8,5.2c-0.5,0.4-1.2,0.4-1.6-0.1s-0.4-1.2,0.1-1.6l4-3.5
							l-3.8-3.4c-0.5-0.4-0.5-1.1-0.1-1.6C88.9,364.2,89.3,364.1,89.6,364.1z"/>
					</g>
				</g>
			</g>
		</g>
	</g>
	<g>
		<g>
			<g>
				<g>
					<g>
						<path class="st5" d="M114.8,364.1c0.3,0,0.5,0.1,0.7,0.3l5.7,5.1l-5.8,5.2c-0.5,0.4-1.2,0.4-1.6-0.1s-0.4-1.2,0.1-1.6l4-3.5
							l-3.8-3.4c-0.5-0.4-0.5-1.1-0.1-1.6C114.2,364.2,114.5,364.1,114.8,364.1z"/>
					</g>
				</g>
			</g>
		</g>
	</g>
	<g>
		<g>
			<g>
				<g>
					<path class="st0" d="M139.8,364.1c0.3,0,0.5,0.1,0.7,0.3l5.7,5.1l-5.8,5.2c-0.5,0.4-1.2,0.4-1.6-0.1s-0.4-1.2,0.1-1.6l4-3.5
						l-3.8-3.4c-0.5-0.4-0.5-1.1-0.1-1.6C139.2,364.2,139.5,364.1,139.8,364.1z"/>
				</g>
			</g>
		</g>
	</g>
	<path class="st4" d="M219.3,361.8c0.9,0,1.6,0,2.1,0.1v2.4h-1.5c-0.5,0-0.9,0.1-1.1,0.3c-0.2,0.2-0.3,0.6-0.3,1v1.7h2.7l-0.4,2.7
		h-2.3v7h-2.8v-7h-2.4v-2.7h2.4v-2c0-1.1,0.3-2,1-2.7C217.4,362.2,218.2,361.8,219.3,361.8L219.3,361.8z"/>
	<path class="st4" d="M273,365.5c0.6-0.1,1.1-0.2,1.7-0.5c-0.4,0.6-0.9,1.1-1.5,1.5c0,0.1,0,0.2,0,0.4c0,0.8-0.1,1.6-0.4,2.4
		c-0.2,0.8-0.6,1.6-1.1,2.3c-0.5,0.7-1,1.4-1.7,1.9c-0.7,0.6-1.5,1-2.4,1.3s-1.9,0.5-3,0.5c-1.7,0-3.2-0.4-4.6-1.3
		c0.2,0,0.5,0,0.7,0c1.4,0,2.6-0.4,3.7-1.3c-0.6,0-1.2-0.2-1.7-0.6s-0.9-0.9-1.1-1.5c0.2,0,0.4,0,0.6,0c0.3,0,0.5,0,0.8-0.1
		c-0.7-0.1-1.3-0.5-1.7-1c-0.5-0.5-0.7-1.2-0.7-1.9l0,0c0.4,0.2,0.9,0.4,1.3,0.4c-0.4-0.3-0.7-0.6-1-1.1c-0.2-0.4-0.4-0.9-0.4-1.4
		s0.1-1,0.4-1.5c0.7,0.9,1.7,1.7,2.7,2.2c1.1,0.6,2.2,0.9,3.4,0.9c0-0.2-0.1-0.5-0.1-0.7c0-0.8,0.3-1.5,0.9-2.1s1.3-0.9,2.1-0.9
		c0.9,0,1.6,0.3,2.2,0.9c0.7-0.1,1.3-0.4,1.9-0.7C274.1,364.5,273.6,365.1,273,365.5L273,365.5z"/>
	<path class="st4" d="M238.7,363.4c0,0.4-0.1,0.8-0.5,1.1c-0.3,0.3-0.7,0.5-1.3,0.5l0,0c-0.5,0-0.9-0.2-1.2-0.5
		c-0.3-0.3-0.5-0.7-0.5-1.1c0-0.5,0.2-0.8,0.5-1.1c0.3-0.3,0.7-0.4,1.2-0.4s0.9,0.1,1.2,0.4C238.6,362.6,238.7,362.9,238.7,363.4z
		 M238.5,366.2v9.2h-3.1v-9.2H238.5z M249.5,370.1v5.3h-3v-4.9c0-0.6-0.1-1.2-0.4-1.5c-0.2-0.4-0.6-0.6-1.2-0.6
		c-0.4,0-0.7,0.1-1,0.3c-0.3,0.2-0.5,0.5-0.6,0.8c-0.1,0.2-0.1,0.4-0.1,0.7v5.1h-3c0-2.5,0-4.5,0-6s0-2.4,0-2.7v-0.4h3v1.3l0,0
		c0.1-0.2,0.2-0.4,0.4-0.5c0.1-0.1,0.3-0.3,0.5-0.5c0.2-0.2,0.5-0.3,0.8-0.4c0.3-0.1,0.7-0.1,1.1-0.1c1.1,0,1.9,0.3,2.5,1
		C249.2,367.8,249.5,368.8,249.5,370.1z"/>
	<path class="st4" d="M291.7,369.2c0,0.2,0.1,0.4,0.3,0.6c0.2,0.2,0.4,0.4,0.6,0.5c0.2,0.2,0.5,0.4,0.7,0.6s0.4,0.5,0.6,0.8
		s0.3,0.7,0.3,1.1c0,0.5-0.1,0.9-0.4,1.4c-0.4,0.7-0.9,1.1-1.7,1.4c-0.7,0.3-1.5,0.5-2.4,0.5c-0.7,0-1.4-0.1-2-0.3
		c-0.6-0.2-1.1-0.6-1.4-1.1c-0.2-0.3-0.3-0.7-0.3-1c0-0.4,0.1-0.8,0.4-1.2c0.2-0.4,0.6-0.7,0.9-0.9c0.7-0.4,1.8-0.7,3.2-0.8
		c-0.2-0.2-0.3-0.4-0.4-0.6s-0.1-0.4-0.1-0.6s0.1-0.4,0.2-0.7c-0.2,0-0.4,0-0.5,0c-0.8,0-1.5-0.3-2-0.8s-0.8-1.2-0.8-2
		c0-0.4,0.1-0.9,0.3-1.3c0.2-0.4,0.5-0.8,0.8-1c0.4-0.4,0.9-0.6,1.5-0.8s1.1-0.3,1.7-0.3h3.3l-1.1,0.7h-1c0.4,0.3,0.7,0.7,0.9,1.1
		c0.2,0.4,0.3,0.8,0.3,1.3c0,0.4-0.1,0.7-0.2,1s-0.3,0.6-0.5,0.7c-0.2,0.2-0.4,0.4-0.6,0.5c-0.2,0.2-0.3,0.3-0.5,0.5
		C291.8,368.9,291.7,369.1,291.7,369.2z M290.5,375.5c0.3,0,0.6,0,0.9-0.1s0.5-0.2,0.8-0.3c0.2-0.1,0.4-0.3,0.6-0.6
		c0.1-0.3,0.2-0.5,0.2-0.9c0-0.1,0-0.3-0.1-0.4c0-0.1-0.1-0.2-0.1-0.3s-0.1-0.2-0.2-0.3c-0.1-0.1-0.2-0.2-0.2-0.3
		c-0.1-0.1-0.2-0.2-0.3-0.3c-0.2-0.1-0.2-0.2-0.3-0.2c0,0-0.2-0.1-0.3-0.2c-0.2-0.1-0.3-0.2-0.3-0.2c-0.1,0-0.2,0-0.4,0
		c-0.3,0-0.6,0-0.8,0.1c-0.3,0-0.6,0.1-0.9,0.2s-0.6,0.2-0.8,0.4c-0.2,0.1-0.4,0.3-0.5,0.6c-0.1,0.2-0.2,0.5-0.2,0.8
		c0,0.4,0.1,0.7,0.3,1c0.2,0.3,0.4,0.5,0.7,0.7c0.3,0.2,0.6,0.3,1,0.4C289.9,375.4,290.2,375.5,290.5,375.5z M290.5,368.5
		c0.2,0,0.4,0,0.6-0.1s0.4-0.2,0.5-0.3c0.3-0.3,0.4-0.7,0.4-1.3c0-0.3,0-0.6-0.1-1s-0.2-0.7-0.4-1c-0.2-0.3-0.4-0.6-0.7-0.8
		c-0.3-0.2-0.6-0.3-0.9-0.3c-0.2,0-0.4,0.1-0.7,0.2c-0.2,0.1-0.4,0.2-0.5,0.4c-0.3,0.3-0.4,0.7-0.4,1.3c0,0.2,0,0.5,0.1,0.8
		s0.1,0.5,0.3,0.8c0.1,0.3,0.3,0.5,0.4,0.7c0.2,0.2,0.4,0.4,0.6,0.5C290,368.4,290.3,368.5,290.5,368.5z M297,368.5h1.7v0.9H297v1.8
		h-0.8v-1.8h-1.7v-0.9h1.7v-1.7h0.8V368.5z"/>
	<g>
		<line class="st7" x1="-86" y1="395.5" x2="-94.1" y2="403.5"/>
		<line class="st7" x1="-81" y1="395.5" x2="-89.1" y2="403.5"/>
		<line class="st7" x1="-76" y1="395.5" x2="-84.1" y2="403.5"/>
		<line class="st7" x1="-71" y1="395.5" x2="-79.1" y2="403.5"/>
		<line class="st7" x1="-66" y1="395.5" x2="-74.1" y2="403.5"/>
		<line class="st7" x1="-61" y1="395.5" x2="-69.1" y2="403.5"/>
		<line class="st7" x1="-56" y1="395.5" x2="-64.1" y2="403.5"/>
		<line class="st7" x1="-51" y1="395.5" x2="-59.1" y2="403.5"/>
		<line class="st7" x1="-46" y1="395.5" x2="-54.1" y2="403.5"/>
		<line class="st7" x1="-41" y1="395.5" x2="-49.1" y2="403.5"/>
		<line class="st7" x1="-36" y1="395.5" x2="-44.1" y2="403.5"/>
		<line class="st7" x1="-31" y1="395.5" x2="-39.1" y2="403.5"/>
		<line class="st7" x1="-26" y1="395.5" x2="-34.1" y2="403.5"/>
		<line class="st7" x1="-21" y1="395.5" x2="-29.1" y2="403.5"/>
		<line class="st7" x1="-16" y1="395.5" x2="-24.1" y2="403.5"/>
		<line class="st7" x1="-11" y1="395.5" x2="-19.1" y2="403.5"/>
		<line class="st7" x1="-6" y1="395.5" x2="-14.1" y2="403.5"/>
		<line class="st7" x1="-1" y1="395.5" x2="-9.1" y2="403.5"/>
		<line class="st7" x1="4" y1="395.5" x2="-4.1" y2="403.5"/>
		<line class="st7" x1="9" y1="395.5" x2="0.9" y2="403.5"/>
		<line class="st7" x1="14" y1="395.5" x2="5.9" y2="403.5"/>
		<line class="st7" x1="19" y1="395.5" x2="10.9" y2="403.5"/>
		<line class="st7" x1="24" y1="395.5" x2="15.9" y2="403.5"/>
		<line class="st7" x1="29" y1="395.5" x2="20.9" y2="403.5"/>
		<line class="st7" x1="34" y1="395.5" x2="25.9" y2="403.5"/>
		<line class="st7" x1="39" y1="395.5" x2="30.9" y2="403.5"/>
		<line class="st7" x1="44" y1="395.5" x2="35.9" y2="403.5"/>
		<line class="st7" x1="49" y1="395.5" x2="40.9" y2="403.5"/>
		<line class="st7" x1="54" y1="395.5" x2="45.9" y2="403.5"/>
		<line class="st7" x1="59" y1="395.5" x2="50.9" y2="403.5"/>
		<line class="st7" x1="64" y1="395.5" x2="55.9" y2="403.5"/>
		<line class="st7" x1="69" y1="395.5" x2="60.9" y2="403.5"/>
		<line class="st7" x1="74" y1="395.5" x2="65.9" y2="403.5"/>
		<line class="st7" x1="79" y1="395.5" x2="70.9" y2="403.5"/>
		<line class="st7" x1="84" y1="395.5" x2="75.9" y2="403.5"/>
		<line class="st7" x1="89" y1="395.5" x2="80.9" y2="403.5"/>
		<line class="st7" x1="94" y1="395.5" x2="85.9" y2="403.5"/>
		<line class="st7" x1="99" y1="395.5" x2="90.9" y2="403.5"/>
		<line class="st7" x1="104" y1="395.5" x2="95.9" y2="403.5"/>
		<line class="st7" x1="109" y1="395.5" x2="100.9" y2="403.5"/>
		<line class="st7" x1="114" y1="395.5" x2="105.9" y2="403.5"/>
		<line class="st7" x1="119" y1="395.5" x2="110.9" y2="403.5"/>
		<line class="st7" x1="124" y1="395.5" x2="115.9" y2="403.5"/>
		<line class="st7" x1="129" y1="395.5" x2="120.9" y2="403.5"/>
		<line class="st7" x1="134" y1="395.5" x2="125.9" y2="403.5"/>
		<line class="st7" x1="139" y1="395.5" x2="130.9" y2="403.5"/>
		<line class="st7" x1="144" y1="395.5" x2="135.9" y2="403.5"/>
		<line class="st7" x1="149" y1="395.5" x2="140.9" y2="403.5"/>
		<line class="st7" x1="154" y1="395.5" x2="145.9" y2="403.5"/>
		<line class="st7" x1="159" y1="395.5" x2="150.9" y2="403.5"/>
		<line class="st7" x1="164" y1="395.5" x2="155.9" y2="403.5"/>
		<line class="st7" x1="169" y1="395.5" x2="160.9" y2="403.5"/>
		<line class="st7" x1="174" y1="395.5" x2="165.9" y2="403.5"/>
		<line class="st7" x1="179" y1="395.5" x2="170.9" y2="403.5"/>
		<line class="st7" x1="184" y1="395.5" x2="175.9" y2="403.5"/>
		<line class="st7" x1="189" y1="395.5" x2="180.9" y2="403.5"/>
		<line class="st7" x1="194" y1="395.5" x2="185.9" y2="403.5"/>
		<line class="st7" x1="199" y1="395.5" x2="190.9" y2="403.5"/>
		<line class="st7" x1="204" y1="395.5" x2="195.9" y2="403.5"/>
		<line class="st7" x1="209" y1="395.5" x2="200.9" y2="403.5"/>
		<line class="st7" x1="214" y1="395.5" x2="205.9" y2="403.5"/>
		<line class="st7" x1="219" y1="395.5" x2="210.9" y2="403.5"/>
		<line class="st7" x1="224" y1="395.5" x2="215.9" y2="403.5"/>
		<line class="st7" x1="229" y1="395.5" x2="220.9" y2="403.5"/>
		<line class="st7" x1="234" y1="395.5" x2="225.9" y2="403.5"/>
		<line class="st7" x1="239" y1="395.5" x2="230.9" y2="403.5"/>
		<line class="st7" x1="244" y1="395.5" x2="235.9" y2="403.5"/>
		<line class="st7" x1="249" y1="395.5" x2="240.9" y2="403.5"/>
		<line class="st7" x1="254" y1="395.5" x2="245.9" y2="403.5"/>
		<line class="st7" x1="259" y1="395.5" x2="250.9" y2="403.5"/>
		<line class="st7" x1="264.3" y1="395.5" x2="256.1" y2="403.5"/>
		<line class="st7" x1="269.3" y1="395.5" x2="261.1" y2="403.5"/>
		<line class="st7" x1="274.3" y1="395.5" x2="266.1" y2="403.5"/>
		<line class="st7" x1="279.3" y1="395.5" x2="271.1" y2="403.5"/>
		<line class="st7" x1="284.3" y1="395.5" x2="276.1" y2="403.5"/>
		<line class="st7" x1="289.3" y1="395.5" x2="281.1" y2="403.5"/>
		<line class="st7" x1="294.3" y1="395.5" x2="286.1" y2="403.5"/>
		<line class="st7" x1="299.3" y1="395.5" x2="291.1" y2="403.5"/>
		<line class="st7" x1="304.3" y1="395.5" x2="296.1" y2="403.5"/>
		<line class="st7" x1="309.3" y1="395.5" x2="301.1" y2="403.5"/>
		<line class="st7" x1="314.3" y1="395.5" x2="306.1" y2="403.5"/>
		<line class="st7" x1="319.3" y1="395.5" x2="311.1" y2="403.5"/>
		<line class="st7" x1="324.3" y1="395.5" x2="316.1" y2="403.5"/>
	</g>
	<g>
		<line class="st8" x1="-86.1" y1="465.5" x2="-94.3" y2="473.5"/>
		<line class="st8" x1="-81.1" y1="465.5" x2="-89.3" y2="473.5"/>
		<line class="st8" x1="-76.1" y1="465.5" x2="-84.3" y2="473.5"/>
		<line class="st8" x1="-71.1" y1="465.5" x2="-79.3" y2="473.5"/>
		<line class="st8" x1="-66.1" y1="465.5" x2="-74.3" y2="473.5"/>
		<line class="st8" x1="-61.1" y1="465.5" x2="-69.3" y2="473.5"/>
		<line class="st8" x1="-56.1" y1="465.5" x2="-64.3" y2="473.5"/>
		<line class="st8" x1="-51.1" y1="465.5" x2="-59.3" y2="473.5"/>
		<line class="st8" x1="-46.1" y1="465.5" x2="-54.3" y2="473.5"/>
		<line class="st8" x1="-41.1" y1="465.5" x2="-49.3" y2="473.5"/>
		<line class="st8" x1="-36.1" y1="465.5" x2="-44.3" y2="473.5"/>
		<line class="st8" x1="-31.1" y1="465.5" x2="-39.3" y2="473.5"/>
		<line class="st8" x1="-26.1" y1="465.5" x2="-34.3" y2="473.5"/>
		<line class="st8" x1="-21.1" y1="465.5" x2="-29.3" y2="473.5"/>
		<line class="st8" x1="-16.1" y1="465.5" x2="-24.3" y2="473.5"/>
		<line class="st8" x1="-11.1" y1="465.5" x2="-19.3" y2="473.5"/>
		<line class="st8" x1="-6.1" y1="465.5" x2="-14.3" y2="473.5"/>
		<line class="st8" x1="-1.1" y1="465.5" x2="-9.3" y2="473.5"/>
		<line class="st8" x1="3.9" y1="465.5" x2="-4.3" y2="473.5"/>
		<line class="st8" x1="8.9" y1="465.5" x2="0.7" y2="473.5"/>
		<line class="st8" x1="13.9" y1="465.5" x2="5.7" y2="473.5"/>
		<line class="st8" x1="18.9" y1="465.5" x2="10.7" y2="473.5"/>
		<line class="st8" x1="23.9" y1="465.5" x2="15.7" y2="473.5"/>
		<line class="st8" x1="28.9" y1="465.5" x2="20.7" y2="473.5"/>
		<line class="st8" x1="33.9" y1="465.5" x2="25.7" y2="473.5"/>
		<line class="st8" x1="38.9" y1="465.5" x2="30.7" y2="473.5"/>
		<line class="st8" x1="43.9" y1="465.5" x2="35.7" y2="473.5"/>
		<line class="st8" x1="48.9" y1="465.5" x2="40.7" y2="473.5"/>
		<line class="st8" x1="53.9" y1="465.5" x2="45.7" y2="473.5"/>
		<line class="st8" x1="58.9" y1="465.5" x2="50.7" y2="473.5"/>
		<line class="st8" x1="63.9" y1="465.5" x2="55.7" y2="473.5"/>
		<line class="st8" x1="68.9" y1="465.5" x2="60.7" y2="473.5"/>
		<line class="st8" x1="73.9" y1="465.5" x2="65.7" y2="473.5"/>
		<line class="st8" x1="78.9" y1="465.5" x2="70.7" y2="473.5"/>
		<line class="st8" x1="83.9" y1="465.5" x2="75.7" y2="473.5"/>
		<line class="st8" x1="88.9" y1="465.5" x2="80.7" y2="473.5"/>
		<line class="st8" x1="93.9" y1="465.5" x2="85.7" y2="473.5"/>
		<line class="st8" x1="98.9" y1="465.5" x2="90.7" y2="473.5"/>
		<line class="st8" x1="103.9" y1="465.5" x2="95.7" y2="473.5"/>
		<line class="st8" x1="108.9" y1="465.5" x2="100.7" y2="473.5"/>
		<line class="st8" x1="113.9" y1="465.5" x2="105.7" y2="473.5"/>
		<line class="st8" x1="118.9" y1="465.5" x2="110.7" y2="473.5"/>
		<line class="st8" x1="123.9" y1="465.5" x2="115.7" y2="473.5"/>
		<line class="st8" x1="128.9" y1="465.5" x2="120.7" y2="473.5"/>
		<line class="st8" x1="133.9" y1="465.5" x2="125.7" y2="473.5"/>
		<line class="st8" x1="138.9" y1="465.5" x2="130.7" y2="473.5"/>
		<line class="st8" x1="143.9" y1="465.5" x2="135.7" y2="473.5"/>
		<line class="st8" x1="148.9" y1="465.5" x2="140.7" y2="473.5"/>
		<line class="st8" x1="153.9" y1="465.5" x2="145.7" y2="473.5"/>
		<line class="st8" x1="158.9" y1="465.5" x2="150.7" y2="473.5"/>
		<line class="st8" x1="163.9" y1="465.5" x2="155.7" y2="473.5"/>
		<line class="st8" x1="168.9" y1="465.5" x2="160.7" y2="473.5"/>
		<line class="st8" x1="173.9" y1="465.5" x2="165.7" y2="473.5"/>
		<line class="st8" x1="178.9" y1="465.5" x2="170.7" y2="473.5"/>
		<line class="st8" x1="183.9" y1="465.5" x2="175.7" y2="473.5"/>
		<line class="st8" x1="188.9" y1="465.5" x2="180.7" y2="473.5"/>
		<line class="st8" x1="193.9" y1="465.5" x2="185.7" y2="473.5"/>
		<line class="st8" x1="198.9" y1="465.5" x2="190.7" y2="473.5"/>
		<line class="st8" x1="203.9" y1="465.5" x2="195.7" y2="473.5"/>
		<line class="st8" x1="208.9" y1="465.5" x2="200.7" y2="473.5"/>
		<line class="st8" x1="213.9" y1="465.5" x2="205.7" y2="473.5"/>
		<line class="st8" x1="218.9" y1="465.5" x2="210.7" y2="473.5"/>
		<line class="st8" x1="223.9" y1="465.5" x2="215.7" y2="473.5"/>
		<line class="st8" x1="228.9" y1="465.5" x2="220.7" y2="473.5"/>
		<line class="st8" x1="233.9" y1="465.5" x2="225.7" y2="473.5"/>
		<line class="st8" x1="238.9" y1="465.5" x2="230.7" y2="473.5"/>
		<line class="st8" x1="243.9" y1="465.5" x2="235.7" y2="473.5"/>
		<line class="st8" x1="248.9" y1="465.5" x2="240.7" y2="473.5"/>
		<line class="st8" x1="253.9" y1="465.5" x2="245.7" y2="473.5"/>
		<line class="st8" x1="258.9" y1="465.5" x2="250.7" y2="473.5"/>
		<line class="st8" x1="264.1" y1="465.5" x2="255.9" y2="473.5"/>
		<line class="st8" x1="269.1" y1="465.5" x2="260.9" y2="473.5"/>
		<line class="st8" x1="274.1" y1="465.5" x2="265.9" y2="473.5"/>
		<line class="st8" x1="279.1" y1="465.5" x2="270.9" y2="473.5"/>
		<line class="st8" x1="284.1" y1="465.5" x2="275.9" y2="473.5"/>
		<line class="st8" x1="289.1" y1="465.5" x2="280.9" y2="473.5"/>
		<line class="st8" x1="294.1" y1="465.5" x2="285.9" y2="473.5"/>
		<line class="st8" x1="299.1" y1="465.5" x2="290.9" y2="473.5"/>
		<line class="st8" x1="304.1" y1="465.5" x2="295.9" y2="473.5"/>
		<line class="st8" x1="309.1" y1="465.5" x2="300.9" y2="473.5"/>
		<line class="st8" x1="314.1" y1="465.5" x2="305.9" y2="473.5"/>
		<line class="st8" x1="319.1" y1="465.5" x2="310.9" y2="473.5"/>
		<line class="st8" x1="324.1" y1="465.5" x2="315.9" y2="473.5"/>
	</g>
	<g>
		<line class="st7" x1="-86.1" y1="438.5" x2="-94.3" y2="430.5"/>
		<line class="st7" x1="-81.1" y1="438.5" x2="-89.3" y2="430.5"/>
		<line class="st7" x1="-76.1" y1="438.5" x2="-84.3" y2="430.5"/>
		<line class="st7" x1="-71.1" y1="438.5" x2="-79.3" y2="430.5"/>
		<line class="st7" x1="-66.1" y1="438.5" x2="-74.3" y2="430.5"/>
		<line class="st7" x1="-61.1" y1="438.5" x2="-69.3" y2="430.5"/>
		<line class="st7" x1="-56.1" y1="438.5" x2="-64.3" y2="430.5"/>
		<line class="st7" x1="-51.1" y1="438.5" x2="-59.3" y2="430.5"/>
		<line class="st7" x1="-46.1" y1="438.5" x2="-54.3" y2="430.5"/>
		<line class="st7" x1="-41.1" y1="438.5" x2="-49.3" y2="430.5"/>
		<line class="st7" x1="-36.1" y1="438.5" x2="-44.3" y2="430.5"/>
		<line class="st7" x1="-31.1" y1="438.5" x2="-39.3" y2="430.5"/>
		<line class="st7" x1="-26.1" y1="438.5" x2="-34.3" y2="430.5"/>
		<line class="st7" x1="-21.1" y1="438.5" x2="-29.3" y2="430.5"/>
		<line class="st7" x1="-16.1" y1="438.5" x2="-24.3" y2="430.5"/>
		<line class="st7" x1="-11.1" y1="438.5" x2="-19.3" y2="430.5"/>
		<line class="st7" x1="-6.1" y1="438.5" x2="-14.3" y2="430.5"/>
		<line class="st7" x1="-1.1" y1="438.5" x2="-9.3" y2="430.5"/>
		<line class="st7" x1="3.9" y1="438.5" x2="-4.3" y2="430.5"/>
		<line class="st7" x1="8.9" y1="438.5" x2="0.7" y2="430.5"/>
		<line class="st7" x1="13.9" y1="438.5" x2="5.7" y2="430.5"/>
		<line class="st7" x1="18.9" y1="438.5" x2="10.7" y2="430.5"/>
		<line class="st7" x1="23.9" y1="438.5" x2="15.7" y2="430.5"/>
		<line class="st7" x1="28.9" y1="438.5" x2="20.7" y2="430.5"/>
		<line class="st7" x1="33.9" y1="438.5" x2="25.7" y2="430.5"/>
		<line class="st7" x1="38.9" y1="438.5" x2="30.7" y2="430.5"/>
		<line class="st7" x1="43.9" y1="438.5" x2="35.7" y2="430.5"/>
		<line class="st7" x1="48.9" y1="438.5" x2="40.7" y2="430.5"/>
		<line class="st7" x1="53.9" y1="438.5" x2="45.7" y2="430.5"/>
		<line class="st7" x1="58.9" y1="438.5" x2="50.7" y2="430.5"/>
		<line class="st7" x1="63.9" y1="438.5" x2="55.7" y2="430.5"/>
		<line class="st7" x1="68.9" y1="438.5" x2="60.7" y2="430.5"/>
		<line class="st7" x1="73.9" y1="438.5" x2="65.7" y2="430.5"/>
		<line class="st7" x1="78.9" y1="438.5" x2="70.7" y2="430.5"/>
		<line class="st7" x1="83.9" y1="438.5" x2="75.7" y2="430.5"/>
		<line class="st7" x1="88.9" y1="438.5" x2="80.7" y2="430.5"/>
		<line class="st7" x1="93.9" y1="438.5" x2="85.7" y2="430.5"/>
		<line class="st7" x1="98.9" y1="438.5" x2="90.7" y2="430.5"/>
		<line class="st7" x1="103.9" y1="438.5" x2="95.7" y2="430.5"/>
		<line class="st7" x1="108.9" y1="438.5" x2="100.7" y2="430.5"/>
		<line class="st7" x1="113.9" y1="438.5" x2="105.7" y2="430.5"/>
		<line class="st7" x1="118.9" y1="438.5" x2="110.7" y2="430.5"/>
		<line class="st7" x1="123.9" y1="438.5" x2="115.7" y2="430.5"/>
		<line class="st7" x1="128.9" y1="438.5" x2="120.7" y2="430.5"/>
		<line class="st7" x1="133.9" y1="438.5" x2="125.7" y2="430.5"/>
		<line class="st7" x1="138.9" y1="438.5" x2="130.7" y2="430.5"/>
		<line class="st7" x1="143.9" y1="438.5" x2="135.7" y2="430.5"/>
		<line class="st7" x1="148.9" y1="438.5" x2="140.7" y2="430.5"/>
		<line class="st7" x1="153.9" y1="438.5" x2="145.7" y2="430.5"/>
		<line class="st7" x1="158.9" y1="438.5" x2="150.7" y2="430.5"/>
		<line class="st7" x1="163.9" y1="438.5" x2="155.7" y2="430.5"/>
		<line class="st7" x1="168.9" y1="438.5" x2="160.7" y2="430.5"/>
		<line class="st7" x1="173.9" y1="438.5" x2="165.7" y2="430.5"/>
		<line class="st7" x1="178.9" y1="438.5" x2="170.7" y2="430.5"/>
		<line class="st7" x1="183.9" y1="438.5" x2="175.7" y2="430.5"/>
		<line class="st7" x1="188.9" y1="438.5" x2="180.7" y2="430.5"/>
		<line class="st7" x1="193.9" y1="438.5" x2="185.7" y2="430.5"/>
		<line class="st7" x1="198.9" y1="438.5" x2="190.7" y2="430.5"/>
		<line class="st7" x1="203.9" y1="438.5" x2="195.7" y2="430.5"/>
		<line class="st7" x1="208.9" y1="438.5" x2="200.7" y2="430.5"/>
		<line class="st7" x1="213.9" y1="438.5" x2="205.7" y2="430.5"/>
		<line class="st7" x1="218.9" y1="438.5" x2="210.7" y2="430.5"/>
		<line class="st7" x1="223.9" y1="438.5" x2="215.7" y2="430.5"/>
		<line class="st7" x1="228.9" y1="438.5" x2="220.7" y2="430.5"/>
		<line class="st7" x1="233.9" y1="438.5" x2="225.7" y2="430.5"/>
		<line class="st7" x1="238.9" y1="438.5" x2="230.7" y2="430.5"/>
		<line class="st7" x1="243.9" y1="438.5" x2="235.7" y2="430.5"/>
		<line class="st7" x1="248.9" y1="438.5" x2="240.7" y2="430.5"/>
		<line class="st7" x1="253.9" y1="438.5" x2="245.7" y2="430.5"/>
		<line class="st7" x1="258.9" y1="438.5" x2="250.7" y2="430.5"/>
		<line class="st7" x1="264.1" y1="438.5" x2="255.9" y2="430.5"/>
		<line class="st7" x1="269.1" y1="438.5" x2="260.9" y2="430.5"/>
		<line class="st7" x1="274.1" y1="438.5" x2="265.9" y2="430.5"/>
		<line class="st7" x1="279.1" y1="438.5" x2="270.9" y2="430.5"/>
		<line class="st7" x1="284.1" y1="438.5" x2="275.9" y2="430.5"/>
		<line class="st7" x1="289.1" y1="438.5" x2="280.9" y2="430.5"/>
		<line class="st7" x1="294.1" y1="438.5" x2="285.9" y2="430.5"/>
		<line class="st7" x1="299.1" y1="438.5" x2="290.9" y2="430.5"/>
		<line class="st7" x1="304.1" y1="438.5" x2="295.9" y2="430.5"/>
		<line class="st7" x1="309.1" y1="438.5" x2="300.9" y2="430.5"/>
		<line class="st7" x1="314.1" y1="438.5" x2="305.9" y2="430.5"/>
		<line class="st7" x1="319.1" y1="438.5" x2="310.9" y2="430.5"/>
		<line class="st7" x1="324.1" y1="438.5" x2="315.9" y2="430.5"/>
	</g>
	<g>
		<line class="st8" x1="-86.1" y1="508.5" x2="-94.3" y2="500.5"/>
		<line class="st8" x1="-81.1" y1="508.5" x2="-89.3" y2="500.5"/>
		<line class="st8" x1="-76.1" y1="508.5" x2="-84.3" y2="500.5"/>
		<line class="st8" x1="-71.1" y1="508.5" x2="-79.3" y2="500.5"/>
		<line class="st8" x1="-66.1" y1="508.5" x2="-74.3" y2="500.5"/>
		<line class="st8" x1="-61.1" y1="508.5" x2="-69.3" y2="500.5"/>
		<line class="st8" x1="-56.1" y1="508.5" x2="-64.3" y2="500.5"/>
		<line class="st8" x1="-51.1" y1="508.5" x2="-59.3" y2="500.5"/>
		<line class="st8" x1="-46.1" y1="508.5" x2="-54.3" y2="500.5"/>
		<line class="st8" x1="-41.1" y1="508.5" x2="-49.3" y2="500.5"/>
		<line class="st8" x1="-36.1" y1="508.5" x2="-44.3" y2="500.5"/>
		<line class="st8" x1="-31.1" y1="508.5" x2="-39.3" y2="500.5"/>
		<line class="st8" x1="-26.1" y1="508.5" x2="-34.3" y2="500.5"/>
		<line class="st8" x1="-21.1" y1="508.5" x2="-29.3" y2="500.5"/>
		<line class="st8" x1="-16.1" y1="508.5" x2="-24.3" y2="500.5"/>
		<line class="st8" x1="-11.1" y1="508.5" x2="-19.3" y2="500.5"/>
		<line class="st8" x1="-6.1" y1="508.5" x2="-14.3" y2="500.5"/>
		<line class="st8" x1="-1.1" y1="508.5" x2="-9.3" y2="500.5"/>
		<line class="st8" x1="3.9" y1="508.5" x2="-4.3" y2="500.5"/>
		<line class="st8" x1="8.9" y1="508.5" x2="0.7" y2="500.5"/>
		<line class="st8" x1="13.9" y1="508.5" x2="5.7" y2="500.5"/>
		<line class="st8" x1="18.9" y1="508.5" x2="10.7" y2="500.5"/>
		<line class="st8" x1="23.9" y1="508.5" x2="15.7" y2="500.5"/>
		<line class="st8" x1="28.9" y1="508.5" x2="20.7" y2="500.5"/>
		<line class="st8" x1="33.9" y1="508.5" x2="25.7" y2="500.5"/>
		<line class="st8" x1="38.9" y1="508.5" x2="30.7" y2="500.5"/>
		<line class="st8" x1="43.9" y1="508.5" x2="35.7" y2="500.5"/>
		<line class="st8" x1="48.9" y1="508.5" x2="40.7" y2="500.5"/>
		<line class="st8" x1="53.9" y1="508.5" x2="45.7" y2="500.5"/>
		<line class="st8" x1="58.9" y1="508.5" x2="50.7" y2="500.5"/>
		<line class="st8" x1="63.9" y1="508.5" x2="55.7" y2="500.5"/>
		<line class="st8" x1="68.9" y1="508.5" x2="60.7" y2="500.5"/>
		<line class="st8" x1="73.9" y1="508.5" x2="65.7" y2="500.5"/>
		<line class="st8" x1="78.9" y1="508.5" x2="70.7" y2="500.5"/>
		<line class="st8" x1="83.9" y1="508.5" x2="75.7" y2="500.5"/>
		<line class="st8" x1="88.9" y1="508.5" x2="80.7" y2="500.5"/>
		<line class="st8" x1="93.9" y1="508.5" x2="85.7" y2="500.5"/>
		<line class="st8" x1="98.9" y1="508.5" x2="90.7" y2="500.5"/>
		<line class="st8" x1="103.9" y1="508.5" x2="95.7" y2="500.5"/>
		<line class="st8" x1="108.9" y1="508.5" x2="100.7" y2="500.5"/>
		<line class="st8" x1="113.9" y1="508.5" x2="105.7" y2="500.5"/>
		<line class="st8" x1="118.9" y1="508.5" x2="110.7" y2="500.5"/>
		<line class="st8" x1="123.9" y1="508.5" x2="115.7" y2="500.5"/>
		<line class="st8" x1="128.9" y1="508.5" x2="120.7" y2="500.5"/>
		<line class="st8" x1="133.9" y1="508.5" x2="125.7" y2="500.5"/>
		<line class="st8" x1="138.9" y1="508.5" x2="130.7" y2="500.5"/>
		<line class="st8" x1="143.9" y1="508.5" x2="135.7" y2="500.5"/>
		<line class="st8" x1="148.9" y1="508.5" x2="140.7" y2="500.5"/>
		<line class="st8" x1="153.9" y1="508.5" x2="145.7" y2="500.5"/>
		<line class="st8" x1="158.9" y1="508.5" x2="150.7" y2="500.5"/>
		<line class="st8" x1="163.9" y1="508.5" x2="155.7" y2="500.5"/>
		<line class="st8" x1="168.9" y1="508.5" x2="160.7" y2="500.5"/>
		<line class="st8" x1="173.9" y1="508.5" x2="165.7" y2="500.5"/>
		<line class="st8" x1="178.9" y1="508.5" x2="170.7" y2="500.5"/>
		<line class="st8" x1="183.9" y1="508.5" x2="175.7" y2="500.5"/>
		<line class="st8" x1="188.9" y1="508.5" x2="180.7" y2="500.5"/>
		<line class="st8" x1="193.9" y1="508.5" x2="185.7" y2="500.5"/>
		<line class="st8" x1="198.9" y1="508.5" x2="190.7" y2="500.5"/>
		<line class="st8" x1="203.9" y1="508.5" x2="195.7" y2="500.5"/>
		<line class="st8" x1="208.9" y1="508.5" x2="200.7" y2="500.5"/>
		<line class="st8" x1="213.9" y1="508.5" x2="205.7" y2="500.5"/>
		<line class="st8" x1="218.9" y1="508.5" x2="210.7" y2="500.5"/>
		<line class="st8" x1="223.9" y1="508.5" x2="215.7" y2="500.5"/>
		<line class="st8" x1="228.9" y1="508.5" x2="220.7" y2="500.5"/>
		<line class="st8" x1="233.9" y1="508.5" x2="225.7" y2="500.5"/>
		<line class="st8" x1="238.9" y1="508.5" x2="230.7" y2="500.5"/>
		<line class="st8" x1="243.9" y1="508.5" x2="235.7" y2="500.5"/>
		<line class="st8" x1="248.9" y1="508.5" x2="240.7" y2="500.5"/>
		<line class="st8" x1="253.9" y1="508.5" x2="245.7" y2="500.5"/>
		<line class="st8" x1="258.9" y1="508.5" x2="250.7" y2="500.5"/>
		<line class="st8" x1="264.1" y1="508.5" x2="255.9" y2="500.5"/>
		<line class="st8" x1="269.1" y1="508.5" x2="260.9" y2="500.5"/>
		<line class="st8" x1="274.1" y1="508.5" x2="265.9" y2="500.5"/>
		<line class="st8" x1="279.1" y1="508.5" x2="270.9" y2="500.5"/>
		<line class="st8" x1="284.1" y1="508.5" x2="275.9" y2="500.5"/>
		<line class="st8" x1="289.1" y1="508.5" x2="280.9" y2="500.5"/>
		<line class="st8" x1="294.1" y1="508.5" x2="285.9" y2="500.5"/>
		<line class="st8" x1="299.1" y1="508.5" x2="290.9" y2="500.5"/>
		<line class="st8" x1="304.1" y1="508.5" x2="295.9" y2="500.5"/>
		<line class="st8" x1="309.1" y1="508.5" x2="300.9" y2="500.5"/>
		<line class="st8" x1="314.1" y1="508.5" x2="305.9" y2="500.5"/>
		<line class="st8" x1="319.1" y1="508.5" x2="310.9" y2="500.5"/>
		<line class="st8" x1="324.1" y1="508.5" x2="315.9" y2="500.5"/>
	</g>
	<g>
		<g>
			<g>
				<g>
					<path class="st5" d="M214.3,303.9L214.3,303.9h-23.8c-0.1,0-0.2,0-0.2-0.1c-0.1-0.1-0.1-0.2-0.1-0.2l0.8-20.4
						c0-0.2,0.2-0.3,0.3-0.3h22c0.2,0,0.3,0.1,0.3,0.3l1,20.3v0.1C214.6,303.8,214.5,303.9,214.3,303.9z M190.8,303.1h23.1
						l-0.9-19.7h-21.4L190.8,303.1z"/>
					<path class="st5" d="M214.3,304h-23.8c-0.1,0-0.3-0.1-0.4-0.2c-0.1-0.1-0.1-0.2-0.1-0.4l0.8-20.4c0-0.3,0.2-0.5,0.5-0.5h22
						c0.3,0,0.5,0.2,0.5,0.5l1,20.2v0.1C214.8,303.9,214.6,304,214.3,304L214.3,304z M191.3,283c-0.1,0-0.2,0.1-0.2,0.2l-0.8,20.4
						v0.1l0.1,0.1h23.8c0.1,0,0.2-0.1,0.2-0.2c0,0,0,0,0-0.1l0,0l-1-20.3c0-0.1-0.1-0.2-0.2-0.2H191.3z M214.1,303.4h-23.5v-0.2
						l0.8-19.8h21.7v0.2L214.1,303.4z M191,303h22.8l-0.9-19.4h-21.1L191,303z"/>
				</g>
			</g>
			<g>
				<g>
					<path class="st5" d="M213.3,283.5c-0.1,0-0.2,0-0.2-0.1l-1.6-1.7h-18.2l-1.7,1.7c-0.1,0.1-0.3,0.1-0.5,0
						c-0.1-0.1-0.1-0.3,0-0.5l1.8-1.8c0.1-0.1,0.2-0.1,0.2-0.1h18.5c0.1,0,0.2,0,0.2,0.1l1.7,1.8c0.1,0.1,0.1,0.4,0,0.5
						C213.5,283.5,213.4,283.5,213.3,283.5z"/>
					<path class="st5" d="M191.3,283.6c-0.1,0-0.3-0.1-0.3-0.1c-0.1-0.1-0.1-0.2-0.1-0.4c0-0.1,0-0.3,0.1-0.4l1.8-1.8
						c0.1-0.1,0.2-0.1,0.4-0.1h18.5c0.1,0,0.3,0.1,0.4,0.2l1.7,1.8c0.1,0.1,0.1,0.2,0.1,0.4c0,0.1-0.1,0.3-0.2,0.3
						c-0.2,0.2-0.5,0.2-0.7,0l-1.6-1.7h-18.1l-1.7,1.7C191.6,283.6,191.4,283.6,191.3,283.6z M193.1,281.1c0,0-0.1,0-0.1,0.1
						l-1.8,1.8l-0.1,0.1c0,0,0,0.1,0.1,0.1c0.1,0.1,0.2,0.1,0.3,0l1.8-1.8h18.3l1.7,1.8c0.1,0.1,0.2,0.1,0.3,0l0.1-0.1V283l-1.7-1.8
						l-0.1-0.1H193.1z"/>
				</g>
			</g>
			<g>
				<g>
					<path class="st5" d="M198.5,281.4c-0.2,0-0.3-0.2-0.3-0.3v-2.2c0-0.1,0.4-3.7,4.3-3.7c0.2,0,0.3,0.1,0.3,0.3
						c0,0.2-0.1,0.3-0.3,0.3c-3.3,0.1-3.7,3-3.7,3.1v2.1C198.8,281.1,198.6,281.4,198.5,281.4z"/>
					<path class="st5" d="M198.5,281.5c-0.3,0-0.5-0.2-0.5-0.5v-2.1c0,0,0.4-3.8,4.5-3.9c0.3,0,0.5,0.2,0.5,0.5s-0.2,0.5-0.5,0.5
						c-3.2,0.1-3.5,2.8-3.5,2.9v2.1C199,281.3,198.7,281.5,198.5,281.5z M202.5,275.4c-3.8,0.1-4.2,3.5-4.2,3.6v2
						c0,0.1,0.1,0.2,0.2,0.2c0.1,0,0.2-0.1,0.2-0.2v-2.1c0-0.1,0.4-3.2,3.8-3.2c0.1,0,0.2-0.1,0.2-0.2
						C202.6,275.4,202.6,275.4,202.5,275.4z"/>
				</g>
			</g>
			<g>
				<g>
					<path class="st5" d="M206.3,281.4c-0.2,0-0.3-0.2-0.3-0.3v-2.2c0-0.1-0.3-3-3.7-3.1c-0.2,0-0.3-0.2-0.3-0.3
						c0-0.2,0.1-0.3,0.3-0.3c3.9,0.1,4.3,3.7,4.3,3.7v2.1C206.6,281.1,206.5,281.4,206.3,281.4z"/>
					<path class="st5" d="M206.3,281.5c-0.3,0-0.5-0.2-0.5-0.5v-2.1c0-0.3-0.4-2.8-3.5-2.9c-0.3,0-0.5-0.2-0.5-0.5s0.2-0.5,0.5-0.5
						c4.1,0.1,4.5,3.8,4.5,3.8v2.2C206.8,281.3,206.6,281.5,206.3,281.5z M202.3,275.4c-0.1,0-0.2,0.1-0.2,0.2s0.1,0.2,0.2,0.2
						c3.3,0.1,3.8,2.9,3.8,3.2v2.1c0,0.1,0.1,0.2,0.2,0.2c0.1,0,0.2-0.1,0.2-0.2V279C206.5,278.8,206.1,275.4,202.3,275.4z"/>
				</g>
			</g>
			<g>
				<g>
					<path class="st5" d="M202.3,295.1c-0.2,0-0.3-0.1-0.3-0.3c0-0.2,0.1-0.3,0.3-0.3c3.3-0.1,3.7-3,3.7-3.1v-4.3
						c0-0.2,0.2-0.3,0.3-0.3c0.2,0,0.3,0.2,0.3,0.3v4.4C206.6,291.5,206.2,295,202.3,295.1L202.3,295.1z"/>
					<path class="st5" d="M202.3,295.3L202.3,295.3c-0.3,0-0.5-0.2-0.5-0.5s0.2-0.5,0.5-0.5c3.2-0.1,3.5-2.8,3.5-2.9V287
						c0-0.3,0.2-0.5,0.5-0.5c0.3,0,0.5,0.2,0.5,0.5v4.4C206.8,291.5,206.4,295.1,202.3,295.3L202.3,295.3z M206.3,286.9
						c-0.1,0-0.2,0.1-0.2,0.2v4.3c0,0.1-0.4,3.2-3.8,3.2c-0.1,0-0.2,0.1-0.2,0.2s0.1,0.2,0.2,0.2v0.2V295c3.8-0.1,4.2-3.5,4.2-3.6
						v-4.3C206.5,287,206.4,286.9,206.3,286.9z"/>
				</g>
			</g>
			<g>
				<g>
					<path class="st5" d="M202.5,295.1L202.5,295.1c-3.9-0.1-4.3-3.7-4.3-3.7V287c0-0.2,0.2-0.3,0.3-0.3s0.3,0.2,0.3,0.3v4.4
						c0,0.1,0.3,3,3.7,3.1c0.2,0,0.3,0.2,0.3,0.3C202.8,295,202.6,295.1,202.5,295.1z"/>
					<path class="st5" d="M202.5,295.3L202.5,295.3c-4.1-0.1-4.5-3.8-4.5-3.8V287c0-0.3,0.2-0.5,0.5-0.5c0.3,0,0.5,0.2,0.5,0.5v4.4
						c0,0.3,0.4,2.8,3.5,2.9c0.3,0,0.5,0.2,0.5,0.5C203,295,202.7,295.3,202.5,295.3z M198.5,286.9c-0.1,0-0.2,0.1-0.2,0.2v4.4
						c0,0.1,0.4,3.5,4.2,3.5v0.2V295c0.1,0,0.2-0.1,0.2-0.2s-0.1-0.2-0.2-0.2c-3.3-0.1-3.8-2.9-3.8-3.2V287
						C198.6,287,198.6,286.9,198.5,286.9z"/>
				</g>
			</g>
			<g>
				<g>
					<path class="st5" d="M198.4,287.5c-0.9,0-1.6-0.7-1.6-1.6s0.7-1.6,1.6-1.6c0.9,0,1.6,0.7,1.6,1.6
						C200,286.9,199.3,287.5,198.4,287.5z M198.4,285.1c-0.5,0-0.9,0.4-0.9,0.9s0.4,0.9,0.9,0.9s0.9-0.4,0.9-0.9
						S198.9,285.1,198.4,285.1z"/>
					<path class="st5" d="M198.4,287.8c-1,0-1.7-0.8-1.7-1.7c0-0.9,0.8-1.7,1.7-1.7s1.7,0.8,1.7,1.7S199.4,287.8,198.4,287.8z
						 M198.4,284.6c-0.8,0-1.4,0.6-1.4,1.4s0.6,1.4,1.4,1.4s1.4-0.6,1.4-1.4C199.8,285.3,199.2,284.6,198.4,284.6z M198.4,287
						c-0.6,0-1.1-0.5-1.1-1.1s0.5-1.1,1.1-1.1s1.1,0.5,1.1,1.1S199,287,198.4,287z M198.4,285.3c-0.4,0-0.7,0.3-0.7,0.7
						c0,0.4,0.3,0.7,0.7,0.7s0.7-0.3,0.7-0.7C199.1,285.6,198.8,285.3,198.4,285.3z"/>
				</g>
			</g>
			<g>
				<g>
					<path class="st5" d="M206.3,287.5c-0.9,0-1.6-0.7-1.6-1.6s0.7-1.6,1.6-1.6s1.6,0.7,1.6,1.6
						C207.9,286.9,207.2,287.5,206.3,287.5z M206.3,285c-0.5,0-0.9,0.4-0.9,0.9s0.4,0.9,0.9,0.9s0.9-0.4,0.9-0.9
						S206.8,285,206.3,285z"/>
					<path class="st5" d="M206.3,287.8c-1,0-1.8-0.8-1.8-1.8s0.8-1.8,1.8-1.8s1.8,0.8,1.8,1.8S207.3,287.8,206.3,287.8z
						 M206.3,284.5c-0.8,0-1.4,0.6-1.4,1.4s0.6,1.4,1.4,1.4s1.4-0.6,1.4-1.4C207.7,285.1,207.1,284.5,206.3,284.5z M206.3,287
						c-0.6,0-1.1-0.5-1.1-1.1s0.5-1.1,1.1-1.1s1.1,0.5,1.1,1.1S206.9,287,206.3,287z M206.3,285.3c-0.4,0-0.8,0.3-0.8,0.8
						c0,0.4,0.3,0.8,0.8,0.8s0.8-0.3,0.8-0.8S206.7,285.3,206.3,285.3z"/>
				</g>
			</g>
		</g>
	</g>
	<g>
		<path class="st9" d="M170.1,369.6c0,0.2-0.1,0.4-0.2,0.5l-4.2,4.1c-0.3,0.2-0.6,0.2-0.8-0.1c-0.2-0.3-0.2-0.7,0.1-1l3.7-3.5
			l-3.7-3.5c-0.3-0.2-0.3-0.7-0.1-1c0.2-0.3,0.6-0.3,0.8-0.1l4.2,4.1C170,369.2,170.1,369.4,170.1,369.6z"/>
	</g>
</g>
</svg>
