<?xml version="1.0" encoding="utf-8"?>
<!DOCTYPE svg PUBLIC "-//W3C//DTD SVG 1.1//EN" "http://www.w3.org/Graphics/SVG/1.1/DTD/svg11.dtd">
<svg version="1.1" class="dgwt-wcas-ico-loupe" xmlns="http://www.w3.org/2000/svg" xmlns:xlink="http://www.w3.org/1999/xlink" x="0px" y="0px" viewBox="0 0 18 18" style="enable-background:new 0 0 18 18;" xml:space="preserve" fill="#ffffff">
    <path d="M7.9,14.8c-3.8,0-7-3.1-7-7c0-3.8,3.1-7,7-7c3.8,0,7,3.1,7,7C14.9,11.6,11.8,14.8,7.9,14.8L7.9,14.8z M7.9,1.6c-3.4,0-6.2,2.8-6.2,6.2c0,3.4,2.8,6.2,6.2,6.2c3.4,0,6.2-2.8,6.2-6.2C14.2,4.4,11.4,1.6,7.9,1.6L7.9,1.6z"></path>
    <path d="M3.8,7.8H3.1c0-2.7,2.2-4.9,4.9-4.9v0.7C5.7,3.7,3.8,5.5,3.8,7.8L3.8,7.8z"></path>
    <path d="M16.7,17.2c-0.1,0-0.2,0-0.3-0.1L12.3,13c-0.1-0.1-0.1-0.4,0-0.5s0.4-0.1,0.5,0l4.1,4.1c0.1,0.1,0.1,0.4,0,0.5C16.9,17.1,16.8,17.2,16.7,17.2L16.7,17.2z"></path>
</svg>